/* XPM */
static char *brick_2_moss[] = {
/* columns rows colors chars-per-pixel */
"64 64 16 1 ",
"  c #EE5874",
". c #7BAE6C",
"X c #7BD65E",
"o c #58FC58",
"O c #60EA5D",
"+ c #6AEA5D",
"@ c #69D662",
"# c #7ED662",
"$ c #61C27F",
"% c #5CE06A",
"& c #A0AE65",
"* c #A6AE6C",
"= c #A15882",
"- c #FC5882",
"; c #8000FF",
": c #6B83A8",
/* pixels */
"-    --;;;----  -***---*+++#*----;---------------;;---- &****---",
"--------;--   ------     * &*----;-- ---    --   ;;---  ---  ---",
"  ---- -;-----  -------    &&   -;--  - ----------;--------    -",
"  -  ---;-------- ---  ----**----;--   ----- -  --;-   -----   -",
"   -----;-----  ---------  & ----;--   -----  *#--;-=--------  -",
"    ----;--        ---------   --;--- --------##--;=------- -   ",
"-    ---;==-    --------     ----;=--     ---**#--;=---- -  --- ",
"   =--==;-------         -------=;-----       &*==;=--    ------",
"-===--==;;=---------------------=;=-----------*#.-;-==   =   =--",
"-=======;;=--===-=========--=-==;;;=-==**===*@.=*=;;-=-====---=-",
";;;;;;;;;;;;;;;;;;;;;;;;;;;;;;;;;;;;;;;:::$%%$:;:%$::;;;;;;;;;;;",
"-----------;;;#---**----;;-------------*$$$*#---**-------;;;----",
"------------;*& --------;--   ------ --#:**---  ---       ;   --",
"        ----;#      ----:*      ----- -#;==     ---       ;    -",
"--     -----;* -   -----:* ----- ---- -#;-= -      -     -;-   -",
"      ------:*  --------:# --      -- -*;-= ---      -----;-=  -",
"  ----- ---=;=  ---- -=-:@&  -------- -*;=- -  ------     ; = --",
"=        --=;-=    =  ==:@X --=----   ==;= ---==---- -- = ;= ---",
"==---=---===;==  ==---=-:#@     =    =--;--     ==---=--=-;-==--",
"-==========;;=-=======-;;..O.==-===-==-;;;==-==--======-=;;-====",
";;;;;;;;;;;;;;;;;;;;;;:;;:;:%$;;;;;;;;;;;;;;;;;;;;;;;;;;;;;;;;;;",
"-------------- --;----**-***-*--------;;;------------=====;;;-  ",
"-  -----**---- --;-----*#**-**---------;---- ----    =---=-;--= ",
" -- --- X ---  - ;-=    --  **--    ---;-    -------     ==;==--",
"--------#--    =-;--=  ------*------==-;    - --*-------  =;-=- ",
"--------*---   ==;-==     ---&  -----=-;=-   ---**-------==;- --",
" - -----+---- -=-;-=---------*-------=-;=  ------*------- =;= --",
"        #*---- ==;-=---- ----**------=-;  -------&--    --=;-= -",
"-----   X+    =-=;;==---- -   **---   -;== -----**-------- ;-=  ",
"=  -----.@#-.-==-;; ==-=-- -- &X =--=--;==     -**---    ==;-   ",
"-===-=-=*...==-=;;;-======    -=..===-;;-====---**-#X-=-=-;;;-==",
";;;;;;::;:;%%:;;;;;;;;;;;;;;;;;;:;;;;;;;;;;;=;;;:::$:::$;;;;;;;;",
"--;;;****-#**-*------*;;-------=------------#$$#--*------*------",
" --;--#&&  &  &   &&& -;====-----------===-=-;---       &   ----",
"  -;-&&XX&       *-----;=-                 -=;=- ----------    -",
" = ;= --**------*-- -=-;------------*----- --;=---      --------",
"-=-;-=-& &&&----*--  =-;-         --*-- ----=;==--     ---------",
"- -; =& &------*---- --;-----   ----#-    ---;--  --------------",
"-=-; = -------&= -- -=-;-=-  ------*&     ==-;---       ---=    ",
"==-;-==-======*-====-=-;-== =      &*  =--==;;=-= ===  === ==---",
"=-=;;-=======--.*====-;;;;--======-=..@@..=*:;====--=====-===-==",
";;;;;;;;;;;;;;;;=;;;;;;;;;;;;;;;;;;;;:;:;;;;::;;;;;;;;;;::;;;;;;",
"----------;;-------------------;;;--  *-****-----------*:$#X*---",
"-    -----;---------------------;- - - &-****-------- & ;-  -  -",
" -     ---;-         -- --    --;  - ---* #-&  ---- --  ;-= ----",
"----   -=-;=------------    - --;-  -----*+----    - -  ;=  ----",
"--- ----=-;=-------------      =;- ------- &  -------- -;=- ----",
"        ==;=---- -  - -  ------=;-  =     -----------  -;= -----",
"- ----- -=;---= --------------==;--=--=----- =-  -----= ;== ----",
"-==-=-====;== =    =    =  -===-;-==-  =======-=--= == -;=  --==",
"=-=====--;;===-=========--====-;;;===-==--==--=====-  -;;-=  =--",
";;;;;;;;;;;;;;=;;;;;;;;;;;;;;;;;;;;;;;;;;;;;;;;;;;;;;;;;;;;;;;;;",
"  ;---------------;;--------------      ;  -----;;----  ------  ",
" -;   -           ;         - --    -   ;      --;---     --   -",
" -;-    -    --   ;   -    --     ---   ; -  ----;-  ----   ---=",
"- ;-    - --=-    ;  ---  --- -- -  -   ;-  -----;-- - ----=---=",
"- ;-=-- ---=---=--;-----   ----  ------ ; ---=-=-;o=--====-=---=",
"-o;-==-- ---=-=---;-----o  ---o  --o-=--;--==-o==;o==-oo--=o-==o",
"=o;o---o---o======;-==--o=----oo---=o-=-;==o=o===;o==o--=-=o====",
"oo;oo-=oo--=o=oo==;=====o===-=oo-=o=oo-=;=oo=o=o=;oo=o-===oo=o==",
"=o;o==-o==-=o=oo==o=o=o=oooo;=o===o=ooo=oooooo=oo;=o===oo==o=oo=",
"==oo=oooo=o=o=oo==o=o=o=oooo;=oo=o====o=ooo=ooooo;=o===oo=oo==o=",
"==;oo=o==oo=ooooo=ooo=o=oooo;=oo====ooo=ooo====ooo=o==oooooo=oo=",
"oooooooooooooooooooooooooooooooooooooooooooooooooooooooooooooooo"
};
