/* XPM */
static char *brick_1_moss2[] = {
/* columns rows colors chars-per-pixel */
"64 64 20 1 ",
"  c #EE5874",
". c #7BAE6C",
"X c #7BD65E",
"o c #5CF35A",
"O c #5AF859",
"+ c #58FC58",
"@ c #60EA5D",
"# c #6AEA5D",
"$ c #61F35A",
"% c #69D662",
"& c #7ED662",
"* c #61C27E",
"= c #5AEF61",
"- c #5CE06A",
"; c #A0AE65",
": c #A6AE6C",
"> c #A15882",
", c #FC5882",
"< c #8000FF",
"1 c #6B83A8",
/* pixels */
".>><<>,::&&&::&&&#$#:,:#$##@1<,,,,,,,,,,,,,,,,<>:>%@%%#:&;;&#&..",
";:>><,,,,;,,,&::,,, ;; ,,:&.*,,,,,,,,,      ,><.:,,,&:::,&:; &,,",
" :>><,,, ,  ;X; ,,,,,, ,,,:%*, ,      ,,,,,,,><%,,,,     :&,,::,",
" :,><>,,    ;;    ,,,,,,,,:&*>;  ,         ,,,<&, ,,,  , ;   :  ",
" ,,><>,, ,,,,&,,,     ,,,,#@1,;,,          ,,>1#,,    ,  ;; ,,, ",
" ,,><>,, ,,, ;,,,,,,,,,,,::@1>; ,,    ,,,,,  >-@>,,,,,  ,& ,,  ,",
", ,><,>>,   ,           ,:&%->:,         ,,, :*@,,,      X:,,,,,",
", ,><>,,,>>,,,,,,,,:::::,&#@*>%:,   ,,,,,,, ,,.&&&&:,,,,,,&,  ,,",
", ,><<>,>,,>>>,,,,,,::::&&&%=%%.:;;         ,>1&%:&,,>>>,,,,>,,>",
">>,><<..%%.::,>>,,>>>,::&#.<*&.&@:&#####&:...%1<.>::,,,>>>,>>,>,",
"<<<<<<<<.1>>><<1<<<<<<<1--<<<1-*-@***111*1*--*1<1-**1<<<1.*11<<<",
",,,, ,,,,,::11@.:::&#&##11:::::;   ,,.%&-**:%:,,::,,::::,,,,,,,,",
",,   ,,,,,,,1$%.:#&&X#,.*,,    ,::,,,,:@*::>:      XXX;       ,,",
",, ,     ,,:<O:&XX;X&:#:*:,, ,,,,::;;,,O1,,,,,,,,,,,&&:,,,     ,",
", ,       ,.<%$:&, ;,:::*:  ,,,     ,,:o*:,,,,,,,, ,,:XX ,,,,,,,",
",,  ,,,,,,,.1o,:;;; X:,:1&,, ,,,,,,   ::=.:;       >,,  ;   ,,,,",
",,,,    ,,:><.:X;;XX;::>1%:        ,,::.->:;,  ,,,,,,,,,,,,, ,, ",
">,,,,,,, ,:.<%#&;; X;;>>1%& ,       ; :.-%,;    ;    ,,>,,,,   ,",
">,,,,,,,,,>><%$&::,,,:>,1%&      ,,,::&&-$.&&,,>.,,,, >>>,,,,,,,",
",,>>>,.>..><1&>,,,:,,.:<<..#.>,,::##%%@:1-o%%@:.%.>,,,>,>>>>>,>,",
"<<<<<<<1<<<<<11111<<1<1<<1<1-*<1<***11111---=-=1*1<<<<<<<<<<<<<<",
",,,>,>><,>,,,,::::,,,,::,:::<1,:::::,,,,,,,,,,&:1*:,,,,,,,,,,,,,",
", ,,,,><.:,,,,    ,,,,,:&::>:1:,:;;           ::,1&:,,,,,,,,  ,,",
",  ,,,.<%,,           ,,  ,>.*:;  ,,,,,,,,,,,,::&1,;;:,      , ,",
",,,  ,>*%,,,  ,,,,:      ,,>,%:, ,,,,,,,,,    ,;#*,:     ,,,   ,",
"  ,  ,:*%,,,,>:,,, ;  ,  ,,,:1:        ,>, ,   ;#=::   , ,,,,   ",
",  ,,,%1#::>>>:,,, ,&:  ,,,,.1:,   ,,,   ,>,,  &&*&,,,  ,>.,,,  ",
"  ,  ,&1@.:>>,,,,,      ,,:,.1%:,     ,,,,,,,,, #*%:,  ,,:,   , ",
",    ,#-@#>:.>>>>>,,,,   ,::><%:,,   ,,:    ;,,,%*%.,    ; ,,, ,",
",,>,,,.-#@&,:,,,,,,,,,,,:,,&><.%     ;; ::::::,:@1*O#:.:,:,,,,,,",
">>>>>,%<=O@@>,>>>>>>:::&::..>11:.:,,,,,>%.&&o%@%&*-#o@#&..>>>>>,",
"<<<1****--=OO=11<1**<<<<<<<<1*11*1<1<<<<<<<<<-11-=-o--**<<1<<<<<",
",,,,,:::#:$&O$O#1:&::&::,,,,,:,:::::<:::::::O#####&#:OO#&&::,,,,",
",  ,,:#&&X &,:$&*&:;:, ;;X;;,:,,,,,:1,&X## ;XXX;&:&#$&-#&,;     ",
",,,  ;;XX;,,,  &<:,,         ,:, ,,,1%>:  ;    ,,&#:&&=,, X,,,,,",
",  ,,,,,::,, ,,&*,,,,,,,    :,: ,,,:1%,;    ,,   ;&,:%->,:;   ,,",
",,,   ,; ;;:,,,:*,>,,,,,,,,,&,:,,,>>=.,    ,,,,,,:&,.&-,,&     ,",
",,,,  ;,:,,,,,>%-,,,,,,,,,,>:,,:,,,>=:.,,,       .&.>@*.>&:   ,,",
",,,,,,,,,,,,,,::1:,,    ,,,,:,,....:-..>,,,,,,,,,,:::@1.>,:     ",
">,,,,,>>>>>,,,:.<.,, ,,,,>,,:,,,,,>%->.&>,,>>>, ,:::&:.:>,,,,,,,",
",>>>.>,,,>>,,..@1.>>>>>>>,.:&...>>,,*.o%%&:%:,>, ;X>:.<*>>>>>>>,",
"<<<<1<11@==--1=*<1<<<<*11*11<<<<1<111111<<<<****1<<1-<1<11<<<*<<",
",,,<<&&&:&&#O&##&::,,,:1,,,,::&&&#,,,,:,&#$=1&::::;,,::::&&&:,:,",
",,,<1::::::XX;;    ; ,,<,,,,,,,,,,,,,,,:,&:1;;,,, ,,:,:      ,,,",
",,,,<&&:,,,,,,:,,,,,,,,<,,,,        ,,,,;&&<;,, ;;;;            ",
",,,,<:;           ,,,,><>,,,     ,    ,, ##<:>;;;::,,      ,,,,,",
",,,,<:;,,,,,,,,,,,,,,,><,>,,,,,,, ,,,,   X,1,.>   ,,,,,,, ,,, ,,",
",,,><.,,      ,,,,,,,,><,>,,,    ,,,,,,,,,:<>.>     ,,,,,,     ,",
",,,><>,,,,,,,,,,,,,,,>,<>>,,,,,,       ,,::<>.>,,, ,,,>>>>>,,,>>",
">,>><>>,,,>>,,,,:,,>>>><>>>,,,,,,,,,,,,,:,:<.>>>    ,>,,>,>>>>,>",
",,>><>>>>,>,>>>,,,,>:,<<>>,>>>>>,.>,,:::,:1<>>,>>>>>>,,>,,,>>>>>",
"<<<<<<<<<<<<<<<<<<<<<<<<<<<1.<<111<<<<<--1*1<<<<<<<<<<<<<<<<<<<<",
",,,,,,,,,,<,,,,,,,,,,,,,,,,<1,:::,   ;X   ;,,,,,<<,,,,  ,,,,,,,,",
"      ,,,,<,,,              < ,,  ;      ;     ,,<,,,          ,",
",,,,   ,,,<,,,,            ,<   ;;:,,    ;   ,,,,<,, ,,,,   ,,,>",
">,,,    ,,<,>,        ,,  ,,< ;;;       ,,  ,,,,,<,,   ,,,,>,,,>",
">,,,>,,,,,<>,,,>,,,,,,,,   ,<::; ,,,,,,   ,,,>,>,<O>,,>>>>,>,,,>",
">O>,>>,,,,<,>,>,,,,,,,,,O  ,<,O  ,,O,>,,,,,>>,O>><O>>,OO,,>O,>>O",
">O>O,,,O,,<O>>>>>>,,>>,,O>,,<,OO,,,>O,>,,>>O>O>>><O>>O,,>,>O>>>>",
"OO,OO,>OO,<>O>OO>>,>>>>>O>>><>OO,>O>OO,>O>OO>O>O><OO>O,>>>OO>O>>",
">O>O>>,O>><>O>OO>>O>O>O>OOOO<>O>>>O>OOO>OOOOOO>OO<>O>>>OO>>O>OO>",
">>OO>OOOO,O>O>OO>>O>O>O>OOOO<>OO>O>,>>O>OOO>OOOOO<>O>>>OO>OO>>O>",
">,>OO>O>,OO>OOOOO>OOO>O>OOOO<>OO>>>>OOO>OOO>>>>OOO>O>>OOOOOO>OO>",
"OOOOOOOOOOOOOOOOOOOOOOOOOOOOOOOOOOOOOOOOOOOOOOOOOOOOOOOOOOOOOOOO"
};
