/* XPM */
static char *cat_tree[] = {
/* columns rows colors chars-per-pixel */
"64 64 16 1 ",
"  c black",
". c #571F00",
"X c #550017",
"o c #5B3600",
"O c #462A1B",
"+ c #7F2E00",
"@ c #834F00",
"# c #A84200",
"$ c #AD6B00",
"% c #EB6101",
"& c #F39800",
"* c #F19149",
"= c #CDC651",
"- c #DFD989",
"; c #FACC89",
": c #EBE7B2",
/* pixels */
"====::========::================================::========::====",
"====::========::================================::========::====",
"====::========::================================::========::====",
"====::========::================================::========::====",
"====::========::================================::========::====",
"====::========::================================::========::====",
"====::========::=======------======------=======::========::====",
"====::========::=======------======------=======::========::====",
"====::===--===::=====--======--==--======--=====::===--===::====",
"====::===--===::=====--======--==--======--=====::===--===::====",
"====::========::=====--========--========--=====::========::====",
"====::========::=====--========--========--=====::========::====",
"====::========::=====--==================--=====::========::====",
"====::========::=====--==================--=====::========::====",
"====::========::==#====--=#============--=======::========::====",
"====::========::=#%#===--#%#&&&&&&&&&&&&&&&&&&&&&&&&&&&&&=::====",
"====::========::#%+%#===#%+%#;;;;;;;;;;;;;;;;;;;;;;;;;;;&=::====",
"====::========::#%++%###%++%#;;;;;;;;;;;;;;;;;;;;;;;;;;;&=::====",
"====::===--===::#%%%%%%%%%%%#;;;;;;;;;;;;;;;;;;;;;;;;;;;&=::====",
"====::===--===::#%%%%%%%%%%%#############;;;;;;;;;;;;;;;&=::====",
"====::========::#%%..%%%..%##%**%%***%%%*##;;;;;;;;;;;;;&=::====",
"====::========::#**..%%%..*#%%%*%%%**%%%**##&&&&&&&&&&&&&=::====",
"====::========::=#**%%%***#%%%%*%%%**%%%**%%#$@=::========::====",
"====::========::=#*%*XXX**#%%%*%%%%*%%%%**%%%#@=::========::====",
"====::========::==#%%%X%%%#%%%%%%%%*%%%**%%%%###::========::====",
"====::========::===#%%%%##%%%%#####%%%%%%%%%%#*#::========::====",
"====::========::====####%%%%%#%%%%*#%%%%%%%%##%%#:========::====",
"====::========::=====#########%%%**%##########%%#:========::====",
"====::========::====&&&&&&&&&&#####%%##&&&&&&#**#:========::====",
"====::========::====&;;;;;;;;;;;;;;#%%*#######%*#:========::====",
"====::===--===::====&;;;;;;;;;;;;;;;#**%%%*%%%##::===--===::====",
"====::===--===::====&;;;;;;;;;;;;;;;;###%%**###=::===--===::====",
"====::========::====&&;;;;;;;;;;;;;;;;;;####$$@=::========::====",
"====::========::======&&&&&&&&&&&&&&&&&&&&&$$$@=::========::====",
"====::========::=============:@$$$$$@===@$$$$$@=::========::====",
"====::========::==============@$$$$$@===@$$$$$@=::========::====",
"====::========::==============@$$$$$@===@$$$$$@=::========::====",
"====::========::==============@$$$$$@===@$$$$$@=::========::====",
"====::========::==============@$$$$$@===@$$$$$@=::========::====",
"====::========::==============@$$$$$@===@$$$$$@=::========::====",
"====::========::==============@$$$$$@===@$$$$$@=::========::====",
"====::===--===::==============@$$$$$@===@$$$$$@=::===--===::====",
"====::===--===::==============@$$$&&&&&&&&&&&&&&&&&&=--===::====",
"====::========::=======------=@$$$&;;;;;;;;;;;;;;;;&======::====",
"====::========::=======------=@$$$&;;;;;;;;;;;;;;;;&======::====",
"====::========::=====--======-@$$$&;;;;;;;;;;;;;;;;&======::====",
"====::========::=====--======-@$$$&;;;;;;;;;;;;;;;;&======::====",
"====::========::=====--=======@$$$&;;;;;;;;;;;;;;;;&======::====",
"====::========::=====--=======@$$$&;;;;;;;;;;;;;;;;&======::====",
"====::========::=====--=======@$$$&;;;;;;;;;;;;;;;;&======::====",
"====::========::=====--=======@$$$&;;;;;;;;;;;;;;;;&======::====",
"====::========::=======--=====@$$$&;;;;;;;;;;;;;;;;&======::====",
"====::========::=======--=====@$$$&;;;;;;;;;;;;;;;;&=--===::====",
"====::===--===::=========--===@$$$&;;;;;;;;;;;;;;;;&=--===::====",
"====::===--===::=========--===@$$$&;;;;OooooooO;;;;&======::====",
"====::========::===========--=@$$$&;;;;OOOoooOO;;;;&======::====",
"====::========::===========--=@$$$&;;;oOOOOOOOOo;;;&======::====",
"====::========::=============-@$$$&;;;oOOOOOOOOo;;;&======::====",
"====::========::=============-@$$$&;;;oO  OO  Oo;;;&======::====",
"====::========::==============@$$$&;;;oO  OO  Oo;;;&======::====",
"====::========::==============@$$$&;;;oOOOOOOOOo;;;&======::====",
"====::========::==============@$$$&;;;oOOOOOOOOo;;;&======::====",
"====::========::==============@$$$&;;;oOOOOOOOOO;;;&======::====",
"====::========::==============@$$$&;;;OOOOOOOOOO;;;&======::===="
};
