/* XPM */
static char *brick_2[] = {
/* columns rows colors chars-per-pixel */
"64 64 5 1 ",
"  c #EE5874",
". c #58FC58",
"X c #A15882",
"o c #FC5882",
"O c #8000FF",
/* pixels */
"o    ooOOOoooo  oooooooooooooooooOoooooooooooooooOOoooo  ooooooo",
"ooooooooOoo   oooooo     o  oooooOoo ooo    oo   OOooo  ooo  ooo",
"  oooo oOooooo  ooooooo         oOoo  o ooooooooooOoooooooo    o",
"  o  oooOoooooooo ooo  ooooooooooOoo   ooooo o  ooOo   ooooo   o",
"   oooooOooooo  ooooooooo    ooooOoo   ooooo  ooooOoXoooooooo  o",
"    ooooOoo        ooooooooo   ooOooo ooooooooooooOXooooooo o   ",
"o    oooOXXo    oooooooo     ooooOXoo     ooooooooOXoooo o  ooo ",
"   XooXXOooooooo         oooooooXOooooo        oXXOXoo    oooooo",
"oXXXooXXOOXoooooooooooooooooooooXOXoooooooooooooXoOoXX   X   Xoo",
"oXXXXXXXOOXooXXXoXXXXXXXXXooXoXXOOOXoXXooXXXoXXXoXOOoXoXXXXoooXo",
"OOOOOOOOOOOOOOOOOOOOOOOOOOOOOOOOOOOOOOOOOOOOOOOOOOOOOOOOOOOOOOOO",
"oooooooooooOOOooooooooooOOooooooooooooooOOOooooooooooooooOOOoooo",
"ooooooooooooOo  ooooooooOoo   oooooo oooOooooo  ooo       O   oo",
"        ooooOo      ooooOo      ooooo ooOXX     ooo       O    o",
"oo     oooooOo o   oooooOo ooooo oooo ooOoX o      o     oOo   o",
"      ooooooOo  ooooooooOo oo      oo ooOoX ooo      oooooOoX  o",
"  ooooo oooXOX  oooo oXoOX   oooooooo ooOXo o  oooooo     O X oo",
"X        ooXOoX    X  XXOX  ooXoooo   XXOX oooXXoooo oo X OX ooo",
"XXoooXoooXXXOXX  XXoooXoOoX     X    XooOoo     XXoooXooXoOoXXoo",
"oXXXXXXXXXXOOXoXXXXXXXoOOXXXXXXoXXXoXXoOOOXXoXXooXXXXXXoXOOoXXXX",
"OOOOOOOOOOOOOOOOOOOOOOOOOOOOOOOOOOOOOOOOOOOOOOOOOOOOOOOOOOOOOOOO",
"oooooooooooooo ooOooooooooooooooooooooOOOooooooooooooXXXXXOOOo  ",
"o  ooooooooooo ooOoooooooooooooooooooooOoooo oooo    XoooXoOooX ",
" oo ooo   ooo  o OoX    oo  oooo    oooOo    ooooooo     XXOXXoo",
"ooooooooooo    XoOooX  oooooooooooooXXoO    o oooooooooo  XOoXo ",
"oooooooooooo   XXOoXX     ooo   oooooXoOXo   ooooooooooooXXOo oo",
" o oooooooooo oXoOoXoooooooooooooooooXoOX  oooooooooooooo XOX oo",
"        oooooo XXOoXoooo ooooooooooooXoO  ooooooo oo    ooXOoX o",
"ooooo         XoXOOXXoooo o   ooooo   oOXX ooooooooooooooo OoX  ",
"X  oooooXXooXoXXoOO XXoXoo oo    XooXooOXX     oooooo    XXOo   ",
"oXXXoXoXoXXXXXoXOOOoXXXXXX    oXXXXXXoOOoXXXXooooooo oXoXoOOOoXX",
"OOOOOOOOOOOOOOOOOOOOOOOOOOOOOOOOOOOOOOOOOOOOXOOOOOOOOOOOOOOOOOOO",
"ooOOOoooooooooooooooooOOoooooooXoooooooooooooOOooooooooooooooooo",
" ooOooo               oOXXXXoooooooooooXXXoXoOooo           oooo",
"  oOo            ooooooOXo                 oXOXo oooooooooo    o",
" X OX ooooooooooooo oXoOoooooooooooooooooo ooOXooo      oooooooo",
"oXoOoXo     ooooooo  XoOo         ooooo ooooXOXXoo     ooooooooo",
"o oO X   ooooooooooo ooOooooo   oooooo    oooOoo  oooooooooooooo",
"oXoO X ooooooo X oo oXoOoXo  ooooooo      XXoOooo       oooX    ",
"XXoOoXXoXXXXXXooXXXXoXoOoXX X       o  XooXXOOXoX XXX  XXX XXooo",
"XoXOOoXXXXXXXooXoXXXXoOOOOooXXXXXXoXXXXXXXXoOOXXXXooXXXXXoXXXoXX",
"OOOOOOOOOOOOOOOOXOOOOOOOOOOOOOOOOOOOOOOOOOOOOOOOOOOOOOOOOOOOOOOO",
"ooooooooooOOoooooooooooooooooooOOOoo  ooooooooooooooooooOOo oooo",
"o    oooooOoooooooooooooooooooooOo o o  ooooooooooooo   Oo  o  o",
" o     oooOo         oo oo    ooO  o oooo oo   oooo oo  OoX oooo",
"oooo   oXoOXoooooooooooo    o ooOo  ooooooooooo    o o  OX  oooo",
"ooo ooooXoOXooooooooooooo      XOo ooooooo    oooooooo oOXo oooo",
"        XXOXoooo o  o o  ooooooXOo  X     ooooooooooo  oOX ooooo",
"o ooooo oXOoooX ooooooooooooooXXOooXooXooooo Xo  oooooX OXX oooo",
"oXXoXoXXXXOXX X    X    X  oXXXoOoXXo  XXXXXXXoXooX XX oOX  ooXX",
"XoXXXXXooOOXXXoXXXXXXXXXooXXXXoOOOXXXoXXooXXooXXXXXo  oOOoX  Xoo",
"OOOOOOOOOOOOOOXOOOOOOOOOOOOOOOOOOOOOOOOOOOOOOOOOOOOOOOOOOOOOOOOO",
"  OoooooooooooooooOOoooooooooooooo      O  oooooOOoooo  oooooo  ",
" oO   o           O         o oo    o   O      ooOooo     oo   o",
" oOo    o    oo   O   o    oo     ooo   O o  ooooOo  oooo   oooX",
"o Oo    o ooXo    O  ooo  ooo oo o  o   Oo  oooooOoo o ooooXoooX",
"o OoXoo oooXoooXooOooooo   oooo  oooooo O oooXoXoO.XooXXXXoXoooX",
"o.OoXXoo oooXoXoooOooooo.  ooo.  oo.oXooOooXXo.XXO.XXo..ooX.oXX.",
"X.O.ooo.ooo.XXXXXXOoXXoo.Xoooo..oooX.oXoOXX.X.XXXO.XX.ooXoX.XXXX",
"..O..oX..ooX.X..XXOXXXXX.XXXoX..oX.X..oXOX..X.X.XO..X.oXXX..X.XX",
"X.O.XXo.XXoX.X..XX.X.X.X....OX.XXX.X...X......X..OX.XXX..XX.X..X",
"XX..X....X.X.X..XX.X.X.X....OX..X.XXXX.X...X.....OX.XXX..X..XX.X",
"XXO..X.XX..X.....X...X.X....OX..XXXX...X...XXXX...X.XX......X..X",
"................................................................"
};
