/* XPM */
static char *brick_1[] = {
/* columns rows colors chars-per-pixel */
"64 64 5 1 ",
"  c #EE5874",
". c #58FC58",
"X c #A15882",
"o c #FC5882",
"O c #8000FF",
/* pixels */
"XXXOOXoooooooooooooooooooooXOOooooooooooooooooOXoXXXXXooo  oooXX",
" oXXOoooo ooooooooo    ooooXOooooooooo      oXOXooooooooooo  ooo",
" oXXOooo o      oooooo ooooXOo o      oooooooXOXoooo     ooooooo",
" ooXOXoo          ooooooooooOX   o         oooOoo ooo  o     o  ",
" ooXOXoo oooooooo     oooooXOo oo          ooXOooo    o     ooo ",
" ooXOXoo ooo  oooooooooooooXOX  oo    ooooo  XOXXooooo  oo oo  o",
"o oXOoXXo   o           oooXOXoo         ooo oOXooo       oooooo",
"o oXOXoooXXooooooooooooooooXOXXoo   ooooooo ooXooooooooooooo  oo",
"o oXOOXoXooXXXoooooooooooooXOXXXo           oXOoXooooXXXooooXooX",
"XXoXOOXXXXXoooXXooXXXoooooXOOoXoXoooooooooXXXXOOXXoooooXXXoXXoXo",
"OOOOOOOOXOXXXOOOOOOOOOOOOOOOOOOOOXOOOOOOOOOOOOOOOOOOOOOOOXOOOOOO",
"oooo oooooooOOXXooooooooOOooooo    ooXXoOOOoXooooooooooooooooooo",
"oo   oooooooOoXXoooo  oXOoo    ooooooooXOooXo                 oo",
"oo o     oooOXoo    ooooOooo oooooo  ooXOooooooooooooooooo     o",
"o o       oXOXoooo  ooooOo  ooo     oooXOooooooooo ooo   ooooooo",
"oo  oooooooXOXoo     oooOooo oooooo   ooOXo        Xoo      oooo",
"oooo    oooXOXo      ooXOXo        ooooXOXo o  ooooooooooooo oo ",
"Xooooooo ooXOXoo      XXOXo o         oXOXo          ooXoooo   o",
"XoooooooooXXOXooooooooXoOXo      oooooooOoXooooXXoooo XXXooooooo",
"ooXXXoXXXXXOOoXooooooXoOOXXoXXooooooXXXoOOXXXXoXXXXoooXoXXXXXoXo",
"OOOOOOOOOOOOOOOOOOOOOOOOOOOOOOOOOOOOOOOOOOOOOOOOOOOOOOOOOOOOOOOO",
"oooXoXXOoXooooooooooooooooooOOooooooooooooooooooOOoooooooooooooo",
"o ooooXOXooooo    oooooooooXoOooo             oooOoooooooooo  oo",
"o  oooXOXoo           oo  oXXOo   oooooooooooooooOo  oo      o o",
"ooo  oXOXooo  ooooo      ooXoXoo ooooooooo    o oOoo     ooo   o",
"  o  ooOXooooXoooo    o  ooooOo        oXo o    oOoo   o oooo   ",
"o  oooXOoooXXXoooo ooo  ooooXOoo   ooo   oXoo  ooOoooo  oXXooo  ",
"  o  ooOXXoXXooooo      ooooXOXoo     ooooooooo oOXoo  oooo   o ",
"o    ooOXoXoXXXXXXoooo   oooXOXooo   ooo     oooXOXXo      ooo o",
"ooXoooXOoXooooooooooooooooooXOXX        ooooooooXOOXooXooooooooo",
"XXXXXoXOOXXXXoXXXXXXooooooXXXOOoXooooooXXXooXXXXoOOoXXooXXXXXXXo",
"OOOOOOOOOOOOOOOOOOOOOOOOOOOOOOOOOOOOOOOOOOOOOOOOOOOOOOOOOOOOOOOO",
"ooooooooooooooooOoooooooooooooooooooOooooooooooooooooOOooooooooo",
"o  oooooo  oooooOoo oo      ooooooooOoo         ooooooOooo      ",
"ooo       ooo  oOooo         ooo oooOXXo       ooo oooOoo  ooooo",
"o  ooooooooo oooOooooooo    ooo ooooOXo     oo    oooXOXoo    oo",
"ooo   o    oooooOoXoooooooooooooooXXOXo    oooooooooXoOooo     o",
"oooo   oooooooXXOooooooooooXoooooooXOoXooo       XoXXXOXXoo   oo",
"ooooooooooooooooOooo    oooooooXXXXoOXXXoooooooooooooXOXXoo     ",
"XoooooXXXXXooooXOXoo ooooXooooooooXXOXXoXooXXXo ooooooXoXooooooo",
"oXXXXXoooXXooXXXOXXXXXXXXoXooXXXXXooOXXXXooXooXo   XoXOOXXXXXXXo",
"OOOOOOOOXOOOOOOOOOOOOOOOOOOOOOOOOOOOOOOOOOOOOOOOOOOOOOOOOOOOOOOO",
"oooOOooooooooooooooooooOoooooooooooooooooooOOooooo ooooooooooooo",
"oooOOoooooo          ooOoooooooooooooooooooO  ooo ooooo      ooo",
"ooooOooooooooooooooooooOoooo        oooo ooO oo                 ",
"ooooOo            ooooXOXooo     o    oo ooOoX   oooo      ooooo",
"ooooOo oooooooooooooooXOoXooooooo oooo    oOoXX   ooooooo ooo oo",
"oooXOXoo      ooooooooXOoXooo    ooooooooooOXXX     oooooo     o",
"oooXOXoooooooooooooooXoOXXoooooo       ooooOXXXooo oooXXXXXoooXX",
"XoXXOXXoooXXoooooooXXXXOXXXooooooooooooooooOXXXX    oXooXoXXXXoX",
"ooXXOXXXXoXoXXXooooXooOOXXoXXXXXoXXoooooooOOXXoXXXXXXooXoooXXXXX",
"OOOOOOOOOOOOOOOOOOOOOOOOOOOOXOOOOOOOOOOOOOOOOOOOOOOOOOOOOOOOOOOO",
"ooooooooooOooooooooooooooooOOooooo         oooooOOoooo  oooooooo",
"      ooooOooo              O oo               ooOooo          o",
"oooo   oooOoooo            oO     ooo        ooooOoo oooo   oooX",
"Xooo    ooOoXo        oo  ooO           oo  oooooOoo   ooooXoooX",
"XoooXoooooOXoooXoooooooo   oOoo  oooooo   oooXoXoO.XooXXXXoXoooX",
"X.XoXXooooOoXoXooooooooo.  oOo.  oo.oXoooooXXo.XXO.XXo..ooX.oXX.",
"X.X.ooo.ooO.XXXXXXooXXoo.XooOo..oooX.oXooXX.X.XXXO.XX.ooXoX.XXXX",
"..o..oX..oOX.X..XXoXXXXX.XXXOX..oX.X..oX.X..X.X.XO..X.oXXX..X.XX",
"X.X.XXo.XXOX.X..XX.X.X.X....OX.XXX.X...X......X..OX.XXX..XX.X..X",
"XX..X....o.X.X..XX.X.X.X....OX..X.XoXX.X...X.....OX.XXX..X..XX.X",
"XoX..X.Xo..X.....X...X.X....OX..XXXX...X...XXXX...X.XX......X..X",
"................................................................"
};
