/* XPM */
static char *brick_door[] = {
/* columns rows colors chars-per-pixel */
"64 64 20 1 ",
"  c #414141",
". c #5A5A5A",
"X c gray50",
"o c #EE5874",
"O c #7BAE6C",
"+ c #7BD65E",
"@ c #58FC58",
"# c #6AEA5D",
"$ c #69D662",
"% c #7ED662",
"& c #61C27F",
"* c #5CE06A",
"= c #A0AE65",
"- c #A6AE6C",
"; c #A15882",
": c #FC5882",
"> c #8000FF",
", c #6B83A8",
"< c #7FCEF4",
"1 c #B5EBFB",
/* pixels */
"-oooo::>>>::::oo:::::::::::::::::>:::::::::::::::>,---%o=::-%%--",
"--::::::>::ooo::::::ooooo:+o:::::>::o:::oooo::ooo>>:--==:%-=o%::",
"o=::::o:>:::::oo:::::::ooo==oooo:>::oo:o::::::::::>::::::-%oo==:",
"o=:oo:::>::::::::o:::oo:::--:::::>::ooo:::::o:oo::>:ooo::-::o=o:",
"ooo:::::>:::::oo:::::::::o#==::::>::ooo:::::oo::::>:;::::--::oo:",
"oooo::::>::oooooooo::::::---=oo::>:::o::::::::::::>;:::::%:o:ooo",
":oooo:::>;;:oooo::::::::o=+o=::::>;::ooooo::::::::>;::::o%=o:::o",
"ooo;::;;>:::::::ooo=====o%#--:::;>:::::oooooooo:;;>;::oooo%:::::",
":;;;::;;>>;:::::::::----%-%%%---;>;:::::::::::::;:>:;;ooo;ooo;::",
":;;;;;OO&&                                             ;;;;:::;:",
">>>>>>>>,, ........................................... >>>>>>>>>",
":::::::::: .XXXXXXXXXXXXXXXXXXXXXXXXXXXXXXXXXXXXXXXXX. ::>>>::::",
":::::::::: .X.......................................X. ooo>ooo::",
"oooooooo:: .X.......................................X. ooo>oooo:",
"::ooooo::: .X..XXXXXXXXXXXXXXXXX.XXXXXXXXXXXXXXXXX..X. oo:>:ooo:",
"oooooo:::: .X..X<<<<<<<<<111111X.X<<<<<<<<<<1<<<<X..X. :::>:;oo:",
"oo:::::o:: .X..X<<<<<<11111111<X.X<<<<<<<<11<<<<<X..X. ooo>o;o::",
";oooooooo: .X..X<<<<11<111111<<X.X<<<<<<11<<<<<<<X..X. o;o>;o:::",
";;:::;:::; .X..X<<<111111111<<<X.X<<<<<11<<<<<<11X..X. :;:>:;;::",
":;;;;;;;;; .X..X<<111111111<<<<X.X<<<<11<<<<<<111X..X. :;>>:;;;;",
">>>>>>>>>> .X..X11<<111111<<<<1X.X<<11<<<<<<<11<1X..X. >>>>>>>>>",
":::::::::: .X..X<<<11111<<<<<11X.X<<1<<<<<<111<1<X..X. ;;;>>>:oo",
":oo::::::: .X..X<<1<111<<<<1111X.X11<<<<<<111<11<X..X. ::;:>::;o",
"o::o:::ooo .X..X<<111<<<<<11111X.X<<<<<<<111<1<<<X..X. oo;;>;;::",
":::::::::: .X..X<<11<<<<<11111<X.X<<<<<111<<11<<<X..X. :oo;>:;:o",
":::::::::: .X..X<11<<<<1111111<X.X<<<<1111<11<<<<X..X. ::;;>:o::",
"o:o::::::: .X..X1<<<<<<11111<<1X.X<<<111<<1<<<<<<X..X. ::o;>;o::",
"oooooooo:: .X..X<<<<<111111<<1<X.X<<111<<1<<<<<<1X..X. o::;>:;o:",
":::::ooooo .X..X<<<1111111<<1<<X.X<111<11<<<<<111X..X. :::o>:;oo",
";oo:::::;; .X..X<<<111111<<1<<<X.X11<11<<<<<<<111X..X. oo;;>:ooo",
":;;;:;:;-$ .X..X<1111111<<11<<1X.X11<1<<<<<<11111X..X. :;:>>>:;;",
">>>>>>>>>> .X..X1111111<<1<<<11X.X1<1<<<<<<111111X..X. >>>>>>>>>",
"::>>>::::: .X..X111<1<<<1<<<111X.X11<<<<<<111111<X..X. #%-::::::",
"o::>:::ooo .X..X1111<<<1<<<   1X.X1   <<111111<1<X..X. +=o=o::::",
"oo:>:ooooo .X..X111<111<<<1   1X.X<   <11111111<<X..X. :::%oooo:",
"o;o>;o:::: .X..X1111<<<<<11   1X.X<   111111111<<X..X. o:--:::::",
":;:>:;:ooo .X..X11<<<<<<<11   <X.X<   1111111<<<<X..X. ::%::::::",
":o:>o;ooo: .X..X11<<<<<1111   <X.X<   111<111<<<<X..X. ::%-:::::",
":;:>o;o::: .X..X<<<<<<<1111   <X.X1   111111<<<<1X..X. o::-;oooo",
";;:>:;;:;; .X..X<<<<<<11111   <X.X1   1<111<<<111X..X. ;;;o;;:::",
";:;>,:;;;; .X..X<<<<<11111<   1X.X1   <111<<<<111X..X. ;;:;;;:;;",
">>>>,>,,&* .X..X<<<<11111<<   1X.X1   11<<<<<1111X..X. >>>>>>>>>",
":::::%--:: .X..X<<<11111<<<   1X.X1   11<<<<11111X..X. :>>:o::::",
":oooo::::: .X..X<<11111<<<<   1X.X<   1<<<<111111X..X. o>:oo:oo:",
"o:ooooo::: .X..X1111111<<<<1111X.X<11<<<<<1111111X..X. o>:;o::::",
"::::ooo:;: .X..X11111<<<<111111X.X11<<<<<11111111X..X. o>;oo::::",
":::o::::;: .X..X11111<<<1111111X.X1<<<<<<11111111X..X. :>;:o::::",
"oooooooo;; .X..X1111<<<<1111111X.X<<<<<<111111111X..X. :>;o:::::",
":o:::::o:; .X..X11<<<<111111111X.X<<<<<1111111111X..X. o>;;o::::",
":;;:;:;;;; .X..X11<<<<111111111X.X<<<<11111111111X..X. :>;oo::;;",
";:;;;;;::> .X..X<<<<11111111111X.X<<<111111111111X..X. >>:;oo;::",
">>>>>>>>>> .X..X<<<111111111111X.X<<<111111111111X..X. >>>>>>>>>",
"oo>::::::: .X..X<<<111111111111X.X<11111111111111X..X. o::::::oo",
"o:>ooo:ooo .X..X<<1111111111111X.X<11111111111111X..X. ooo::ooo:",
"o:>:oooo:o .X..X<11111111111111X.X111111111111111X..X. ::ooo:::;",
":o>:oooo:o .X..X111111111111111X.X111111111111111X..X. ::::;:::;",
":o>:;::o:: .X..X111111111111111X.X111111111111111X..X. ;;;:;:::;",
":@>:;;::o: .X..X111111111111111X.X111111111111111X..X. @::;@:;;@",
";@>@:::@:: .X..X111111111111111X.X111111111111111X..X. :;:;@;;;;",
"@@>@@:;@@: .X..X111111111111111X.X111111111111111X..X. ;;;@@;@;;",
";@>@;;:@;; .X..X111111111111111X.X111111111111111X..X. @@;;@;@@;",
";;@@;@@@@; .X..X111111111111111X.X111111111111111X..X. @@;@@;;@;",
";;>@@;@;;@ .X..XXXXXXXXXXXXXXXXX.XXXXXXXXXXXXXXXXX..X. @@@@@;@@;",
"@@@@@@@@@@ .X.......................................X. @@@@@@@@@"
};
