/* XPM */
static char *cat[] = {
/* columns rows colors chars-per-pixel */
"64 64 13 1 ",
"  c #5A5A5A",
". c #676767",
"X c #804D4D",
"o c #D25757",
"O c #D27057",
"+ c #57D257",
"@ c #D2B457",
"# c #B4D257",
"$ c #9557D2",
"% c #D257D2",
"& c #57D2B4",
"* c #57B4D2",
"= c gray85",
/* pixels */
"%%$$$$****&&&&++++####@@@@OOOOooooOOOO@@@@####++++&&&&****$$$$%%",
"%%$$$$****&&&&++++####@@@@OOOOooooOOOO@@@@####++++&&&&****$$$$%%",
"%%$$$$****&&&&++++####@@@@OOOOooooOOOO@@@@####++++&&&&****$$$$%%",
"%%$$$$****&&&&++++####@@@@OOOOooooOOOO@@@@####++++&&&&****$$$$%%",
"%%$$$$****&&&&++++####@@@@OOOOooooOOOO@@@@####++++&&&&****$$$$%%",
"%%$$$$****&&&&++++####@@@@OOOOooooOOOO@@@@####++++&&&&****$$$$%%",
"%%$$$$****&&&&++++####@@@@OOOOooooOOOO@@@@####++++&&&&****$$$$%%",
"%%$$$$****&&&&++++####@@@@OOOOooooOOOO@@@@####++++&&&&****$$$$%%",
"%%$$$$****&&...+++####@@@@OOOOooooOOOO@@@@####+++...&&****$$$$%%",
"%%$$$$****&.....++####@@@@OOOOooooOOOO@@@@####++.....&****$$$$%%",
"%%$$$$****&......+####@@@@OOOOooooOOOO@@@@####+......&****$$$$%%",
"%%$$$$****.......+####@@@@OOOOooooOOOO@@@@####+.......****$$$$%%",
"%%$$$$****........####@@@@OOOOooooOOOO@@@@####........****$$$$%%",
"%%$$$$***..........###@@@@OOOOooooOOOO@@@@###..........***$$$$%%",
"%%$$$$***...........##@@@@OOOOooooOOOO@@@@##...........***$$$$%%",
"%%$$$$***........ ..##@@@@OOOOooooOOOO@@@@##.... ......***$$$$%%",
"%%$$$$***.... ... ...#@@@@OOOOooooOOOO@@@@#..  . . ....***$$$$%%",
"%%$$$$***.... .  . ..                      ..      ....***$$$$%%",
"%%$$$$***.... .     .                      .    . .. ..***$$$$%%",
"%%$$$$***... .                             .       . ..***$$$$%%",
"%%$$$$***... .                                       ..***$$$$%%",
"%%$$$$***..                                          ..***$$$$%%",
"%%$$$$***..                                          ..***$$$$%%",
"%%$$$$****..                                         ..***$$$$%%",
"%%$$$$****..                                         .****$$$$%%",
"%%$$$$****&                                         ..****$$$$%%",
"%%$$$$****                                           &****$$$$%%",
"%%$$$$****                                            ****$$$$%%",
"%%$$$$****                                            ****$$$$%%",
"%%$$$$****                                            ****$$$$%%",
"%%$$$$****                                            ****$$$$%%",
"%%$$$$****                                            ****$$$$%%",
"%%$$$$****                                            ****$$$$%%",
"%%$$$$****                                            ****$$$$%%",
"%%$$$$****                                            ****$$$$%%",
"%%$$$$****                                            ****$$$$%%",
"%%$$$$****                   XXXXXX                   ****$$$$%%",
"%%$$$$****         =========XXXXXXXX=========         ****$$$$%%",
"%%$$$$****       ============XXXXXX============       ****$$$$%%",
"%%$$$$****       =============XXXX=============       ****$$$$%%",
"%%$$$$****       ==============================       ****$$$$%%",
"%%$$$$****       ==============================      &****$$$$%%",
"%%$$$$****       ==============================      &****$$$$%%",
"%%$$$$****       ==============================      &****$$$$%%",
"%%$$$$****&&     ==============================    &&&****$$$$%%",
"%%$$$$****&&       =========================       &&&****$$$$%%",
"%%$$$$****&&&&+        ==================        +&&&&****$$$$%%",
"%%$$$$****&&&&+                                  +&&&&****$$$$%%",
"%%$$$$****&&&&++++                            ++++&&&&****$$$$%%",
"%%$$$$****&&&&++++####@@@@OOOOooooOOOO@@@@####++++&&&&****$$$$%%",
"%%$$$$****&&&&++++####@@@@OOOOooooOOOO@@@@####++++&&&&****$$$$%%",
"%%$$$$****&&&&++++####@@@@OOOOooooOOOO@@@@####++++&&&&****$$$$%%",
"%%$$$$****&&&&++++####@@@@OOOOooooOOOO@@@@####++++&&&&****$$$$%%",
"%%$$$$****&&&&++++####@@@@OOOOooooOOOO@@@@####++++&&&&****$$$$%%",
"%%$$$$****&&&&++++####@@@@OOOOooooOOOO@@@@####++++&&&&****$$$$%%",
"%%$$$$****&&&&++++####@@@@OOOOooooOOOO@@@@####++++&&&&****$$$$%%",
"%%$$$$****&&&&++++####@@@@OOOOooooOOOO@@@@####++++&&&&****$$$$%%",
"%%$$$$****&&&&++++####@@@@OOOOooooOOOO@@@@####++++&&&&****$$$$%%",
"%%$$$$****&&&&++++####@@@@OOOOooooOOOO@@@@####++++&&&&****$$$$%%",
"%%$$$$****&&&&++++####@@@@OOOOooooOOOO@@@@####++++&&&&****$$$$%%",
"%%$$$$****&&&&++++####@@@@OOOOooooOOOO@@@@####++++&&&&****$$$$%%",
"%%$$$$****&&&&++++####@@@@OOOOooooOOOO@@@@####++++&&&&****$$$$%%",
"%%$$$$****&&&&++++####@@@@OOOOooooOOOO@@@@####++++&&&&****$$$$%%",
"%%$$$$****&&&&++++####@@@@OOOOooooOOOO@@@@####++++&&&&****$$$$%%"
};
