/* XPM */
static char *cat_tree_empty[] = {
/* columns rows colors chars-per-pixel */
"64 64 10 1 ",
"  c black",
". c #5B3600",
"X c #462A1B",
"o c #834F00",
"O c #AD6B00",
"+ c #F39800",
"@ c #CDC651",
"# c #DFD989",
"$ c #FACC89",
"% c #EBE7B2",
/* pixels */
"@@@@%%@@@@@@@@%%@@@@@@@@@@@@@@@@@@@@@@@@@@@@@@@@%%@@@@@@@@%%@@@@",
"@@@@%%@@@@@@@@%%@@@@@@@@@@@@@@@@@@@@@@@@@@@@@@@@%%@@@@@@@@%%@@@@",
"@@@@%%@@@@@@@@%%@@@@@@@@@@@@@@@@@@@@@@@@@@@@@@@@%%@@@@@@@@%%@@@@",
"@@@@%%@@@@@@@@%%@@@@@@@@@@@@@@@@@@@@@@@@@@@@@@@@%%@@@@@@@@%%@@@@",
"@@@@%%@@@@@@@@%%@@@@@@@@@@@@@@@@@@@@@@@@@@@@@@@@%%@@@@@@@@%%@@@@",
"@@@@%%@@@@@@@@%%@@@@@@@@@@@@@@@@@@@@@@@@@@@@@@@@%%@@@@@@@@%%@@@@",
"@@@@%%@@@@@@@@%%@@@@@@@######@@@@@@######@@@@@@@%%@@@@@@@@%%@@@@",
"@@@@%%@@@@@@@@%%@@@@@@@######@@@@@@######@@@@@@@%%@@@@@@@@%%@@@@",
"@@@@%%@@@##@@@%%@@@@@##@@@@@@##@@##@@@@@@##@@@@@%%@@@##@@@%%@@@@",
"@@@@%%@@@##@@@%%@@@@@##@@@@@@##@@##@@@@@@##@@@@@%%@@@##@@@%%@@@@",
"@@@@%%@@@@@@@@%%@@@@@##@@@@@@@@##@@@@@@@@##@@@@@%%@@@@@@@@%%@@@@",
"@@@@%%@@@@@@@@%%@@@@@##@@@@@@@@##@@@@@@@@##@@@@@%%@@@@@@@@%%@@@@",
"@@@@%%@@@@@@@@%%@@@@@##@@@@@@@@@@@@@@@@@@##@@@@@%%@@@@@@@@%%@@@@",
"@@@@%%@@@@@@@@%%@@@@@##@@@@@@@@@@@@@@@@@@##@@@@@%%@@@@@@@@%%@@@@",
"@@@@%%@@@@@@@@%%@@@@@@@##@@@@@@@@@@@@@@##@@@@@@@%%@@@@@@@@%%@@@@",
"@@@@%%@@@@@@@@%%@@@@@@@##@@@+++++++++++++++++++++++++++++@%%@@@@",
"@@@@%%@@@@@@@@%%@@@@@@@@@##@+$$$$$$$$$$$$$$$$$$$$$$$$$$$+@%%@@@@",
"@@@@%%@@@@@@@@%%@@@@@@@@@##@+$$$$$$$$$$$$$$$$$$$$$$$$$$$+@%%@@@@",
"@@@@%%@@@##@@@%%@@@@@@@@@@@#+$$$$$$$$$$$$$$$$$$$$$$$$$$$+@%%@@@@",
"@@@@%%@@@##@@@%%@@@@@@@@@@@#+$$$$$$$$$$$$$$$$$$$$$$$$$$$+@%%@@@@",
"@@@@%%@@@@@@@@%%@@@@@@@@@@@@+$$$$$$$$$$$$$$$$$$$$$$$$$$$+@%%@@@@",
"@@@@%%@@@@@@@@%%@@@@@@@@@@@@+++++++++++++++++++++++++++++@%%@@@@",
"@@@@%%@@@@@@@@%%@@@@@@@@@@@@@@@##@@@@@@@oOOOOOo@%%@@@@@@@@%%@@@@",
"@@@@%%@@@@@@@@%%@@@@@@@@@@@@@@@##@@@@@@@oOOOOOo@%%@@@@@@@@%%@@@@",
"@@@@%%@@@@@@@@%%@@@@@@@@@@@@@@@@@@@@@@@@oOOOOOo@%%@@@@@@@@%%@@@@",
"@@@@%%@@@@@@@@%%@@@@@@@@@@@@@@@@@@@@@@@@oOOOOOo@%%@@@@@@@@%%@@@@",
"@@@@%%@@@@@@@@%%@@@@@@@@@@@@@@@@@@@@@@@@oOOOOOo@%%@@@@@@@@%%@@@@",
"@@@@%%@@@@@@@@%%@@@@@@%%@@@@@@@@@@@@@@@%oOOOOOo@%%@@@@@@@@%%@@@@",
"@@@@%%@@@@@@@@%%@@@@+++++++++++++++++++++++++Oo@%%@@@@@@@@%%@@@@",
"@@@@%%@@@@@@@@%%@@@@+$$$$$$$$$$$$$$$$$$$$$$$+Oo@%%@@@@@@@@%%@@@@",
"@@@@%%@@@##@@@%%@@@@+$$$$$$$$$$$$$$$$$$$$$$$+Oo@%%@@@##@@@%%@@@@",
"@@@@%%@@@##@@@%%@@@@+$$$$$$$$$$$$$$$$$$$$$$$+Oo@%%@@@##@@@%%@@@@",
"@@@@%%@@@@@@@@%%@@@@++$$$$$$$$$$$$$$$$$$$$$+OOo@%%@@@@@@@@%%@@@@",
"@@@@%%@@@@@@@@%%@@@@@@+++++++++++++++++++++OOOo@%%@@@@@@@@%%@@@@",
"@@@@%%@@@@@@@@%%@@@@@@@@@@@@@%oOOOOOo@@@oOOOOOo@%%@@@@@@@@%%@@@@",
"@@@@%%@@@@@@@@%%@@@@@@@@@@@@@@oOOOOOo@@@oOOOOOo@%%@@@@@@@@%%@@@@",
"@@@@%%@@@@@@@@%%@@@@@@@@@@@@@@oOOOOOo@@@oOOOOOo@%%@@@@@@@@%%@@@@",
"@@@@%%@@@@@@@@%%@@@@@@@@@@@@@@oOOOOOo@@@oOOOOOo@%%@@@@@@@@%%@@@@",
"@@@@%%@@@@@@@@%%@@@@@@@@@@@@@@oOOOOOo@@@oOOOOOo@%%@@@@@@@@%%@@@@",
"@@@@%%@@@@@@@@%%@@@@@@@@@@@@@@oOOOOOo@@@oOOOOOo@%%@@@@@@@@%%@@@@",
"@@@@%%@@@@@@@@%%@@@@@@@@@@@@@@oOOOOOo@@@oOOOOOo@%%@@@@@@@@%%@@@@",
"@@@@%%@@@##@@@%%@@@@@@@@@@@@@@oOOOOOo@@@oOOOOOo@%%@@@##@@@%%@@@@",
"@@@@%%@@@##@@@%%@@@@@@@@@@@@@@oOOO++++++++++++++++++@##@@@%%@@@@",
"@@@@%%@@@@@@@@%%@@@@@@@######@oOOO+$$$$$$$$$$$$$$$$+@@@@@@%%@@@@",
"@@@@%%@@@@@@@@%%@@@@@@@######@oOOO+$$$$$$$$$$$$$$$$+@@@@@@%%@@@@",
"@@@@%%@@@@@@@@%%@@@@@##@@@@@@#oOOO+$$$$$$$$$$$$$$$$+@@@@@@%%@@@@",
"@@@@%%@@@@@@@@%%@@@@@##@@@@@@#oOOO+$$$$$$$$$$$$$$$$+@@@@@@%%@@@@",
"@@@@%%@@@@@@@@%%@@@@@##@@@@@@@oOOO+$$$$$$$$$$$$$$$$+@@@@@@%%@@@@",
"@@@@%%@@@@@@@@%%@@@@@##@@@@@@@oOOO+$$$$$$$$$$$$$$$$+@@@@@@%%@@@@",
"@@@@%%@@@@@@@@%%@@@@@##@@@@@@@oOOO+$$$$$$$$$$$$$$$$+@@@@@@%%@@@@",
"@@@@%%@@@@@@@@%%@@@@@##@@@@@@@oOOO+$$$$$$$$$$$$$$$$+@@@@@@%%@@@@",
"@@@@%%@@@@@@@@%%@@@@@@@##@@@@@oOOO+$$$$$$$$$$$$$$$$+@@@@@@%%@@@@",
"@@@@%%@@@@@@@@%%@@@@@@@##@@@@@oOOO+$$$$$$$$$$$$$$$$+@##@@@%%@@@@",
"@@@@%%@@@##@@@%%@@@@@@@@@##@@@oOOO+$$$$$$$$$$$$$$$$+@##@@@%%@@@@",
"@@@@%%@@@##@@@%%@@@@@@@@@##@@@oOOO+$$$$X......X$$$$+@@@@@@%%@@@@",
"@@@@%%@@@@@@@@%%@@@@@@@@@@@##@oOOO+$$$$XXX...XX$$$$+@@@@@@%%@@@@",
"@@@@%%@@@@@@@@%%@@@@@@@@@@@##@oOOO+$$$.XXXXXXXX.$$$+@@@@@@%%@@@@",
"@@@@%%@@@@@@@@%%@@@@@@@@@@@@@#oOOO+$$$.XXXXXXXX.$$$+@@@@@@%%@@@@",
"@@@@%%@@@@@@@@%%@@@@@@@@@@@@@#oOOO+$$$.X  XX  X.$$$+@@@@@@%%@@@@",
"@@@@%%@@@@@@@@%%@@@@@@@@@@@@@@oOOO+$$$.X  XX  X.$$$+@@@@@@%%@@@@",
"@@@@%%@@@@@@@@%%@@@@@@@@@@@@@@oOOO+$$$.XXXXXXXX.$$$+@@@@@@%%@@@@",
"@@@@%%@@@@@@@@%%@@@@@@@@@@@@@@oOOO+$$$.XXXXXXXX.$$$+@@@@@@%%@@@@",
"@@@@%%@@@@@@@@%%@@@@@@@@@@@@@@oOOO+$$$.XXXXXXXXX$$$+@@@@@@%%@@@@",
"@@@@%%@@@@@@@@%%@@@@@@@@@@@@@@oOOO+$$$XXXXXXXXXX$$$+@@@@@@%%@@@@"
};
