/* XPM */
static char *cat_door[] = {
/* columns rows colors chars-per-pixel */
"64 64 9 1 ",
"  c #5B3600",
". c #834F00",
"X c #AD6B00",
"o c #F19149",
"O c #CCC54E",
"+ c #CDC651",
"@ c #F6B380",
"# c #DFD989",
"$ c #EBE7B2",
/* pixels */
"$+++$+$+++++$+$+++++++++++++++++++++++++++++++++$+$+++++$+$++++$",
"$+++$+$+++++$+$+++++++++++++++++++++++++++++++++$+$+++++$+$++++$",
"$+++$+$+++++$+$+++++++++++++++++++++++++++++++++$+$+++++$+$++++$",
"$+++$+$+++++$+$+++++++++++++++++++++++++++++++++$+$+++++$+$++++$",
"$+++$+$+++++$+$++++###+++###+++++++###+++###++++$+$+++++$+$++++$",
"$+++$+$+++++$+$+++#+++#+#+++#+++++#+++#+#+++#+++$+$+++++$+$++++$",
"$+++$+$+++++$+$+++#++++#++++#+++++#++++#++++#+++$+$+++++$+$++++$",
"$+++$+$+++++$+$+++#+++++++++#+++++#+++++++++#+++$+$+++++$+$++++$",
"$+++$+$+#+#+$+$+++O#+++++++#O+++++O#+++++++#O+++$+$+#+#+$+$++++$",
"$+++$+$+#+#+$+$+++++#+++++#+++++++++#+++++#+++++$+$+#+#+$+$++++$",
"$+++$+$+++++$+$++++++#+++#+++++++++++#+++#++++++$+$+++++$+$++++$",
"$+++$+$+++++$+$+++++++#+#+++++++++++++#+#+++++++$+$+++++$+$++++$",
"$+++$+$+++++$+$++++++++                 O+++++++$+$+++++$+$++++$",
"$+++$+$+++++$+$+++++++  .... ....... ..  +++++++$+$+++++$+$++++$",
"$+++$+$+++++$+$++++++  ..... ..X.... ...  ++++++$+$+++++$+$++++$",
"$+++$+$+++++$+$+++++  ...... .X.XX.. ....  +++++$+$+++++$+$++++$",
"$+++$+$+++++$+$++++   ...... .X..... ..XX.  ++++$+$+++++$+$++++$",
"$+++$+$+++++$+$+++  . ..XX.. .X..... ...X..  +++$+$+++++$+$++++$",
"$+++$+$+#+#+$+$++  .. ..XX.. .X.X... .X.X..   ++$+$+#+#+$+$++++$",
"$+++$+$+#+#+$+$+  ... .X.X.. .XX.X.. .X.XX. .  +$+$+#+#+$+$++++$",
"$+++$+$+++++$+$  .... .X.XX. .XX.XX. .X..X. ..  $+$+++++$+$++++$",
"$+++$+$+++++$+$ ..... .X.XX. .XX..X. .X..X. ...  +$+++++$+$++++$",
"$+++$+$+++++$+  ...X. .X.XX. .XX..X. .X..X. .... +$+++++$+$++++$",
"$+++$+$+++++$+ ....X. .X.XX. .XX..X. .X..X. .... +$+++++$+$++++$",
"$+++$+$+++++$+ ....X. .X.XX. ..X..X. .X..X. X... +$+++++$+$++++$",
"$+++$+$+++++$+ ....X. .X.XX. ..X.X.. .X..X. X... +$+++++$+$++++$",
"$+++$+$+++++$+ .X..X. .X.XX. ..X.X.. .X.X.. X... +$+++++$+$++++$",
"$+++$+$+++++$+ .X..X. .X.XX. .X..X.. .X.X.. X... +$+++++$+$++++$",
"$+++$+$+++++$+ .X..X. .X.XX. .X..X.. .X.X.. X... +$+++++$+$++++$",
"$+++$+$+++++$+ .X.XX. .X.XX. .X..X.. .X.X.. X... +$+++++$+$++++$",
"$+++$+$+#+#+$+ .X.XX. .X.XX. .X..... .X.X.. X... +$+#+#+$+$++++$",
"$+++$+$+#+#+$+ .X.XX. .X.X.. .X..... .X.X.. X.X. +$+#+#+$+$++++$",
"$+++$+$+++++$+ ...XX. .X.X.. .X..... .X.XX. XXX. +$+++++$+$++++$",
"$+++$+$+++++$+ ...... ..XX.. .X.X... .X.XX. X.X. +$+++++$+$++++$",
"$+++$+$+++++$+ ...... ..XX.. .X.XX..  X.XX. ..X. +$+++++$+$++++$",
"$+++$+$+++++$+ ...... ..XX.. .X.XX... X.XX. .... +$+++++$+$++++$",
"$+++$+$+++++$+ ...... ...X.. .X.XX... .X... X... +$+++++$+$++++$",
"$+++$+$+++++$+ ..XX.. ...X.. .X.X.X.. .XX..@@@.. +$+++++$+$++++$",
"$+++$+$+++++$+ ..XX.. ...X.. .X.X.X.. .X..@@@@@. +$+++++$+$++++$",
"$+++$+$+++++$+ ..XX.. ...X.. .X.X.X.. .X.@@@@@@@ +$+++++$+$++++$",
"$+++$+$+++++$+ ..XX.. .X.XX. .X.X.X.. .X.@@@@@@@ +$+++++$+$++++$",
"$+++$+$+#+#+$+ ..XX.. .X.XX. .X.X.X.. ...o@@@@@o +$+#+#+$+$++++$",
"$+++$+$+#+#+$+ ..XX.. .X.X.. .X.X.X.. .X.oo@@@oo +$+#+#+$+$++++$",
"$+++$+$+++++$+ ..X... .X.X.. .X.X...  .X..ooooo  +$+++++$+$++++$",
"$+++$+$+++++$+ .XX... .X.X.. .X.X... ..X.. ooo . +$+++++$+$++++$",
"$+++$+$+++++$+ .X.X.. .X.X.. .X.X... ..X...    . +$+++++$+$++++$",
"$+++$+$+++++$+ .X.X.. .X.X.. .X.X... ..X... .... +$+++++$+$++++$",
"$+++$+$+++++$+ .X.... .X.X.. .X.X.X. ..XXX  .X.. +$+++++$+$++++$",
"$+++$+$+++++$+ .X.X.. .X.X.. .X.X.X. .XXX. ..X.. +$+++++$+$++++$",
"$+++$+$+++++$+ .X.XX. .X.X.. .X.X.X. .X.X. ..X.. +$+++++$+$++++$",
"$+++$+$+++++$+ .X.XX. .X.X.. .X.X.X. .X.X. ..X.X +$+++++$+$++++$",
"$+++$+$+++++$+ .X.... .X.X.. ..XX.X. ...X. .XX.X +$+++++$+$++++$",
"$+++$+$+++++$+ .X.... .X.X.. ..XX.X. ...X. .XXX. +$+++++$+$++++$",
"$+++$+$+#+#+$+ .X...  ...X.. ..XX.X. ...X. .X.X. +$+#+#+$+$++++$",
"$+++$+$+#+#+$+ .X.X.  ...X.. ..XX.X. ...X. .X.X. +$+#+#+$+$++++$",
"$+++$+$+++++$+ .X.X.. ...X.. ..XX.X. ..XX. .X.X. +$+++++$+$++++$",
"$+++$+$+++++$+ .X.X.. ...X.. ..XX..X ..XX. .X.X. +$+++++$+$++++$",
"$+++$+$+++++$+ .X.X.. ...... ...X..X ..XX. .X.X. +$+++++$+$++++$",
"$+++$+$+++++$+ .X.X.. ...... .....X. ..XX. .X.X. +$+++++$+$++++$",
"$+++$+$+++++$+ .X.X.. .X..... ....X. ..XX. .X.X. +$+++++$+$++++$",
"$+++$+$+++++$+ ..XX.. .X..... .X..X. ..XX. .X.X. +$+++++$+$++++$",
"$+++$+$+++++$+ ...... ..X..X. ..X.X. ...X. ..X.. +$+++++$+$++++$",
"$+++$+$+++++$+  ..... ..XXX.. ...X.. ..X.. ....  +$+++++$+$++++$",
"$+++$+$+++++$+                                   +$+++++$+$++++$"
};
