/* XPM */
static char *cat_shelf[] = {
/* columns rows colors chars-per-pixel */
"64 64 16 1 ",
"  c black",
". c gray10",
"X c gray15",
"o c #4D1F00",
"O c #571F00",
"+ c #6F2E00",
"@ c #7F2E00",
"# c #496A00",
"$ c #EB6101",
"% c #648C0D",
"& c #8FC41F",
"* c #FFF100",
"= c #F19149",
"- c #CDC651",
"; c #DFD989",
": c #EBE7B2",
/* pixels */
"----::--------::--------------------------------::--------::----",
"----::--------::--------------------------------::--------::----",
"----::--------::--------------------------------::--------::----",
"----::--------::--------------------------------::--------::----",
"----::-##%%%--::--------------------------------::--------::----",
"----::--##%&--::%%&-----------------------------::--------::----",
"----::----#%&-:%&%%&---;;  ;;---  -;;;;;;-------::--------::----",
"----::----#%%#&%%#%%%--; .. ;-- .. ;;;;;;-------::--------::----",
"----::--%%;#&#%%#-#%%;;- .. -;; .. ------;;-----::---;;---::----",
"----::%%%%;#%#%#---#%;;- ...   ... ------;;-----::---;;---::----",
"----:%#%&%%#%%#:----#;;- ......... ------;;-----::--------::----",
"----:#-#%&%#%%::-----;;- .**...**. ------;;-----::--------::----",
"----::-##%&##%::-----;;- .**...**. --           ::--------::----",
"----::---#%-%%::-----;;- .........    XXXXXXXXX    -------::----",
"----::---##-##::-------;  ......   XXXXXXXXXXXX...    ----::----",
"----::-$$$$$$$$$$$-----;X         XXXXXXXXXXX    .. XX   -::----",
"----::-$=========$---   XXXXXXXXXXXXXXXXXXXX ...... XXXXX  :----",
"----::-$=========$-  ....XXXXXXXXXXXXXXXXXX  ......   XXXXX ----",
"----::-$=========$  .....XXXXX .. XXXXXXXXX ........ ;  XXXX ---",
"----::-$=========$......  XXXX .. XXXXXXXXXX ....... ;;- XXX ---",
"+++++++$=========$..    + XXX .... XXXXXX   .......  +++ XXX +++",
"@@@@@@@$=========$   @@@@ XXX  ... XXXXX  .......  @@@@@ XXX @@@",
"@@@@@@@$$$$$$$$$$$@@@@@@@@        @       .....   @@@@@@XXX  @@@",
"@@@@@@@@@@@@@@@@@@@@@@@@@@@@@@@@@@@@@@@@@       @@@@@@@ XX  @@@@",
"OOOOOOOOOOOOOOOOOOOOOOOOOOOOOOOOOOOOOOOOOOOOOOOOOOOOO XXX OOOOOO",
"OOOOOOOOOOOOOOOOOOOOOOOOOOOOOOOOOOOOOOOOOOOOOOOOOOOOO XX OOOOOOO",
"OOOOOOOOOOOOOOOOOOOOOOOOOOOOOOOOOOOOOOOOOOOOOOOOOOOO XXX OOOOOOO",
"OOOOOOOOOOOOOOOOOOOOOOOOOOOOOOOOOOOOOOOOOOOOOOOOOOO XXX OOOOOOOO",
"OOOOOOOOOOOOOOOOOOOOOOOOOOOOOOOOOOOOOOOOOOOOOOOOOOO XX OOOOOOOOO",
"oooooooooooooooooooooooooooooooooooooooooooooooooo  X oooooooooo",
"----::---;;---::----::--::-----------::--::-----:: X ;;---::----",
"----::---;;---::------::-------::------::-------:: X ;;---::----",
"----::--------::------::-------::------::-------:: X -----::----",
"----::--------::-------------::--::-------------:: X -----::----",
"----::--------::-------------::--::-------------:: X -----::----",
"----::--------::---------------::---------------:: X -----::----",
"----::--------::---------------::---------------:: X -----::----",
"----::--------::--------------------------------::-  -----::----",
"----::--------::--------------------------------::--------::----",
"----::--------::--------------------------------::--------::----",
"----::--------::--------------------------------::--------::----",
"----::---;;---::--------------------------------::---;;---::----",
"----::---;;---::--------------------------------::---;;---::----",
"----::--------::-------;;;;;;------;;;;;;-------::--------::----",
"----::--------::-------;;;;;;------;;;;;;-------::--------::----",
"----::--------::-----;;------;;--;;------;;-----::--------::----",
"----::--------::-----;;------;;--;;------;;-----::--------::----",
"----::--------::-----;;--------;;--------;;-----::--------::----",
"----::--------::-----;;--------;;--------;;-----::--------::----",
"----::--------::-----;;------------------;;-----::--------::----",
"----::--------::-----;;------------------;;-----::--------::----",
"----::--------::-------;;--------------;;-------::--------::----",
"----::--------::-------;;--------------;;-------::---;;---::----",
"----::---;;---::---------;;----------;;---------::---;;---::----",
"----::---;;---::---------;;----------;;---------::--------::----",
"----::--------::-----------;;------;;-----------::--------::----",
"----::--------::-----------;;------;;-----------::--------::----",
"----::--------::-------------;;--;;-------------::--------::----",
"----::--------::-------------;;--;;-------------::--------::----",
"----::--------::---------------;;---------------::--------::----",
"----::--------::---------------;;---------------::--------::----",
"----::--------::--------------------------------::--------::----",
"----::--------::--------------------------------::--------::----",
"----::--------::--------------------------------::--------::----"
};
