/* XPM */
static char *cube[] = {
/* columns rows colors chars-per-pixel */
"64 64 38 1 ",
"  c #7A6464",
". c #7A6864",
"X c #647A64",
"o c #7A7464",
"O c #747A64",
"+ c #647A74",
"@ c #D25757",
"# c #D27057",
"$ c #57D257",
"% c #D2B457",
"& c #B4D257",
"* c #9557D2",
"= c #D257D2",
"- c #57D2B4",
"; c #57B4D2",
": c #BDA7A7",
"> c #BDABA7",
", c #A7BDA7",
"< c #BDB7A7",
"1 c #B7BDA7",
"2 c #DE8484",
"3 c #DE9684",
"4 c #E49B9B",
"5 c #E4AA9B",
"6 c #ECB8B8",
"7 c #84DE84",
"8 c #9BE49B",
"9 c #B8ECB8",
"0 c #DEC884",
"q c #C8DE84",
"w c #E4D29B",
"e c #D2E49B",
"r c #ECC2B8",
"t c #ECDFB8",
"y c #DFECB8",
"u c #84DEC8",
"i c #9BE4D2",
"p c #B8ECDF",
/* pixels */
"==****;;;;----$$$$&&&&%%%%####@@@@####%%%%&&&&$$$$----;;;;****==",
"==****;;;;----$$$$&&&&%%%%####@@@@####%%%%&&&&$$$$----;;;;****==",
"==****;;;;----$$$$&&&&%%%%####@@@@####%%%%&&&&$$$$----;;;;****==",
"==****;;;;----$$$$&&&&%%%%####@@@@####%%%%&&&&$$$$----;;;;****==",
"==****;;;;----$$$$&&&&%%%%####@@@@####%%%%&&&&$$$$----;;;;****==",
"==****;;;;----$$$$&&&&%%%%####@@@@####%%%%&&&&$$$$----;;;;****==",
"==****;;;;----$$$$&&&&%%%%####@@@@####%%%%&&&&$$$$----;;;;****==",
"==****;;;;----$$$$&&&&%%%%####@@@@####%%%%&&&&$$$$----;;;;****==",
"==****;;;;----$$$$&&&&%%%%####@@@@####%%%%&&&&$$$$----;;;;****==",
"==****;;;;----$$$$&&&&%%%%####242@####%%%%&&&&$$$$----;;;;****==",
"==****;;;;----$$$$&&&&%%%%##35666453##%%%%&&&&$$$$----;;;;****==",
"==****;;;;----$$$$&&&&%%%055rr6 66rr53%%%%&&&&$$$$----;;;;****==",
"==****;;;;----$$$$&&&&%0wtrrr. :  .rrrww0%&&&&$$$$----;;;;****==",
"==****;;;;----$$$$&&&&0ttt...>::::>..rtttwq&&&$$$$----;;;;****==",
"==****;;;;----$$$$&&qettoo>>>>::::>>>.oottyeq&$$$$----;;;;****==",
"==****;;;;----$$$$qeyyto<<>>>>::::>>>><<ooyyye7$$$----;;;;****==",
"==****;;;;----$788yyyOo<<<>>>>::::>>>><<<oOOyy9887----;;;;****==",
"==****;;;;----7999yOO1<<<<>>>>::::>>>><<<<11OO9999iu--;;;;****==",
"==****;;;;--ui99XXO111<<<<>>>>::::>>>><<<<1111XXX9ppu-;;;;****==",
"==****;;;;-upp9X,,1111<<<<>>>>::::>>>><<<<1111,,,X+pi-;;;;****==",
"==****;;;;-ip+X,,,1111<<<<>>>>::::>>>><<<<1111,,XX+pi-;;;;****==",
"==****;;;;-ip+,XX,1111<<<<>>>>::::>>>><<<<1111XX,,+pi-;;;;****==",
"==****;;;;-ip+,,XX1111<<<<>>>>::::>>>><<<<111OX,,,+pi-;;;;****==",
"==****;;;;-ip+,,,,OO11<<<<>>>>::::>>>><<<<OOO1,,,,+pi-;;;;****==",
"==****;;;;-ip+,,,,11OOo<<<>>>>::::>>>><<oo1111,,,,+pi-;;;;****==",
"==****;;;;-ip+,,,,1111<oo<>>>>::::>>>><o<<1111,,,,+pi-;;;;****==",
"==****;;;;-ip+,,,,1111<<oo>>>>::::>>>.o<<<1111,,,,+pi-;;;;****==",
"==****;;;;-ip+,,,,1111<<<<..>>::::>..><<<<1111,,,,+pi-;;;;****==",
"==****;;;;-ip+,,,,1111<<<<>>..::: .>>><<<<1111,,,,+pi-;;;;****==",
"==****;;;;-ip+,,,,1111<<<<>>>>   :>>>><<<<1111,,,,+pi-;;;;****==",
"==****;;;;-ip+,,,,1111<<<<>>>>: ::>>>><<<<1111,,,,+pi-;;;;****==",
"==****;;;;-ip+,,,,1111<<<<>>>>: ::>>>><<<<1111,,,,+pi-;;;;****==",
"==****;;;;-ip+,,,,1111<<<<>>>>: ::>>>><<<<1111,,,,+pi-;;;;****==",
"==****;;;;-ip+,,,,1111<<<<>>>>: ::>>>><<<<1111,,,,+pi-;;;;****==",
"==****;;;;-ip+,,,,1111<<<<>>>>: ::>>>><<<<1111,,,,+pi-;;;;****==",
"==****;;;;-ip+,,,,1111<<<<>>>>: ::>>>><<<<1111,,,,+pi-;;;;****==",
"==****;;;;-ip+,,,,1111<<<<>>>>: ::>>>><<<<1111,,,,+pi-;;;;****==",
"==****;;;;-ip+,,,,1111<<<<>>>>: ::>>>><<<<1111,,,,+pi-;;;;****==",
"==****;;;;-ip+,,,,1111<<<<>>>>: ::>>>><<<<1111,,,,+pi-;;;;****==",
"==****;;;;-ip+,,,,1111<<<<>>>>: ::>>>><<<<1111,,,,+pi-;;;;****==",
"==****;;;;-ip+,,,,1111<<<<>>>>: ::>>>><<<<1111,,,,+pi-;;;;****==",
"==****;;;;-ip+,,,,1111<<<<>>>>: ::>>>><<<<1111,,,,+pi-;;;;****==",
"==****;;;;-ip+,,,,1111<<<<>>>>: ::>>>><<<<1111,,,X+pi-;;;;****==",
"==****;;;;-ip+,,,,1111<<<<>>>>: ::>>>><<<<1111,,XXppu-;;;;****==",
"==****;;;;-ip+X,,,1111<<<<>>>>: ::>>>><<<<1111,XX9pu--;;;;****==",
"==****;;;;-upp9XX,1111<<<<>>>>: ::>>>><<<<111OX999u---;;;;****==",
"==****;;;;--ui999XO111<<<<>>>>: ::>>>><<<<1OOy9987----;;;;****==",
"==****;;;;----7899yOO1<<<<>>>>: ::>>>><<<<OOyy87$$----;;;;****==",
"==****;;;;----$$78yyyO<<<<>>>>: ::>>>><<ooyyyq$$$$----;;;;****==",
"==****;;;;----$$$$qeyyooo<>>>>: ::>>>>oottyeq&$$$$----;;;;****==",
"==****;;;;----$$$$&&qyttto.>>>: ::>>>.tttwq&&&$$$$----;;;;****==",
"==****;;;;----$$$$&&&qwwttr..>: ::>..rtw0%&&&&$$$$----;;;;****==",
"==****;;;;----$$$$&&&&%%0wrr..: : .rrr0%%%&&&&$$$$----;;;;****==",
"==****;;;;----$$$$&&&&%%%%3rrr   6rr53%%%%&&&&$$$$----;;;;****==",
"==****;;;;----$$$$&&&&%%%%#35r666653##%%%%&&&&$$$$----;;;;****==",
"==****;;;;----$$$$&&&&%%%%###34442####%%%%&&&&$$$$----;;;;****==",
"==****;;;;----$$$$&&&&%%%%####@@@@####%%%%&&&&$$$$----;;;;****==",
"==****;;;;----$$$$&&&&%%%%####@@@@####%%%%&&&&$$$$----;;;;****==",
"==****;;;;----$$$$&&&&%%%%####@@@@####%%%%&&&&$$$$----;;;;****==",
"==****;;;;----$$$$&&&&%%%%####@@@@####%%%%&&&&$$$$----;;;;****==",
"==****;;;;----$$$$&&&&%%%%####@@@@####%%%%&&&&$$$$----;;;;****==",
"==****;;;;----$$$$&&&&%%%%####@@@@####%%%%&&&&$$$$----;;;;****==",
"==****;;;;----$$$$&&&&%%%%####@@@@####%%%%&&&&$$$$----;;;;****==",
"==****;;;;----$$$$&&&&%%%%####@@@@####%%%%&&&&$$$$----;;;;****=="
};
