/* XPM */
static char *floor2[] = {
/* columns rows colors chars-per-pixel */
"64 64 3 1 ",
"  c #5B3600",
". c #7A4900",
"X c #9A5F00",
/* pixels */
"X.X.. .X.X...... ...XXX.... ..X.XXX..... ..XXXX.... XXXXX... XXX",
".XX.. .X.X...... ...XXX... ...X.XXX..... .XXXXX.... X.XXX... XXX",
".X... .X.X...... ...XXX.X. ...X.XXX..... .XXXXX.... X.XX.X.. XXX",
".X... .X.X...... ...XXX.X. ...X.XXX....  .XXXXX..X. X.XX.X.. XXX",
".X... .X.X...... ...XXX.X. ...X.XXXX... ...XXXX..X. X.XX.X.. XXX",
".X... .X.X...... ...XXX.X. ...X.XXXX... ...XXXX..X. X.XX.X.. XXX",
".X... ...XX..... ...XXX.X. ...X.XXXX... ...XXXX..X. X.XX.X.. X.X",
".X... ..XXX..... ...XXX.X. ...X.XX.X... .X.XXXX..X. X.XX.X.. X.X",
".X... ..XXX..... ...XXX.X. ...X.XX.X... .X.XXXX..X. X.XX.X.. X.X",
".X... ..XXX..... ...XXX.X. ...X.XX.X... .X.XXXX..X. X.XX.X.. X.X",
".X... ..XXX..... ...XXX.X. ...X.XX.X... .X.XXXX.X.. X.XX.X.. X.X",
"X.... ..XXX..... ...XXX.X. ...X.XX.X... .X.X.XX.X.. X.XX.X.. ..X",
"X.... ...XXX.... ...XXX.X. ...X.XX.X... .X.X.XX.X.. X.XX.X.. .XX",
"X.... ...XXX.... ...XXX.X. ...X.X..XX.. .X.X.XXX... X.XX.X.. .XX",
"X.... ...XXX.... ...XXX.X. ...X.X..XX.. .X.X.XXX... X.XX.X.. .XX",
"X.... ...XXX.... ...XXX.X. .........X.. .X.X.XXX... X.XX.X.. .XX",
"X.... ...XXX.... ...XXX.X.              .XXX.XXX... X.XX.X.. ..X",
"XX... ...XXX.... ...XXX.X. ............ .XXX.XXX... X.XX.X.. ..X",
"XX... ....X..... ...XXX.X. ...XXX.X.X.. .XXX.XXX... X.XX.X.. ..X",
"XX... ....X..... ...XX..X. ...XXX.X.X.. .XX..XX..X. X.XX.X.. ..X",
"X.... .X..XXX... ...XX.XX. ...XXX.X.X.. .XX.XXX.... X.XX.... ...",
"..... .X..XXX... ...XX.XX. ...XXX.X.X.. .XX.XXX..X. X.XX.... ...",
"      .XX.XXX... ...XX.XX. ...XXX.X.X.. .X..XXX..X. X.XX....    ",
"..... ..X.XXX... ...XX.XX. ...XXX.X.X.. .X..XXX..X. X.XX.... ...",
"X.... ..X.XXX... ...XX.XX. ...XXX.X.X.. .X..XXX..X. X.XX.... ..X",
"X.... ..X.XXX... ...XX.XX. ...XXX.X.X..  X..XXX..X. X.XX.... ..X",
"X.... ..XXXX.... ...XX.XX. ...XXX.X.X... X..XXX..X. X.XX.... X.X",
"X.... ...XXX.... .X.XX.XX. ...XXX.X.X... X..XXX..X. X.X..... X.X",
"X.X.. ...XXX.... .X.XX.XX. ...XXX.X.X... X..XXX.X.. X.X..... X.X",
"X.X.. ....XX.... .X.XX.XX. ..XXX..XXX... X..XXX.X.. .. ..  . X.X",
"X.... ....XX.... .X.XX.XX. ..XXX..XXX... X..XXX.X..      .   X.X",
"X.... .XX.XX.... .X.XX.XX. ..XXX..XXX... X..XXX.... ..X..X.. X.X",
"X.X.. .XX.XX.... .X.XX.XX. ..XXX..XXX... X.XXXX.... X.X..X.. X.X",
"X.X.. .XX.XX.... X........ ..XXX..XXX... X.XXXX.... X.X..X.. X.X",
"X.X.. .XX.XX....           ..XXX..XXX... X.XXXX.... X.X..X.. X.X",
"X.X.. .XX.XX.... ......... ...XXX.XXX... X.XX.X.... X.X..X.. X.X",
"X.X.. .XX.XX.... XX.XX..X. ...XXX.XXX... X.XX.X.... XX...X.. X.X",
"X.X.. .XX.XX.... XX.XX.XX. ...XXX.XXX... X.X..XX... XX...X.. X.X",
"X.X.. .XX.X..... XX.XX.XX. ...XXX.XXX... X.X..XX... XXX..X.. X.X",
"X.X.. .XX.X..... XX.XX.XX. ...XXX.XXX... X.X..XX... XXX..X.. X.X",
"X.XX. .XXXX..... XX.XX.XX. ...XXX.XXX... ..XX..X... XXXX.X.. X.X",
"X.XX. .X.XX..... XX..X.XX.. ..XXX.XXX... ..X...X... XXXX.... X.X",
"X.XX. .X.XX..... XX..X.XX.. ..X.X.XXX... .X..X.X... XXXX.... X.X",
"X.XX. XX.XX..... XX..X.XX.. ..X.X.XXX... .X..X.X... XXXX..X. X.X",
"X.XX. XX.XX.XX.. XX..X.XX.. ..XX..XXX... ....X.X... XXXX..X. X.X",
"X.XX. XXXXX.XX.. XX..X.XX.. ..XX..XXX... .......... ..XX..X. X.X",
"X.XX. XXXXX.XX.. XX..X.XX.. ..XX..XXX...            ..XX..X. X.X",
"X.X.. XXX...XX.. X...X.XX.. ...X.XXXX...  ......... .X.X..X. XX.",
"X.X.. XXX...XX.. X.X.X.XX.. .....X.XX... .X.XX.X... .X.X..X. XX.",
"X.X.. XXX...XX.. X.X.X.XX.. .....X.XX... ..X.X.X... .X.X..X. XX.",
"X.X.. XXX.X.X... X.X.X.XX.. ....XX.XX... ..XXX.X... .X.X..X. XX.",
"X.X.. X.X.X.X... X.X.X.XX.. ....XX.XX... ..XXX.X... .X.XX.X. X.X",
"X.X.. X.X.X.X... XX.XX.XX.. ....XX.XXX.. ..XXX..... .X.XXX.. X.X",
"X.X.. .......... XX.XX.XXX. ....XX.XXX.. ..XXX..... .X.XXX.. ..X",
"X.X..            XX.XX.XXX. ...XXX.XXX.. ..XXX..... .X.XXX.. ..X",
"X.X.. .......... XX.XX.XXX. ...XXX.XXX.. ...XX..... .X.XXX.. ..X",
"X.X.. X.X.X.X... XX..X..... ...XXX.XXX.. ...XX..... .X.XXX.. ..X",
"X.XX. X.X.X.X... XXX..X.... ...XXX.XXX.. ...XXX.... .X.XX... ..X",
"X.XX. X.X.X.X... XXXXXX.... ...XXX...... ....XX.... .X.XX... ..X",
"X.XX. X.X.X.X... XXXXXX.... ...XXX...... ....XXX... .XX..... ..X",
"X.XX. XXX..XX... .......... ...XXX...... ....XXX... .XX..... ..X",
"XX.X. .XXX.XX... .......... ...XXX...... ....XXXX.. .XX..... .XX",
"XX... .XXX...... .......... ...XXX...... ..XXXXXX.. XXXX.... ..X",
"XX... .XXX....... ......... ...XXX...... ..XXXXXX.. XXXXX... XXX"
};
