/* XPM */
static char *floor1[] = {
/* columns rows colors chars-per-pixel */
"64 64 4 1 ",
"  c black",
". c gray19",
"X c #565656",
"o c gray35",
/* pixels */
" ..        .  .         .....      .....         .  .        .. ",
".XX........o..X.........XXXXX......XXXXX.........X..X........XX.",
" ..        .  .         .....      .....         .  .        .. ",
" ..        .  .         .....      .....         .  .        .. ",
" ..        .  .         .....      .....         .  .        .. ",
" ..        .  .         .....      .....         .  .        .. ",
" ..        .  .         .....      .....         .  .        .. ",
" ..        .  .         .....      .....         .  .        .. ",
".XX........o..X.........XXXXX......XXXXX.........X..X........XX.",
" ..        .  .         .....      .....         .  .        .. ",
" ..        .  .         .....      .....         .  .        .. ",
".oo........o..o.........ooooo......ooooo.........o..o........oo.",
" ..        .  .         .....      .....         .  .        .. ",
" ..        .  .         .....      .....         .  .        .. ",
" ..        .  .         .....      .....         .  .        .. ",
" ..        .  .         .....      .....         .  .        .. ",
" ..        .  .         .....      .....         .  .        .. ",
" ..        .  .         .....      .....         .  .        .. ",
" ..        .  .         .....      .....         .  .        .. ",
" ..        .  .         .....      .....         .  .        .. ",
" ..        .  .         .....      .....         .  .        .. ",
" ..        .  .         .....      .....         .  .        .. ",
" ..        .  .         .....      .....         .  .        .. ",
".XX........o..X.........XXXXX......XXXXX.........X..X........XX.",
".XX........o..X.........XXXXX......XXXXX.........X..X........XX.",
".XX........o..X.........XXXXX......XXXXX.........X..X........XX.",
".XX........o..X.........XXXXX......XXXXX.........X..X........XX.",
".XX........o..X.........XXXXX......XXXXX.........X..X........XX.",
" ..        .  .         .....      .....         .  .        .. ",
" ..        .  .         .....      .....         .  .        .. ",
" ..        .  .         .....      .....         .  .        .. ",
" ..        .  .         .....      .....         .  .        .. ",
" ..        .  .         .....      .....         .  .        .. ",
" ..        .  .         .....      .....         .  .        .. ",
" ..        .  .         .....      .....         .  .        .. ",
" ..        .  .         .....      .....         .  .        .. ",
".XX........o..X.........XXXXX......XXXXX.........X..X........XX.",
".XX........o..X.........XXXXX......XXXXX.........X..X........XX.",
".XX........o..X.........XXXXX......XXXXX.........X..X........XX.",
".XX........o..X.........XXXXX......XXXXX.........X..X........XX.",
".XX........o..X.........XXXXX......XXXXX.........X..X........XX.",
" ..        .  .         .....      .....         .  .        .. ",
" ..        .  .         .....      .....         .  .        .. ",
" ..        .  .         .....      .....         .  .        .. ",
" ..        .  .         .....      .....         .  .        .. ",
" ..        .  .         .....      .....         .  .        .. ",
" ..        .  .         .....      .....         .  .        .. ",
" ..        .  .         .....      .....         .  .        .. ",
" ..        .  .         .....      .....         .  .        .. ",
" ..        .  .         .....      .....         .  .        .. ",
" ..        .  .         .....      .....         .  .        .. ",
" ..        .  .         .....      .....         .  .        .. ",
".XX........o..X.........XXXXX......XXXXX.........X..X........XX.",
" ..        .  .         .....      .....         .  .        .. ",
" ..        .  .         .....      .....         .  .        .. ",
".XX........o..X.........XXXXX......XXXXX.........X..X........XX.",
" ..        .  .         .....      .....         .  .        .. ",
" ..        .  .         .....      .....         .  .        .. ",
" ..        .  .         .....      .....         .  .        .. ",
" ..        .  .         .....      .....         .  .        .. ",
" ..        .  .         .....      .....         .  .        .. ",
" ..        .  .         .....      .....         .  .        .. ",
".XX........o..X.........XXXXX......XXXXX.........X..X........XX.",
" ..        .  .         .....      .....         .  .        .. "
};
