/* XPM */
static char *grass[] = {
/* columns rows colors chars-per-pixel */
"64 64 5 1 ",
"  c #59D55C",
". c #59F65C",
"X c #58FC58",
"o c #FFF100",
"O c #B6FFB6",
/* pixels */
"XXXXXXXXXXXXXXXXXXXXXXXXXX....XXXXXXXXXXX......XXXXX.........XXX",
"XXXXXXXXXXXXXXXXXXXXXXXX....XXXXXXXXX........XXXXX........XXXXXX",
"XXXXXXXXXXXXXXXXXXXXX......XXXXXXXX.......XXXXXXXX.......XXXXXXX",
"XXXXXXXXXXXXXXXXXXXX.....XXXXXXXX.....XXXXXXXXXX.........XXXXXXX",
"XXXXXXXXXXXXXX..........XXXXXXXXX...XXXXXXXXXXXX......XXXXXXXXXX",
"XXXX....................XXXXXXXXXXXXX..........XX...XXXXXXXXXXXX",
"XXXX....................XXXXXXXXXXXXX..........XXXXXXXXXXXXXXXXX",
"XXXX....................XXX........... ........XXXXXXXXXXXXXXXX.",
"XXXX.......XXX..........XXX........... ........XXXXXXXXXXXXXX...",
"XXXX.......XXX..........XXX............  ......XXXXXXXXXXXXX....",
"XXXX....................XXX.............  .....XXXXXXXXXX......X",
"XXXX.  ........................................XXXXXXXXXX....XXX",
"XXXX.  .....XX.................................XXXX..XXXX..XXXXX",
"XXXX......XXXX.......    .X....................XXXX..XXXXXXXXXXX",
"XXXX......XXX.............X....................XXXX...XXXXXXXXXX",
"XXXXX....XXX..............X................XXXXXX.. .......XXX..",
"XXXX...XXXX...............X................XXXXXX.. .......XXX..",
"XXX...XXXX................XXXXXXX..........XXXXXX..  ......X....",
"XX...XXXXX... ............XXXXXXX..........XXXXXX... ...........",
"X...XXXXX.... ............XXXXXXX.................... ..........",
"...XXXXXX.... ..........XXXXXXXX..............................XX",
"..XXXXXXX.... .......XXXXXXXXXXX..............................X.",
"XXXXXXX......   ...XXXXXX.XXXXXX...........    .................",
"XXXXXXX....   .....XXXXXXXXXXXXX................................",
"..XXXXXX    .........XXXXXXXXXXX...............................X",
"..XXXXXX  .......XX..XXXX..XXXXX............................XXXX",
".XXXXXXX.........XX..XXXX..XXXXX.........................XXXXXXX",
"XXXXXX..........XXX..XXX ..XXXXX.........................XXXXXXX",
"XXXXXX...XX.....XX.....X...XXXXX.........................XXXXXXX",
"XXXXX...XXX................X.............................XXXXXXX",
"XXXXX..XXXXXXX...XX...................XXX................XXXXXXX",
"XXXXXXXXXX......XXX..... .............XXX.......XX......  XXXXXX",
"XXXXXXXXX......XXX......  ............XX.......XXX.....  ..XXXXX",
"XXXXXXXX...XXXXXXX.......  ...........XX.......XX...... ...XXXXX",
"XXXXXXXXXXXXXXXX.................XX...X... ...............XXXXXX",
"XXXXXXXXXXXX...................XXXX......   ...............XXXX.",
"XX...XXXXX...................XXXXX....... ....XXX..........XXX..",
"XX...X..XX..................XXXX........  .....XX...............",
"XX...X..XX..................XX...........XXXX..XX...............",
"XXX..X...X.OOO................................................XX",
"XXX..X ..X.OOOO....  .......................................XXXX",
"XX ..X ...OOooOO...........................................XXXXX",
"XX ...  ..OOooOO..........XX...............................XXXXX",
"XX ....X...OOOOX........ XXX...............................XXXXX",
"XX   ..X..XOOOO......... XX.......................... .....XXXXX",
"XXXX ....XXX......................  ...............     XXXXXXXX",
"XXXX  ...XX... .......... .........  ..... ....... XXXXXXXXXXXXX",
"XXXX  ........  ........ ........... .... ......  .....XXXXXXXXX",
"XXXX  ..........      XX ..XXXX...... ... .............XXXXXXXXX",
"XXX..XXX.............XX ...XXXX...... ...  ......... ...XXXXXXXX",
"....................... .................. ......... ....XXXXXXX",
"....................... .............................  ..XXXXXXX",
".X..................... .......XXXXXX................. ..XX...XX",
"XX..................... .............................  ..X....XX",
"XX......... ........... ..............  ....................XXXX",
"XX........     ........ ..............  .    ...............XXXX",
"XX...........    ...... ...................    ........... XXXXX",
"XX...................... ....................    ...XX..  XXXXXX",
"XX.....XX................     .................. ...XXXXXXXXXXXX",
"XXXXXXXXX...........................................XXXXXXXXXXXX",
"XXXXXXXX..............XXXXXXXX......................XXXXXXXXXXXX",
"XXXX...................XXXXXXX..........XXXXXX..XXXXXXXXXXXXXXXX",
"XX..................X..XXXXXXX..........XXXXXXXXXXXXXXXXXXXXXXXX",
"XX.....................XXXXXXXXX.......XXXXXXXXXXXXXXXXXXXXXXXXX"
};
