/* XPM */
static char *gre_wp[] = {
/* columns rows colors chars-per-pixel */
"64 64 3 1 ",
"  c #CDC651",
". c #DFD989",
"X c #EBE7B2",
/* pixels */
"    XX        XX                                XX        XX    ",
"    XX        XX                                XX        XX    ",
"    XX        XX                                XX        XX    ",
"    XX        XX                                XX        XX    ",
"    XX        XX                                XX        XX    ",
"    XX        XX                                XX        XX    ",
"    XX        XX       ......      ......       XX        XX    ",
"    XX        XX       ......      ......       XX        XX    ",
"    XX   ..   XX     ..      ..  ..      ..     XX   ..   XX    ",
"    XX   ..   XX     ..      ..  ..      ..     XX   ..   XX    ",
"    XX        XX     ..        ..        ..     XX        XX    ",
"    XX        XX     ..        ..        ..     XX        XX    ",
"    XX        XX     ..                  ..     XX        XX    ",
"    XX        XX     ..                  ..     XX        XX    ",
"    XX        XX       ..              ..       XX        XX    ",
"    XX        XX       ..              ..       XX        XX    ",
"    XX        XX         ..          ..         XX        XX    ",
"    XX        XX         ..          ..         XX        XX    ",
"    XX   ..   XX           ..      ..           XX   ..   XX    ",
"    XX   ..   XX           ..      ..           XX   ..   XX    ",
"    XX        XX             ..  ..             XX        XX    ",
"    XX        XX             ..  ..             XX        XX    ",
"    XX        XX               ..               XX        XX    ",
"    XX        XX               ..               XX        XX    ",
"    XX        XX                                XX        XX    ",
"    XX        XX                                XX        XX    ",
"    XX        XX                                XX        XX    ",
"    XX        XX      XX               XX       XX        XX    ",
"    XX        XX      XX               XX       XX        XX    ",
"    XX        XX    XX  XX           XX  XX     XX        XX    ",
"    XX   ..   XX    XX  XX           XX  XX     XX   ..   XX    ",
"    XX   ..   XX      XX       XX      XX       XX   ..   XX    ",
"    XX        XX      XX       XX      XX       XX        XX    ",
"    XX        XX             XX  XX             XX        XX    ",
"    XX        XX             XX  XX             XX        XX    ",
"    XX        XX               XX               XX        XX    ",
"    XX        XX               XX               XX        XX    ",
"    XX        XX                                XX        XX    ",
"    XX        XX                                XX        XX    ",
"    XX        XX                                XX        XX    ",
"    XX        XX                                XX        XX    ",
"    XX   ..   XX                                XX   ..   XX    ",
"    XX   ..   XX                                XX   ..   XX    ",
"    XX        XX       ......      ......       XX        XX    ",
"    XX        XX       ......      ......       XX        XX    ",
"    XX        XX     ..      ..  ..      ..     XX        XX    ",
"    XX        XX     ..      ..  ..      ..     XX        XX    ",
"    XX        XX     ..        ..        ..     XX        XX    ",
"    XX        XX     ..        ..        ..     XX        XX    ",
"    XX        XX     ..                  ..     XX        XX    ",
"    XX        XX     ..                  ..     XX        XX    ",
"    XX        XX       ..              ..       XX        XX    ",
"    XX        XX       ..              ..       XX   ..   XX    ",
"    XX   ..   XX         ..          ..         XX   ..   XX    ",
"    XX   ..   XX         ..          ..         XX        XX    ",
"    XX        XX           ..      ..           XX        XX    ",
"    XX        XX           ..      ..           XX        XX    ",
"    XX        XX             ..  ..             XX        XX    ",
"    XX        XX             ..  ..             XX        XX    ",
"    XX        XX               ..               XX        XX    ",
"    XX        XX               ..               XX        XX    ",
"    XX        XX                                XX        XX    ",
"    XX        XX                                XX        XX    ",
"    XX        XX                                XX        XX    "
};
