/* XPM */
static char *grey_cat[] = {
/* columns rows colors chars-per-pixel */
"64 64 9 1 ",
"  c #56002D",
". c gray30",
"X c gray45",
"o c #CCC54E",
"O c #CDC651",
"+ c #9A9A9A",
"@ c #DFD989",
"# c #EBE7B2",
"$ c gray85",
/* pixels */
"#OOO#O#OOOOO#O#OOOOOOOOOOOOOOOOOOOOOOOOOOOOOOOOO#O#OOOOO#O#OOOO#",
"#OOO#O#OOOOO#O#OOOOOOOOOOOOOOOOOOOOOOOOOOOOOOOOO#O#OOOOO#O#OOOO#",
"#OOO#O#OOOOO#O#OOOOOOOOOOOOOOOOOOOOOOOOOOOOOOOOO#O#OOOOO#O#OOOO#",
"#OOO#O#OOOOO#O#OOOOOOOOOOOOOOOOOOOOOOOOOOOOOOOOO#O#OOOOO#O#OOOO#",
"#OOO#O#OOOOO#O#OOOO@@@OOO@@@OOOOOOO@@@OOO@@@OOOO#O#OOOOO#O#OOOO#",
"#OOO#O#OOOOO#O#OOO@OOO@O@OOO@OOOOO@OOO@O@OOO@OOO#O#OOOOO#O#OOOO#",
"#OOO#O#OOOOO#O#OOO@OOOO@OOOO@OOOOO@OOOO@OOOO@OOO#O#OOOOO#O#OOOO#",
"#OOO#O#OOOOO#O#OOO@OOOOOOOOO@OOOOO@OOOOOOOOO@OOO#O#OOOOO#O#OOOO#",
"#OOO#O#O@O@O#O#OOOo@OOOOOOO@oOOOOOo@OOOOOOO@oOOO#O#O@O@O#O#OOOO#",
"#OOO#O#O@O@O#O#OOOOO@OOOOO@OOOOOOOOO@OOOOO@OOOOO#O#O@O@O#O#OOOO#",
"#OOO#O#OOOOO#O#OOOOOO@OOO@OOOOOOOOOOO@OOO@OOOOOO#O#OOOOO#O#OOOO#",
"#OOO#O#OOOOO#O#OOOOOOO@O@OOOOOOOOOOOOO@O@OOOOOOO#O#OOOOO#O#OOOO#",
"#OOO#O#OOOOO#O#OOOOOOOO@oOOOOOOOOOOOOOO@oOOOOOOO#O#OOOOO#O#OOOO#",
"#OOO#O#OOOOO#O#OOOOOOOOOOOOOOOOOOOOOOOOOOOOOOOOO#O#OOOOO#O#OOOO#",
"#OOO#O#OOOOO#O#OOOOOOOOOOOOOOOOOOOOOOOOOOOOOOOOO#O#OOOOO#O#OOOO#",
"#OOO#O#OOOOO#O#OOOOOOOOOOOOOOOOOOOOOOOOOOOOOOOOO#O#OOOOO#O#OOOO#",
"#OOO#O#OOOOO#O#OOOOOOOOOOOOOOOOOOOOOOOOOOOOOOOOO#O#OOOOO#O#OOOO#",
"#OOO#O#OOOOO#O#OOOOOOOOOOOO@@@OOO@@@OOOOOOOOOOOO#O#OOOOO#O#OOOO#",
"#OOO#O#O@O@O#O#OOOOOOOOOOO@OOO@O@OOO@OOOOOOOOOOO#O#O@O@O#O#OOOO#",
"#OOO#O#O@O@O#O#OOOOOOOOOOO@OOOO@OOOO@OOOOOOOOOOO#O#O@O@O#O#OOOO#",
"#OOO#O#OOOOO#O#OOOOOOOOOOO@OOOOOOOOO@OOOOOOOOOOO#O#OOOOO#O#OOOO#",
"#OOO#O#OOOOO#O#OOOOOOOOOOOo@OOOOOOO@oOOOOOOOOOOO#O#OOOOO#O#OOOO#",
"#OOO#O#OOOOO#O#OOOOOOOOOOOOO@OOOOO@OOOOOOOOOOOOO#O#OOOOO#O#OOOO#",
"#OOO#O#OOOOO#O#OOOOOOOOOOOOOO@OOO@OOOOOOOOOOOOOO#O#OOOOO#O#OOOO#",
"#OOO#O#OOOOO#O#OOOOOOOOOOOOOOO@O@OOOOOOOOOOOOOOO#O#OOOOO#O#OOOO#",
"#OOO#O#OOOOO#O#OOOOO#OOOOOOOOOO@oOOOOOOOOO#OOOOO#O#OOOOO#O#OOOO#",
"#OOO#O#OOOOO#O#OOOO#O#OOOOOOOOOOOOOOOOOOO#O#OOOO#O#OOOOO#O#OOOO#",
"#OOO#O#OOOOO#O#OOOOO#OOOOOOOOOOOOOOOOOOOOO#OOOOO#O#OOOOO#O#OOOO#",
"#OOO#O#OOOOO#O#OOOOOOOOOOOOO#OOOOO#OOOOOOOOOOOOO#O#OOOOO#O#OOOO#",
"#OOO#O#OOOOO#O#OOOOOOOOOOOO#O#OOO#O#OOOOOOOOOOOO#O#OOOOO#O#OOOO#",
"#OOO#O#O@O@O#O#OOOOOOO#OOOOO#OOOOO#OOOOO#OOOOOOO#O#O@O@O#O#OOOO#",
"#OOO#O#O@O@O#O#OOOOOO#O#OOOOOOOOOOOOOOO#O#OOOOOO#O#O@O@O#O#OOOO#",
"#OOO#O#OOOOO#O#OOOOOOO#OOOOOOOOOOOOOOOOO#OOOOOOO#O#OOOOO#O#OOOO#",
"#OOO#O#OOOOO#O#OOOOOOOOOOOOOOOO#..OOOOOOOO...OOO#O#OOOOO#O#OOOO#",
"#OOO#O#OOOOO#O#OOOOOOOOOO#OOOO#O.+.OO#OOOO.+.OOO#O#OOOOO#O#OOOO#",
"#OOO#O#OOOOO#O#OOOOOOOOO#O#OOOO#.X+.#O#OO.+X.OOO#O#OOOOO#O#OOOO#",
"#OOO#O#OOOOO#O#OOOOOOOOOO#OOOOOO.XX+.....+XX.OOO#O#OOOOO#O#OOOO#",
"#OOO#O#OOOOO#O#OOOOOOOOOOOOOOOOO.+++++++++X+.OOO#O#OOOOO#O#OOOO#",
"#OOO#O#OOOOO#O#OOOOOOOOOOOOOOOO#.+++++++++++.OOO#O#OO..O#O#OOOO#",
"#OOO#O#OOOOO#O#OOOOOOOOOOOOOOO#O.++..+++..++.OOO#O#OO.XO#O#OOOO#",
"#OOO#O#OOOOO#O#OOOOOOOOOOOOOOOO#.++..+++..++.OOO#O#..X.O#O#OOOO#",
"#OOO#O#O@O@O#O#OOOO@@@OOO@@@OOOO.++++$ $++++.OOO#O#.X.@O#O#OOOO#",
"#OOO#O#O@O@O#O#OOO@OOO@O@OOO@OOOO.+$$$$$$$+.@OOO#O...O@O#O#OOOO#",
"#OOO#O#OOOOO#O#OOO@OOOO@OOOO@OOOOO.+$$$$$+.O@OOO#..X.OOO#O#OOOO#",
"#OOO#O#OOOOO#O#OOO@OOOOOOOOO@OOOOO.........O@OOO#.X.OOOO#O#OOOO#",
"#OOO#O#OOOOO#O#OOOo@OOOOOOO@oOOOOOo.+++++.O@oOOO#.X.OOOO#O#OOOO#",
"#OOO#O#OOOOO#O#OOOOO@OOOOO@OOOOOOO.+++++++.OOOOO#.X.OOOO#O#OOOO#",
"#OOO#O#OOOOO#O#OOOOOO@OOO@OOOOOOOO.+++++++.OOOOO#.XOOOOO#O#OOOO#",
"#OOO#O#OOOOO#O#OOOOOOO@O@OOOOOOOO.X++++++++.OOOO#X.OOOOO#O#OOOO#",
"#OOO#O#OOOOO#O#OOOOOOOO@oOOOOOOOO.X+++++++++.OOO...OOOOO#O#OOOO#",
"#OOO#O#OOOOO#O#OOOOOOOOOOOOOOOOOO.XX+++++++XX.O.X.#OOOOO#O#OOOO#",
"#OOO#O#OOOOO#O#OOOOOOOOOOOOOOOOOO.XXX+++++XXX.O.X.#OOOOO#O#OOOO#",
"#OOO#O#OOOOO#O#OOOOOOOOOOOOOOOOOO.+++++++XXXX..X.O#OOOOO#O#OOOO#",
"#OOO#O#O@O@O#O#OOOOOOOOOOOOOOOOO.++++++++++++..X.O#O@O@O#O#OOOO#",
"#OOO#O#O@O@O#O#OOOOOOOOOOOO@@@OO.++++++++++++...#O#O@O@O#O#OOOO#",
"#OOO#O#OOOOO#O#OOOOOOOOOOO@OOO@O.X++++++++++++..#O#OOOOO#O#OOOO#",
"#OOO#O#OOOOO#O#OOOOOOOOOOO@OOOO@.XXXX++++++++X.O#O#OOOOO#O#OOOO#",
"#OOO#O#OOOOO#O#OOOOOOOOOOO@OOOOO.XXXXX++++++XX.O#O#OOOOO#O#OOOO#",
"#OOO#O#OOOOO#O#OOOOOOOOOOOo@OOOO.+++++++++XXXX.O#O#OOOOO#O#OOOO#",
"#OOO#O#OOOOO#O#OOOOOOOOOOOOO@OOO.+++++++XXXXXX.O#O#OOOOO#O#OOOO#",
"#OOO#O#OOOOO#O#OOOOOOOOOOOOOO@OO.++++++++++++X.O#O#OOOOO#O#OOOO#",
"#OOO#O#OOOOO#O#OOOOOOOOOOOOOOO@O.X++++++++++++.O#O#OOOOO#O#OOOO#",
"#OOO#O#OOOOO#O#OOOOOOOOOOOOOOOO@.XXXXX++++++++.O#O#OOOOO#O#OOOO#",
"#OOO#O#OOOOO#O#OOOOOOOOOOOOOOOOO.XXX++++++++++.O#O#OOOOO#O#OOOO#"
};
