/* XPM */
static char *hive_h[] = {
/* columns rows colors chars-per-pixel */
"64 64 2 1 ",
"  c #BFEEFF",
". c #FEFEFE",
/* pixels */
"                                                                ",
"                                                                ",
"                                                                ",
"                                                                ",
"                                                                ",
"                        ................                        ",
"                    .........................                   ",
"                   ...........................                  ",
"                ................................                ",
"               ..................................               ",
"              ....................................              ",
"             ......................................             ",
"            ........................................            ",
"           ..........................................           ",
"          ............................................          ",
"          .............................................         ",
"         .........       ..............       ..........        ",
"        ..........       ..............       ..........        ",
"        ..........       ..............       ...........       ",
"       ...........       ..............       ............      ",
"       ...........       ..............       ............      ",
"      ............       ..............       ............      ",
"     .............       ..............       .............     ",
"     .............       ..............       .............     ",
"     .............       ..............       .............     ",
"     .............       ..............       ..............    ",
"    ..............       ..............       ..............    ",
"    ..............       ..............       ..............    ",
"    ..............       ..............       ..............    ",
"    ..............                            ..............    ",
"    ..............                            ..............    ",
"    ..............                            ..............    ",
"    ..............                            ..............    ",
"    ..............                            ..............    ",
"    ..............                            ..............    ",
"    ..............       ..............       ..............    ",
"    ..............       ..............       ..............    ",
"    ..............       ..............       ..............    ",
"     .............       ..............       ..............    ",
"     .............       ..............       .............     ",
"     .............       ..............       .............     ",
"      ............       ..............       .............     ",
"      ............       ..............       .............     ",
"      ............       ..............       ............      ",
"       ...........       ..............       ............      ",
"       ...........       ..............       ...........       ",
"        ..........       ..............       ..........        ",
"        ..........       ..............       ..........        ",
"         ..............................................         ",
"          .............................................         ",
"           ...........................................          ",
"            .........................................           ",
"             .......................................            ",
"              .....................................             ",
"               ...................................              ",
"                 ...............................                ",
"                  .............................                 ",
"                    ........................                    ",
"                       ...................                      ",
"                          .............                         ",
"                                                                ",
"                                                                ",
"                                                                ",
"                                                                "
};
