/* XPM */
static char *hive_e[] = {
/* columns rows colors chars-per-pixel */
"64 64 2 1 ",
"  c #F4C5C3",
". c #FEFEFE",
/* pixels */
"                                                                ",
"                                                                ",
"                                                                ",
"                                                                ",
"                                                                ",
"                        ...............                         ",
"                      ...................                       ",
"                    .........................                   ",
"                  .............................                 ",
"                ................................                ",
"               ..................................               ",
"             .....................................              ",
"            .......................................             ",
"           ...............           ...............            ",
"          ..............               ..............           ",
"          ............                   .............          ",
"         ............                     .............         ",
"        ............                        ...........         ",
"       ............                          ...........        ",
"       ...........                            ..........        ",
"      ...........                              ..........       ",
"      ..........                               ..........       ",
"     ..........                                 ..........      ",
"     ..........                                 ..........      ",
"    ..........                                   .........      ",
"    ..........                                   ..........     ",
"    ..........                                    .........     ",
"    ..........                                    .........     ",
"    ..........                                    .........     ",
"    .......................................................     ",
"    .......................................................     ",
"    .......................................................     ",
"    .......................................................     ",
"    .......................................................     ",
"    .......................................................     ",
"    .......................................................     ",
"    ..........                                                  ",
"    ..........                                                  ",
"    ..........                                                  ",
"    ..........                                                  ",
"    ..........                                                  ",
"     .........                                                  ",
"     ..........                                                 ",
"     ..........                                                 ",
"     ..........                                  ........       ",
"      ..........                                .........       ",
"       ..........                              ..........       ",
"       ...........                            ...........       ",
"        ...........                          ...........        ",
"        .............                       ............        ",
"          ............                     ............         ",
"          ..............                  ............          ",
"           ................              ............           ",
"            ........................................            ",
"             ......................................             ",
"              ....................................              ",
"                .................................               ",
"                 ...............................                ",
"                   ...........................                  ",
"                     .......................                    ",
"                       ...................                      ",
"                                                                ",
"                                                                ",
"                                                                "
};
