/* XPM */
static char *hive_i[] = {
/* columns rows colors chars-per-pixel */
"64 64 2 1 ",
"  c #FFDD00",
". c #FEFEFE",
/* pixels */
"                                                                ",
"                                                                ",
"                                                                ",
"                                                                ",
"                                                                ",
"              ......                                            ",
"             ........                                           ",
"            ...     ..                                          ",
"            ..      ..                                          ",
"            ..      ..                                          ",
"            ..      ..                                          ",
"            ..      ..                                          ",
"            ..      ..                                          ",
"            ..      ..                                          ",
"            ..      ..                                          ",
"            ..      ..                                          ",
"            ..      ..                 .....                    ",
"            ..      ..         .....  .......                   ",
"            ..      ..        ................                  ",
"            ..      ..  ........   ....     ...                 ",
"            ..      ............    ...      ..                 ",
"            ..      .....   ....      ..      ..                ",
"            ..      ....      ..      ...     ..                ",
"            ..      ...        ..      ..      ..               ",
"            ..      ...        ..      ..      ..               ",
"            ..      ...        ..      ..      ..               ",
"            ..      ...        ..      ..      ..               ",
"            ..      ......     ..      ..      ..               ",
"            ..       . ....    ....   .....   ...               ",
"            ..          ....   ..................               ",
"            ..           ..............   .......               ",
"            ..           ........           .....               ",
"            ..           ....                 ...               ",
"            ..          ...                    ...              ",
"            ..          ..                      ..              ",
"            ..          ..                      ...             ",
"            ..          ...                     ...             ",
"            ..           ...                     ..             ",
"            ..           ................        ..             ",
"            ..            ................       ..             ",
"            ..                         ...       ..             ",
"            ..                         ...       ..             ",
"            ..                         ...       ..             ",
"            ..                                   ..             ",
"            ...                                  ..             ",
"            ...                                 ...             ",
"             ...                                ..              ",
"              ..                               ...              ",
"              ...                             ...               ",
"               ..                             ...               ",
"               ...                           ...                ",
"                ...                         ....                ",
"                 ...                       ....                 ",
"                  ...                     ....                  ",
"                   ....                 .....                   ",
"                    ....               ....                     ",
"                      ....................                      ",
"                       .................                        ",
"                                                                ",
"                                                                ",
"                                                                ",
"                                                                ",
"                                                                ",
"                                                                "
};
