/* XPM */
static char *jen[] = {
/* columns rows colors chars-per-pixel */
"64 64 12 1 ",
"  c #3B2504",
". c #422D0F",
"X c #D25757",
"o c #D27057",
"O c #57D257",
"+ c #D2B457",
"@ c #B4D257",
"# c #9557D2",
"$ c #D257D2",
"% c #57D2B4",
"& c #57B4D2",
"* c #FCDCB6",
/* pixels */
"$$####&&&&%%%%OOOO@@@@++++ooooXXXXoooo++++@@@@OOOO%%%%&&&&####$$",
"$$####&&&&%%%%OOOO@@@@++++ooooXXXXoooo++++@@@@OOOO%%%%&&&&####$$",
"$$####&&&&%%%%OOOO@@@@++++ooooXXXXoooo++++@@@@OOOO%%%%&&&&####$$",
"$$####&&&&%%%%OOOO@@@@++++ooooXXXXoooo++++@@@@OOOO%%%%&&&&####$$",
"$$####&&&&%%%%OOOO@@@@++++ooooXXXXoooo++++@@@@OOOO%%%%&&&&####$$",
"$$####&&&&%%%%OOOO@@@@++++ooooXXXXoooo++++@@@@OOOO%%%%&&&&####$$",
"$$####&&&&%%%%OOOO@@@@++++ooooXXXXoooo++++@@@@OOOO%%%%&&&&####$$",
"$$####&&&&%%%%OOOO@@@@++++ooooXXXXoooo++++@@@@OOOO%%%%&&&&####$$",
"$$####&&&&%%%%OOOO@@@        oXXXXooo        @OOOO%%%%&&&&####$$",
"$$####&&&&%%%%OOOO@           XXXXoo   .....  OOOO%%%%&&&&####$$",
"$$####&&&&%%%%OO        .....         ..   ...  OO%%%%&&&&####$$",
"$$####&&&&%%%%OO     ..     ........  ...   ....OO%%%%&&&&####$$",
"$$####&&&&%%%      ..    ..     ......        .. O%%%%&&&&####$$",
"$$####&&&&%%%     ..  .......      ..  ......  .. %%%%&&&&####$$",
"$$####&&&&%%    ..   ..    ...  ....        ..    %%%%&&&&####$$",
"$$####&&&&%%    .  ...               ......         %%&&&&####$$",
"$$####&&&&%       ..                      ...       %%&&&&####$$",
"$$####&&&&       .        **********  .      ..      %&&&&####$$",
"$$####&&&&     . .       ************  .             %&&&&####$$",
"$$####&&&             . ************** .              &&&&####$$",
"$$####&&             . *****************..             &&&####$$",
"$$####&             . *******************.             &&&####$$",
"$$####&           .. *********************..     .      &&####$$",
"$$####&   .   ....  ************************..   .  .   &&####$$",
"$$####&   .    .   ***************************....  .   &&####$$",
"$$####&   .      ******************************  ..  .   &####$$",
"$$####    .     *******************************  ..  .   &####$$",
"$$####    .     ********************************  .  .   &####$$",
"$$####   .      ********************************  .  .   &####$$",
"$$####   .     *********************************  .  .   &####$$",
"$$####   .     *********************************  .. .   &####$$",
"$$####   .  .  *********************************  .. .   &####$$",
"$$####   .  .  *********************************  .. .   &####$$",
"$$####   .  .  *********************************   .     &####$$",
"$$###    .  .  *********************************   .     &####$$",
"$$###    .  .  *********************************   .     &####$$",
"$$###    .  .  *********************************  ..  .   ####$$",
"$$###     . .  *********************************  .   .   ####$$",
"$$###     . .  *********************************  .   .   ####$$",
"$$###     . .  *********************************  .   .   ####$$",
"$$###     . .  ********************************* ..       ####$$",
"$$### ..    .  ********************************* ..   .   ####$$",
"$$### .     .  *********************************  .   ..  ####$$",
"$$###  .    .  *********************************  .   ... ####$$",
"$$####      .  *********************************       .  ####$$",
"$$####      .  *********************************       .  ####$$",
"$$####         O*******************************O         &####$$",
"$$####&       OOO******************************OO       &&####$$",
"$$####&&&&%%%%OOOO***************************@OOOO%%%%&&&&####$$",
"$$####&&&&%%%%OOOO@*************************@@OOOO%%%%&&&&####$$",
"$$####&&&&%%%%OOOO@@@*********************@@@@OOOO%%%%&&&&####$$",
"$$####&&&&%%%%OOOO@@@@++****************++@@@@OOOO%%%%&&&&####$$",
"$$####&&&&%%%%OOOO@@@@++++ooooXXXXoooo++++@@@@OOOO%%%%&&&&####$$",
"$$####&&&&%%%%OOOO@@@@++++ooooXXXXoooo++++@@@@OOOO%%%%&&&&####$$",
"$$####&&&&%%%%OOOO@@@@++++ooooXXXXoooo++++@@@@OOOO%%%%&&&&####$$",
"$$####&&&&%%%%OOOO@@@@++++ooooXXXXoooo++++@@@@OOOO%%%%&&&&####$$",
"$$####&&&&%%%%OOOO@@@@++++ooooXXXXoooo++++@@@@OOOO%%%%&&&&####$$",
"$$####&&&&%%%%OOOO@@@@++++ooooXXXXoooo++++@@@@OOOO%%%%&&&&####$$",
"$$####&&&&%%%%OOOO@@@@++++ooooXXXXoooo++++@@@@OOOO%%%%&&&&####$$",
"$$####&&&&%%%%OOOO@@@@++++ooooXXXXoooo++++@@@@OOOO%%%%&&&&####$$",
"$$####&&&&%%%%OOOO@@@@++++ooooXXXXoooo++++@@@@OOOO%%%%&&&&####$$",
"$$####&&&&%%%%OOOO@@@@++++ooooXXXXoooo++++@@@@OOOO%%%%&&&&####$$",
"$$####&&&&%%%%OOOO@@@@++++ooooXXXXoooo++++@@@@OOOO%%%%&&&&####$$",
"$$####&&&&%%%%OOOO@@@@++++ooooXXXXoooo++++@@@@OOOO%%%%&&&&####$$"
};
