/* XPM */
static char *linh[] = {
/* columns rows colors chars-per-pixel */
"64 64 13 1 ",
"  c #0C0C0C",
". c #414141",
"X c #5A5A5A",
"o c #D25757",
"O c #D27057",
"+ c #57D257",
"@ c #D2B457",
"# c #B4D257",
"$ c #9557D2",
"% c #D257D2",
"& c #57D2B4",
"* c #57B4D2",
"= c #FCDCB6",
/* pixels */
"%%$$$$****&&&&++++####@@@@OOOOooooOOOO@@@@####++++&&&&****$$$$%%",
"%%$$$$****&&&&++++####@@@@OOOOooooOOOO@@@@####++++&&&&****$$$$%%",
"%%$$$$****&&&&++++####@@@@OOOOooooOOOO@@@@####++++&&&&****$$$$%%",
"%%$$$$****&&&&++++####@@@@OOOOooooOOOO@@@@####++++&&&&****$$$$%%",
"%%$$$$****&&&&++++####@@@@OOOOooooOOOO@@@@####++++&&&&****$$$$%%",
"%%$$$$****&&&&++++####@@@@OOOOooooOOOO@@@@####++++&&&&****$$$$%%",
"%%$$$$****&&&&++++####@@@@OOOOooooOOOO@@@@####++++&&&&****$$$$%%",
"%%$$$$****&&&&++++####@@@@OOOOooooOOOO@@@@####++++&&&&****$$$$%%",
"%%$$$$****&&&&++++###        OooooOOO        #++++&&&&****$$$$%%",
"%%$$$$****&&&&++++#           ooooOO    XXX   ++++&&&&****$$$$%%",
"%%$$$$****&&&&++         XXX          XX   XXX  ++&&&&****$$$$%%",
"%%$$$$****&&&&++      .XXX  XXXXXX            XX++&&&&****$$$$%%",
"%%$$$$****&&&       X.            X    XX      X +&&&&****$$$$%%",
"%%$$$$****&&&     X..  XXXXXXXXX   X     XXXX     &&&&****$$$$%%",
"%%$$$$****&&     ..  XX     XX XXXX          X    &&&&****$$$$%%",
"%%$$$$****&&    X  X.                 XXXXXX X      &&****$$$$%%",
"%%$$$$****&     . .                         X       &&****$$$$%%",
"%%$$$$****       X     ==============        XX      &****$$$$%%",
"%%$$$$****     ..    =====================           &****$$$$%%",
"%%$$$$***           ========================          ****$$$$%%",
"%%$$$$**           =========================           ***$$$$%%",
"%%$$$$*           ===========================          ***$$$$%%",
"%%$$$$*          =============================          **$$$$%%",
"%%$$$$*   .      =============================   .      **$$$$%%",
"%%$$$$*   .      =============================   .      **$$$$%%",
"%%$$$$*   .     ===============================  .       *$$$$%%",
"%%$$$$    .     ===============================   .      *$$$$%%",
"%%$$$$    .     ================================  .      *$$$$%%",
"%%$$$$   .      ==XXXXXXXXXXX=====XXXXXXXXXXX===  .      *$$$$%%",
"%%$$$$   .     ===X=========XX===XX=========X===  .      *$$$$%%",
"%%$$$$   .     ===X==========X===X==========X===  .      *$$$$%%",
"%%$$$$   .  .  ==X===========X===X===========X==   X     *$$$$%%",
"%%$$$$   .  .  ==X===========XXXXX===========X==   X     *$$$$%%",
"%%$$$$   .  .  ==X===========X===X===========X==   X     *$$$$%%",
"%%$$$    .  .  ===X==========X===X==========X===   X     *$$$$%%",
"%%$$$    .  .  ===X==========X===X==========X===  .      *$$$$%%",
"%%$$$    .  X  ===X==========X===X==========X===  .       $$$$%%",
"%%$$$     . .  ===XXXXXXXXXXX=====XXXXXXXXXXX===  .       $$$$%%",
"%%$$$     . .  =================================  .       $$$$%%",
"%%$$$     . .  =================================  .       $$$$%%",
"%%$$$     . X  =================================  .       $$$$%%",
"%%$$$ ..    .  =================================  .   .   $$$$%%",
"%%$$$ .     X  =================================  .    .  $$$$%%",
"%%$$$  .    .  =================================  .    .  $$$$%%",
"%%$$$$      .  =================================       .  $$$$%%",
"%%$$$$      .  =================================          $$$$%%",
"%%$$$$         +===============================+         *$$$$%%",
"%%$$$$****&&&&+++==============================+++&&&&****$$$$%%",
"%%$$$$****&&&&++++===========================#++++&&&&****$$$$%%",
"%%$$$$****&&&&++++#=========================##++++&&&&****$$$$%%",
"%%$$$$****&&&&++++###=====================####++++&&&&****$$$$%%",
"%%$$$$****&&&&++++####@@================@@####++++&&&&****$$$$%%",
"%%$$$$****&&&&++++####@@@@OOOOooooOOOO@@@@####++++&&&&****$$$$%%",
"%%$$$$****&&&&++++####@@@@OOOOooooOOOO@@@@####++++&&&&****$$$$%%",
"%%$$$$****&&&&++++####@@@@OOOOooooOOOO@@@@####++++&&&&****$$$$%%",
"%%$$$$****&&&&++++####@@@@OOOOooooOOOO@@@@####++++&&&&****$$$$%%",
"%%$$$$****&&&&++++####@@@@OOOOooooOOOO@@@@####++++&&&&****$$$$%%",
"%%$$$$****&&&&++++####@@@@OOOOooooOOOO@@@@####++++&&&&****$$$$%%",
"%%$$$$****&&&&++++####@@@@OOOOooooOOOO@@@@####++++&&&&****$$$$%%",
"%%$$$$****&&&&++++####@@@@OOOOooooOOOO@@@@####++++&&&&****$$$$%%",
"%%$$$$****&&&&++++####@@@@OOOOooooOOOO@@@@####++++&&&&****$$$$%%",
"%%$$$$****&&&&++++####@@@@OOOOooooOOOO@@@@####++++&&&&****$$$$%%",
"%%$$$$****&&&&++++####@@@@OOOOooooOOOO@@@@####++++&&&&****$$$$%%",
"%%$$$$****&&&&++++####@@@@OOOOooooOOOO@@@@####++++&&&&****$$$$%%"
};
