/* XPM */
static char *rainbow_floor1[] = {
/* columns rows colors chars-per-pixel */
"64 64 9 1 ",
"  c #D25757",
". c #D27057",
"X c #57D257",
"o c #D2B457",
"O c #B4D257",
"+ c #9557D2",
"@ c #D257D2",
"# c #57D2B4",
"$ c #57B4D2",
/* pixels */
"@@++++$$$$####XXXXOOOOoooo....    ....ooooOOOOXXXX####$$$$++++@@",
"@@++++$$$$####XXXXOOOOoooo....    ....ooooOOOOXXXX####$$$$++++@@",
"@@++++$$$$####XXXXOOOOoooo....    ....ooooOOOOXXXX####$$$$++++@@",
"@@++++$$$$####XXXXOOOOoooo....    ....ooooOOOOXXXX####$$$$++++@@",
"@@++++$$$$####XXXXOOOOoooo....    ....ooooOOOOXXXX####$$$$++++@@",
"@@++++$$$$####XXXXOOOOoooo....    ....ooooOOOOXXXX####$$$$++++@@",
"@@++++$$$$####XXXXOOOOoooo....    ....ooooOOOOXXXX####$$$$++++@@",
"@@++++$$$$####XXXXOOOOoooo....    ....ooooOOOOXXXX####$$$$++++@@",
"@@++++$$$$####XXXXOOOOoooo....    ....ooooOOOOXXXX####$$$$++++@@",
"@@++++$$$$####XXXXOOOOoooo....    ....ooooOOOOXXXX####$$$$++++@@",
"@@++++$$$$####XXXXOOOOoooo....    ....ooooOOOOXXXX####$$$$++++@@",
"@@++++$$$$####XXXXOOOOoooo....    ....ooooOOOOXXXX####$$$$++++@@",
"@@++++$$$$####XXXXOOOOoooo....    ....ooooOOOOXXXX####$$$$++++@@",
"@@++++$$$$####XXXXOOOOoooo....    ....ooooOOOOXXXX####$$$$++++@@",
"@@++++$$$$####XXXXOOOOoooo....    ....ooooOOOOXXXX####$$$$++++@@",
"@@++++$$$$####XXXXOOOOoooo....    ....ooooOOOOXXXX####$$$$++++@@",
"@@++++$$$$####XXXXOOOOoooo....    ....ooooOOOOXXXX####$$$$++++@@",
"@@++++$$$$####XXXXOOOOoooo....    ....ooooOOOOXXXX####$$$$++++@@",
"@@++++$$$$####XXXXOOOOoooo....    ....ooooOOOOXXXX####$$$$++++@@",
"@@++++$$$$####XXXXOOOOoooo....    ....ooooOOOOXXXX####$$$$++++@@",
"@@++++$$$$####XXXXOOOOoooo....    ....ooooOOOOXXXX####$$$$++++@@",
"@@++++$$$$####XXXXOOOOoooo....    ....ooooOOOOXXXX####$$$$++++@@",
"@@++++$$$$####XXXXOOOOoooo....    ....ooooOOOOXXXX####$$$$++++@@",
"@@++++$$$$####XXXXOOOOoooo....    ....ooooOOOOXXXX####$$$$++++@@",
"@@++++$$$$####XXXXOOOOoooo....    ....ooooOOOOXXXX####$$$$++++@@",
"@@++++$$$$####XXXXOOOOoooo....    ....ooooOOOOXXXX####$$$$++++@@",
"@@++++$$$$####XXXXOOOOoooo....    ....ooooOOOOXXXX####$$$$++++@@",
"@@++++$$$$####XXXXOOOOoooo....    ....ooooOOOOXXXX####$$$$++++@@",
"@@++++$$$$####XXXXOOOOoooo....    ....ooooOOOOXXXX####$$$$++++@@",
"@@++++$$$$####XXXXOOOOoooo....    ....ooooOOOOXXXX####$$$$++++@@",
"@@++++$$$$####XXXXOOOOoooo....    ....ooooOOOOXXXX####$$$$++++@@",
"@@++++$$$$####XXXXOOOOoooo....    ....ooooOOOOXXXX####$$$$++++@@",
"@@++++$$$$####XXXXOOOOoooo....    ....ooooOOOOXXXX####$$$$++++@@",
"@@++++$$$$####XXXXOOOOoooo....    ....ooooOOOOXXXX####$$$$++++@@",
"@@++++$$$$####XXXXOOOOoooo....    ....ooooOOOOXXXX####$$$$++++@@",
"@@++++$$$$####XXXXOOOOoooo....    ....ooooOOOOXXXX####$$$$++++@@",
"@@++++$$$$####XXXXOOOOoooo....    ....ooooOOOOXXXX####$$$$++++@@",
"@@++++$$$$####XXXXOOOOoooo....    ....ooooOOOOXXXX####$$$$++++@@",
"@@++++$$$$####XXXXOOOOoooo....    ....ooooOOOOXXXX####$$$$++++@@",
"@@++++$$$$####XXXXOOOOoooo....    ....ooooOOOOXXXX####$$$$++++@@",
"@@++++$$$$####XXXXOOOOoooo....    ....ooooOOOOXXXX####$$$$++++@@",
"@@++++$$$$####XXXXOOOOoooo....    ....ooooOOOOXXXX####$$$$++++@@",
"@@++++$$$$####XXXXOOOOoooo....    ....ooooOOOOXXXX####$$$$++++@@",
"@@++++$$$$####XXXXOOOOoooo....    ....ooooOOOOXXXX####$$$$++++@@",
"@@++++$$$$####XXXXOOOOoooo....    ....ooooOOOOXXXX####$$$$++++@@",
"@@++++$$$$####XXXXOOOOoooo....    ....ooooOOOOXXXX####$$$$++++@@",
"@@++++$$$$####XXXXOOOOoooo....    ....ooooOOOOXXXX####$$$$++++@@",
"@@++++$$$$####XXXXOOOOoooo....    ....ooooOOOOXXXX####$$$$++++@@",
"@@++++$$$$####XXXXOOOOoooo....    ....ooooOOOOXXXX####$$$$++++@@",
"@@++++$$$$####XXXXOOOOoooo....    ....ooooOOOOXXXX####$$$$++++@@",
"@@++++$$$$####XXXXOOOOoooo....    ....ooooOOOOXXXX####$$$$++++@@",
"@@++++$$$$####XXXXOOOOoooo....    ....ooooOOOOXXXX####$$$$++++@@",
"@@++++$$$$####XXXXOOOOoooo....    ....ooooOOOOXXXX####$$$$++++@@",
"@@++++$$$$####XXXXOOOOoooo....    ....ooooOOOOXXXX####$$$$++++@@",
"@@++++$$$$####XXXXOOOOoooo....    ....ooooOOOOXXXX####$$$$++++@@",
"@@++++$$$$####XXXXOOOOoooo....    ....ooooOOOOXXXX####$$$$++++@@",
"@@++++$$$$####XXXXOOOOoooo....    ....ooooOOOOXXXX####$$$$++++@@",
"@@++++$$$$####XXXXOOOOoooo....    ....ooooOOOOXXXX####$$$$++++@@",
"@@++++$$$$####XXXXOOOOoooo....    ....ooooOOOOXXXX####$$$$++++@@",
"@@++++$$$$####XXXXOOOOoooo....    ....ooooOOOOXXXX####$$$$++++@@",
"@@++++$$$$####XXXXOOOOoooo....    ....ooooOOOOXXXX####$$$$++++@@",
"@@++++$$$$####XXXXOOOOoooo....    ....ooooOOOOXXXX####$$$$++++@@",
"@@++++$$$$####XXXXOOOOoooo....    ....ooooOOOOXXXX####$$$$++++@@",
"@@++++$$$$####XXXXOOOOoooo....    ....ooooOOOOXXXX####$$$$++++@@"
};
