/* XPM */
static char *rainbow_door[] = {
/* columns rows colors chars-per-pixel */
"64 64 14 1 ",
"  c #5B3600",
". c #834F00",
"X c #AD6B00",
"o c #D25757",
"O c #D27057",
"+ c #57D257",
"@ c #F19149",
"# c #D2B457",
"$ c #B4D257",
"% c #9557D2",
"& c #D257D2",
"* c #57D2B4",
"= c #57B4D2",
"- c #F6B380",
/* pixels */
"&&%%%%====****++++$$$$####OOOOooooOOOO####$$$$++++****====%%%%&&",
"&&%%%%====****++++$$$$####OOOOooooOOOO####$$$$++++****====%%%%&&",
"&&%%%%====****++++$$$$####OOOOooooOOOO####$$$$++++****====%%%%&&",
"&&%%%%====****++++$$$$####OOOOooooOOOO####$$$$++++****====%%%%&&",
"&&%%%%====****++++$$$$####OOOOooooOOOO####$$$$++++****====%%%%&&",
"&&%%%%====****++++$$$$####OOOOooooOOOO####$$$$++++****====%%%%&&",
"&&%%%%====****++++$$$$####OOOOooooOOOO####$$$$++++****====%%%%&&",
"&&%%%%====****++++$$$$####OOOOooooOOOO####$$$$++++****====%%%%&&",
"&&%%%%====****++++$$$$####OOOOooooOOOO####$$$$++++****====%%%%&&",
"&&%%%%====****++++$$$$####OOOOooooOOOO####$$$$++++****====%%%%&&",
"&&%%%%====****++++$$$$####OOOOooooOOOO####$$$$++++****====%%%%&&",
"&&%%%%====****++++$$$$####OOOOooooOOOO####$$$$++++****====%%%%&&",
"&&%%%%====****++++$$$$#                 ##$$$$++++****====%%%%&&",
"&&%%%%====****++++$$$$  .... ....... ..  #$$$$++++****====%%%%&&",
"&&%%%%====****++++$$$  ..... ..X.... ...  $$$$++++****====%%%%&&",
"&&%%%%====****++++$$  ...... .X.XX.. ....  $$$++++****====%%%%&&",
"&&%%%%====****++++$   ...... .X..... ..XX.  $$++++****====%%%%&&",
"&&%%%%====****++++  . ..XX.. .X..... ...X..  $++++****====%%%%&&",
"&&%%%%====****+++  .. ..XX.. .X.X... .X.X..   ++++****====%%%%&&",
"&&%%%%====****++  ... .X.X.. .XX.X.. .X.XX. .  +++****====%%%%&&",
"&&%%%%====****+  .... .X.XX. .XX.XX. .X..X. ..  ++****====%%%%&&",
"&&%%%%====****+ ..... .X.XX. .XX..X. .X..X. ...  +****====%%%%&&",
"&&%%%%====****  ...X. .X.XX. .XX..X. .X..X. .... +****====%%%%&&",
"&&%%%%====**** ....X. .X.XX. .XX..X. .X..X. .... +****====%%%%&&",
"&&%%%%====**** ....X. .X.XX. ..X..X. .X..X. X... +****====%%%%&&",
"&&%%%%====**** ....X. .X.XX. ..X.X.. .X..X. X... +****====%%%%&&",
"&&%%%%====**** .X..X. .X.XX. ..X.X.. .X.X.. X... +****====%%%%&&",
"&&%%%%====**** .X..X. .X.XX. .X..X.. .X.X.. X... +****====%%%%&&",
"&&%%%%====**** .X..X. .X.XX. .X..X.. .X.X.. X... +****====%%%%&&",
"&&%%%%====**** .X.XX. .X.XX. .X..X.. .X.X.. X... +****====%%%%&&",
"&&%%%%====**** .X.XX. .X.XX. .X..... .X.X.. X... +****====%%%%&&",
"&&%%%%====**** .X.XX. .X.X.. .X..... .X.X.. X.X. +****====%%%%&&",
"&&%%%%====**** ...XX. .X.X.. .X..... .X.XX. XXX. +****====%%%%&&",
"&&%%%%====**** ...... ..XX.. .X.X... .X.XX. X.X. +****====%%%%&&",
"&&%%%%====**** ...... ..XX.. .X.XX..  X.XX. ..X. +****====%%%%&&",
"&&%%%%====**** ...... ..XX.. .X.XX... X.XX. .... +****====%%%%&&",
"&&%%%%====**** ...... ...X.. .X.XX... .X... X... +****====%%%%&&",
"&&%%%%====**** ..XX.. ...X.. .X.X.X.. .XX..---.. +****====%%%%&&",
"&&%%%%====**** ..XX.. ...X.. .X.X.X.. .X..-----. +****====%%%%&&",
"&&%%%%====**** ..XX.. ...X.. .X.X.X.. .X.------- +****====%%%%&&",
"&&%%%%====**** ..XX.. .X.XX. .X.X.X.. .X.------- +****====%%%%&&",
"&&%%%%====**** ..XX.. .X.XX. .X.X.X.. ...@-----@ +****====%%%%&&",
"&&%%%%====**** ..XX.. .X.X.. .X.X.X.. .X.@@---@@ +****====%%%%&&",
"&&%%%%====**** ..X... .X.X.. .X.X...  .X..@@@@@  +****====%%%%&&",
"&&%%%%====**** .XX... .X.X.. .X.X... ..X.. @@@ . +****====%%%%&&",
"&&%%%%====**** .X.X.. .X.X.. .X.X... ..X...    . +****====%%%%&&",
"&&%%%%====**** .X.X.. .X.X.. .X.X... ..X... .... +****====%%%%&&",
"&&%%%%====**** .X.... .X.X.. .X.X.X. ..XXX  .X.. +****====%%%%&&",
"&&%%%%====**** .X.X.. .X.X.. .X.X.X. .XXX. ..X.. +****====%%%%&&",
"&&%%%%====**** .X.XX. .X.X.. .X.X.X. .X.X. ..X.. +****====%%%%&&",
"&&%%%%====**** .X.XX. .X.X.. .X.X.X. .X.X. ..X.X +****====%%%%&&",
"&&%%%%====**** .X.... .X.X.. ..XX.X. ...X. .XX.X +****====%%%%&&",
"&&%%%%====**** .X.... .X.X.. ..XX.X. ...X. .XXX. +****====%%%%&&",
"&&%%%%====**** .X...  ...X.. ..XX.X. ...X. .X.X. +****====%%%%&&",
"&&%%%%====**** .X.X.  ...X.. ..XX.X. ...X. .X.X. +****====%%%%&&",
"&&%%%%====**** .X.X.. ...X.. ..XX.X. ..XX. .X.X. +****====%%%%&&",
"&&%%%%====**** .X.X.. ...X.. ..XX..X ..XX. .X.X. +****====%%%%&&",
"&&%%%%====**** .X.X.. ...... ...X..X ..XX. .X.X. +****====%%%%&&",
"&&%%%%====**** .X.X.. ...... .....X. ..XX. .X.X. +****====%%%%&&",
"&&%%%%====**** .X.X.. .X..... ....X. ..XX. .X.X. +****====%%%%&&",
"&&%%%%====**** ..XX.. .X..... .X..X. ..XX. .X.X. +****====%%%%&&",
"&&%%%%====**** ...... ..X..X. ..X.X. ...X. ..X.. +****====%%%%&&",
"&&%%%%====****  ..... ..XXX.. ...X.. ..X.. ....  +****====%%%%&&",
"&&%%%%====****                                   +****====%%%%&&"
};
