/* XPM */
static char *robo_cat[] = {
/* columns rows colors chars-per-pixel */
"64 64 8 1 ",
"  c gray15",
". c gray20",
"X c gray30",
"o c #E60013",
"O c #CDC651",
"+ c #9A9A9A",
"@ c #DFD989",
"# c #EBE7B2",
/* pixels */
"OOOO##OOOOOOOO##OOOOOOOOOOOOOOOOOOOOOOOOOOOOOOOO##OOOOOOOO##OOOO",
"OOOO##OOOOOOOO##OOOOOOOOOOOOOOOOOOOOOOOOOOOOOOOO##OOOOOOOO##OOOO",
"OOOO##OOOOOOOO##OOOOOOOOOOOOOOOOOOOOOOOOOOOOOOOO##OOOOOOOO##OOOO",
"OOOO##OOOOOOOO##OOOOOOOOOOOOOOOOOOOOOOOOOOOOOOOO##OOOOOOOO##OOOO",
"OOOO##OOOOOOOO##OOOOOOOOOOOOOOOOOOOOOOOOOOOOOOOO##OOOOOOOO##OOOO",
"OOOO##OOOOOOOO##OOOOOOOOOOOOOOOOOOOOOOOOOOOOOOOO##OOOOOOOO##OOOO",
"OOOO##OOOOOOOO##OOOOOOO@@@@@@OOOOOO@@@@@@OOOOOOO##OOOOOOOO##OOOO",
"OOOO##OOOOOOOO##OOOOOOO@@@@@@OOOOOO@@@@@@OOOOOOO##OOOOOOOO##OOOO",
"OOOO##OOO@@OOO##OOOOO@@OOOOOO@@OO@@OOOOOO@@OOOOO##OOO@@OOO##OOOO",
"OOOO##OOO@@OOO##OOOOO@@OOOOOO@@OO@@OOOOOO@@OOOOO##OOO@@OOO##OOOO",
"OOOO##OOOOOOOO##OOOOO@@OOOOOOOO@@OOOOOOOO@@OOOOO##OOOOOOOO##OOOO",
"OOOO##OOOOOOOO##OOOOO@@OOOOOOOO@@OOOOOOOO@@OOOOO##OOOOOOOO##OOOO",
"OOOO##OOOOOOOO##OOOOO@@OOOOOOOOOOOOOOOOOO@@OOOOO##OOOOOOOO##OOOO",
"OOOO##OOOOOOOO##OOOOO@@OOOOOOOOOOOOOOOOOO@@OOOOO##OOOOOOOO##OOOO",
"OOOO##OOOOOOOO##OOOOOOO@@OOOOOOOOOOOOOO@@OOOOOOO##OOOOOOOO##OOOO",
"OOOO##OOOOOOOO##OOOOOOO@@OOOOOOOOOOOOOO@@OOOOOOO##OOOOOOOO##OOOO",
"OOOO##OOOOOOOO##OOOOOOOOO@@OOOOOOOOOO@@OOOOOOOOO##OOOOOOOO##OOOO",
"OOOO##OOOOOOOO##OOOOOOOOO@@OOOOOOOOOO@@OOOOOOOOO##OOOOOOOO##OOOO",
"OOOO##OOO@@OOO##OOOOOOOOOOO@@OOOOOO@@OOOOOOOOOOO##OOO@@OOO##OOOO",
"OOOO##OOO@@OOO##OOOOOOOOOOO@@OOOOOO@@OOOOOOOOOOO##OOO@@OOO##OOOO",
"OOOO##OOOOOOOO##OOOOOOOOOOOOO@@OO@@OOOOOOOOOOOOO##OOOOOOOO##OOOO",
"OOOO##OOOOOOOO##OOOOOOOOOOOOO@@OO@@OOOOOOOOOOOOO##OOOOOOOO##OOOO",
"OOOO##OOOOOOOO##OOOOOOOOOOOOOOO@@OOOOOOOOOOOOOOO##OOOOOOOO##OOOO",
"OOOO##OOOOOOOO##OOOOOOOOOOOOOOO@@OOOOOOOOOOOOOOO##OOOOOOOO##OOOO",
"OOOO##OOOOOOOO##OOOOOOOOOOOOOOOOOOOOOOOOOOOOOOOO##OOOOOOOO##OOOO",
"OOOO##OOOOOOOO##OOOOOOOOOOOOOOOOOOOOOOOOOOOOOOOO##OOOOOOOO##OOOO",
"OOOO##OOOOOOOO##OOOOOOOOOOOOOOOOOOOOOOOOOOOOOOOO##OOOOOOOO##OOOO",
"OOOO##OOOOOOOO##OOOOOO##OOOOOOOOOOOOOOO##OOOOOOO##OOOOOOOO##OOOO",
"OOOO##OOOOOOOO##OOOOOO##OOOOOOOOOOOOOOO##OOOOOOO##OOOOOOOO##OOOO",
"OOOO##OOOOOOOO##OOOO##OO##OOOOOOOOOOO##OO##OOOOO##OOOOOOOO##OOOO",
"OOOO##OOO@@OOO##OOOO##OO##OOOOOOOOOOO##OO##OOOOO##OOO@@OOO##OOOO",
"OOOO##OOO@@OOO##OOOOOO##OOOOOOO##OOOOOO##OOOOOOO##OOO@@OOO##OOOO",
"OOOO##OOOOOOOO##OOOOOO##OOOOOOO##OOOOOO##OOOOOOO##OOOOOOOO##OOOO",
"OOOO##OOOOOOOO##OOOOOOOOOOOOO##OO##OOOOOOOOOOOOO##OOOOOOOO##OOOO",
"OOOO##OOOOOOOO##OOOOOOOOOOOOO##OO##OOOOOOOOOOOOO##OOOOOOOO##OOOO",
"OOOO##OOOOOOOO##OOOOOOOOOOOOOOO##OOOOOOOOOOOOOOO##OOOOOOOO##OOOO",
"OOOO##OOOOOOOO##OOOOOOOOOOOOOOO##OOOOOOOOOOOOOOO##OOOOOOOO##OOOO",
"OOOO##OOOOOOOO##OOOOOOOOOOOOOOOOOOOOOOOOOOOOOOOO##OOOOOOOO##OOOO",
"OOOO##OOOOOOOO##XXOOOOOOOOXXXOOOOOOOOOOOOOOOOOOO##OOOOOOOO##OOOO",
"OOOO##OOOOOOOO##X+XOOOOOOOX+XOOOOOOOOOOOOOOOOOOO##OOOOOOOO##OOOO",
"OOOO##OOOOOOOO##X++XOOOOOX++XOOOOOOOOOOOOOOOOOOO##OOOOOOOO##OOOO",
"OOOO##OOO@@OOO##X+++XXXXX+++XOOOOOOOOOOOOOOOOOOO##OOXXXOOO##OOOO",
"OOOO##OOO@@OOO##X+++++++++++XOOOOOOOOOOOOOOOOOOO##OOX+XOOO##OOOO",
"OOOO##OOOOOOOO##X+++++++++++XOOOOOO@@@@@@OOOOOOO##OX++XOOO##OOOO",
"OOOO##OOOOOOOO##X++oo+++oo++XOOOOOO@@@@@@OOOOOOO##OX+XOOOO##OOOO",
"OOOO##OOOOOOOO##X++oo+++oo++X@@OO@@OOOOOO@@OOOOO##OX+XOOOO##OOOO",
"OOOO##OOOOOOOO##X+++++++++++X@@OO@@OOOOOO@@OOOOO##X+XOOOOO##OOOO",
"OOOO##OOOOOOOO##OX+++++++++XOOO@@OOOOOOOO@@OOOOO#X+XOOOOOO##OOOO",
"OOOO##OOOOOOOO##OOX+++++++XOOOO@@OOOOOOOO@@OOOOOX++XOOOOOO##OOOO",
"OOOO##OOOOOOOO##OOXXXXXXXXXXXXOOOOOOOOOOO@@OOOOOX+XXOOOOOO##OOOO",
"OOOO##OOOOOOOO##OOOX++++++++++XXXOOOOOOOO@@OOOOOX+XOOOOOOO##OOOO",
"OOOO##OOOOOOOO##OOX++++++++++++++XXXOOO@@OOOOOOOX+XOOOOOOO##OOOO",
"OOOO##OOOOOOOO##OOX++++++++++++++++XXOO@@OOOOOOOX+XOO@@OOO##OOOO",
"OOOO##OOO@@OOO##OX+++++++++++++++++++XXOOOOOOOOXX+XOO@@OOO##OOOO",
"OOOO##OOO@@OOO##OX+++++++++++++++++++++XXOOXXXX++XOOOOOOOO##OOOO",
"OOOO##OOOOOOOO##OX++++++++++++++++++++++XOXX+++XX#OOOOOOOO##OOOO",
"OOOO##OOOOOOOO##OX++XXXXXX+++++++++++++++XXX+XXX##OOOOOOOO##OOOO",
"OOOO##OOOOOOOO##OXXXX++++++++++++++++++++++XXOOO##OOOOOOOO##OOOO",
"OOOO##OOOOOOOO##OX+++++++++++++++++++++++++XOOOO##OOOOOOOO##OOOO",
"OOOO##OOOOOOOO##OX++++++++++++++++++++++++++XOOO##OOOOOOOO##OOOO",
"OOOO##OOOOOOOO##OX++++++++++++++++++++XXXXXXXOOO##OOOOOOOO##OOOO",
"OOOO##OOOOOOOO##OOX+++++++XXX++++++++++++++XOOOO##OOOOOOOO##OOOO",
"OOOO##OOOOOOOO##OOXX .... +++XXXXXXX .... XXOOOO##OOOOOOOO##OOOO",
"OOOO##OOOOOOOO##OOOX  ..  XXXXXXXXXX  ..  XOOOOO##OOOOOOOO##OOOO"
};
