/* XPM */
static char *sky_1[] = {
/* columns rows colors chars-per-pixel */
"64 64 54 1 ",
"  c #D7C2BC",
". c #DBC4BC",
"X c #DEC7BC",
"o c #E7CEBA",
"O c #EACFB9",
"+ c #E7D3BD",
"@ c #EFD4B9",
"# c #EEDCBE",
"$ c #F7D9B7",
"% c #FCDCB6",
"& c #F3D6B8",
"* c #F4DCBB",
"= c #F9DCB8",
"- c #B6DDDE",
"; c #BDDDDA",
": c #9ADDEE",
"> c #8FDDF4",
", c #85DDFA",
"< c #94DDF1",
"1 c #A3D9E7",
"2 c #AEDFE7",
"3 c #A1DDEA",
"4 c #B3DDE0",
"5 c #D7CCC2",
"6 c #D9CCC1",
"7 c #CFD9CE",
"8 c #D2D0C7",
"9 c #D8D0C3",
"0 c #D1D6CB",
"q c #D2DCCE",
"w c #DADCC9",
"e c #C2D0D0",
"r c #C4DCD6",
"t c #CBDCD2",
"y c #E1D3C0",
"u c #E9D2C1",
"i c #E3DCC4",
"p c #F7DFC5",
"a c #F3DFCC",
"s c #CBE0D9",
"d c #D2E2DA",
"f c #EEE4CF",
"g c #F7E0C6",
"h c #FCE4C7",
"j c #F7E4CA",
"k c #FCE5C9",
"l c #E3E2D1",
"z c #F6E5D2",
"x c #FAE7D1",
"c c #F4E8D6",
"v c #FCE8D0",
"b c #FCEAD4",
"n c #FCEFDF",
"m c #FCF0E0",
/* pixels */
",,,,,,,,,,,,,,,,,,,,,,,,,,,,,,,,,,,,,,,,,,,,,,,,,,,,,,,,,,,,,,,,",
",,,,,,,,,,,,,,,,,,,,,,,,,,,,,,,,,,,,,,,,,,,,,,,,,,,,,,,,,,,,,,,,",
",,,,,,,,,,,,,,,,,,,,,,,,,,,,,,,,,,,,,,,,,,,,,,,,,,,,,,,,,,,,,,,,",
",,,,,,,,,,,,,,,,,,,,,,,,,,,,,,,,,,,,,,,,,,,,,,,,,,,,,,,,,,,,,,,,",
",,,,,,,,,,,,,,,,,,,,,,,,,,,,,,,,,,,,,,,,,,,,,,,,,,,,,,,,,,,,,,,,",
",,,,,,,,,,,,,,,,,,,,,,,,,,,,,,,,,,,,,,,,,,,,,,,,,,,,,,,,,,,,,,,,",
",,,,,,,,,,,,,,,,,,,,,,,,,,,,,,,,,,,,,,,,,,,,,,,,,,,,,,,,,,,,,,,,",
"--,,,,,,,,,,,,,,,,,,,,,,,,,,,,,,,,,,,,,,,,,,,,,,,,,,,,,,,,,,,,,,",
"i-,,,,,,,,,,,,,,,,,,,,,,,,,,,,,,,,,,,,,,,,,,,,,,,,,,,,,,,,,,,,,,",
"%%%---,,,,,,,,,,,,,,,,,,,,,,,,,,,,,,,,,,,,,,,,,,,,,,,,,,,,,,,,-q",
"k%%%%%%-,,,,,,,,,,,,,,,,,,,,,,,,,,,,,,,,,,,,,,,,,,,,,,,,,,,,,-ii",
"kkkk%%%%%%,,,,,,,,,,,,,,,,,,,,,,,,,,,,,,,,,,,,,,,,,,,,,,,,-qii#*",
"bkkkbbkk%%q--,,,,,,,,,,,,,,,,,,,,,,,,,,,,,------qqq------i##**#%",
"bkkkkkkkkb%%%---,,,,,,,,,,,,,,,,,,,,,,,---%%%%%%%%%%%%%%%%%%%%kk",
"bnnkkkkkknnh%%%%-,,,,,,,,,,,,,,,,,,,,,--%%kkkkkkkkkkkkkkbkkkkbbk",
"bkbnnnnbbbbnb%%%iq--,,,,,,,,,,,,,,,,--%%%kkkkkkkkkkkkkbnnnnnnnkb",
"kkbnnnnmmmmmnbk%%#qq-,,,,,,,,,,,,,--%%%kkkkkkkkkkkkkbbkkkkkkkbk%",
"hhkbnnnbbbbhhhhh%*iqq,,,,,,,,,,,,-%%%%%%kkkkkkkkbbnkkkkkkkknnkkk",
"hbbbhhbbbbhbbbbbbfiiq-,,,,,,,,,,--%%%%%%%%kkkkbbbnbbbbkbbnnbkkkk",
"$hbxnnbnbnnnnnbnnciqq-,,,,,,,,,,-%%%%%%%%%%%kkkk%%bbbnnbbbbnbkbb",
"%%bbbxnnnnnnbhhbfiiqq,,,,,,,,,,,-%%%%%%%%%%%%%%%%%%%%%%%%kkkbbbb",
"@*=hbbbz$phhhjk#iiiq,,,,,,,,,,,,-%%%%%%%%%%%%%%%%%%%%%%%%%%%%hhh",
"999966ooO@@**##iq--q,,,,,,,,,,,--q%%%%%%%%%%%%%%%%%%%%%%%%%%%%hh",
"665566oooo#iiqq-q--,,,,,,,,,,,,,,-qqq%%%%%%&%%%%@%%%%%&$%%%%%%%%",
"ooooooooqqi#q---,,,,,,,,,,,,,,,,,---qqi%%%@%&&%@&@&&&@&&@@&@@@&&",
"ooooo+iqqq-,,,,,,,,,,,,,,,,,,,,,,,,----qiii%%%&&@@ooo.@Ooooooooo",
"y+##qqq,,,,,,,,,,,,,,,,,,,,,,,,,,,,,,,,,--q%%%%%%%@@@ooooo......",
"0rwiq-,,,,,,,,,,,,,,,,,,,,,,,,,,,,,,,,,,,,,,qqq%%%%%%%&&@OOoo.oo",
"qq;,,,,,,,,,,,,,,,,,,,,,,,,,,,,,,,,,,,,,,,,,,,,----%%%%%%%$&&&&&",
"<,,,,,,,,,,,,,,,,,,,,,,,,,,,,,,,,,,,,,,,,,,,,,,,,,,---::44-%$$$&",
"<,,,,,,,,,,,,,,,,,,,,,,,,,,,,,,,,,,,,,,,,,,,,,,,,,,,,,,,:::11224",
",,,,,,,,,,,,,,,,,,,,,,,,,,,,,,,,,,,,,,,,,,,,,,,,,,,,,,,,,,,,,,::",
",,,,,,,,,,,,,,,,,,,,,,,,,,,,,,,,,,,,,,,,,,,,,,,,,,,,,,,,,,,,,,,,",
",,,,,,,,,,,,,,,,,,,,,,,,,,,,,,,,,,,,,,,,,,,,,,,,,,,,,,,,,,,,,,,,",
",,,,,,,,,,,,,,,,,,,,,,,,,,,,,,,,,,,,,,,,,,,,,,,,,,,,,,,,,,,,,,,,",
",,,,,,,,,,,,,,,,,,,,,,,,,,,,,,,,,,,,,,,,,,,,,,,,,,,,,,,,,,,,,,,,",
",,,,,,,,,,,,,,,,,,,,,qqq--------,,,,,,,,,,,,,,,,,,,,,,,,,,,,,,,,",
",,,,,,,,,,,,,,,,,qqq#qqqiiiiiqq-q--3,,,,,,,,,,,,,,,,,,,,,,,,,,,,",
",,,,,,,,,,,,,,-%%%%%%%%%%%%%%%%%%hhhss,,,,,,,,,,,,,,,,,,,,,,,,,,",
",,,,,,,,,,,,,-%%%kkkkkbbkkkkkkk%%hhhht,,,,,,,,,,,,,,,,,,,,,,,,,,",
",,,,,,,,,,,,--%%bkbbkbnnnbbbkkkkkk%hhhq,,,,,,,,,,,,,,,,,,,,,,,,,",
",,,,,,,,,,,,-%%bkbkkbnbkbbnbbkkkkkbkhhl,,,,,,,,,,,,,,,,,,,,,,,,,",
",,,,,,,,,,,,q%kkbkkkkkkkkbbbbnbbkkbkkhf-,,,,,,,,,,,,,,,,,,,,,,,,",
",,,,,,,,,,-##%knbkkkkkbnnkbbbbnnb%kbhkg-,,,,,,,,,,,,,,,,,,,,,,,,",
",,,,,,,,,qi##kkkkkkkbbbkkkkkkkknnbkbbk##,,,,,,,,,,,,,,,,,,,,,,,,",
",,,,,,,qqi##%kkbkkbbkknnbkkkkkkkkbnbbb##i,,,,,,,,,,,,,,,,,,,,,,,",
"i-;,-q%%%%%%%bkhh%kk%%%%bnbbbbkkkkkbk%jjgg--333,,,,,,,,,,,,,,,,,",
"%%%%%%%%%%%kkhhkkk%hhkk%%%bbbnnbk%%kb%%%kkkhhsss33<,,,,,,,,,,,,%",
"%kkkkkk%%%%kkh%%%%%%kkkbhkkkkkbhkkkhhkh%%%kkhhhhss22,,,,,,,,,,%%",
"h%kkkkkkkk%%%%%%%%%%h%%khhbk%h==h=%%==%bbkbbbkhhhhs2>,,,,,,,,q%%",
"bbnbbnbnnbbnk%%%%%%%hh%%hh%khh=hhhhhhbbhhhhbbkbkhhhs<,,,,,,,,q%h",
"hhbbbnnnbbnnnnnkk%%%%%hhhhh==%=h===h=hkkkkkbbbbbkkhh3,,,,,,,,%%h",
"hkbhbbbnnnnnbbnnnnbnkkkhhh=h=hhhhh=hkhhbkhk%%kkk%khhd<,,,,,,-%%h",
"hhhhhhbbbbbkbbnbbnnnbbbbh==%%@h%==hhkhhhhkkkhkkkk%hhd3,,,,,,q%hh",
"hhkhhhhkbk%bbbbnnbbbbb%%%%=hh%O@@%*pbkhh%hhkbb%kk%hhd3,,,,,,,#hh",
"hh%%hhhhhbbbbg$gjzbnnkkkh=%%%%%O@@OOk%hhkppppphkk%hh-3,,,,,,,ihp",
"h$$$$$$$$$$$$paazaj$gg$$$$$$OOooOO&&OOO&&&&&*p$$&&**;<,,,,,,,i$p",
"uO$OOOO$$$$$$&&&$$$$$$OOOooOOOOOo....OoooooOOoooooo&1,,,,,,,,-oO",
"uoooooo.  .....oooooooooo@oooooooO@O.  ....oooO&&$$7,,,,,,,,,,qo",
"qiiqqq---qq-qqi98e-qiiiiiiqqiiqqqq-------qqqqqqq--43,,,,,,,,,,:-",
",,,,,,,,,,,,,,,,,-----------,,,,,,,,,,,,,,,,,,,,,,,,,,,,,,,,,,,,",
",,,,,,,,,,,,,,,,,,,,,,,,,,,,,,,,,,,,,,,,,,,,,,,,,,,,,,,,,,,,,,,,",
",,,,,,,,,,,,,,,,,,,,,,,,,,,,,,,,,,,,,,,,,,,,,,,,,,,,,,,,,,,,,,,,",
",,,,,,,,,,,,,,,,,,,,,,,,,,,,,,,,,,,,,,,,,,,,,,,,,,,,,,,,,,,,,,,,"
};
