/* XPM */
static char *sky_3[] = {
/* columns rows colors chars-per-pixel */
"64 64 91 1 ",
"  c #DDC5BC",
". c #E3CBBB",
"X c #E8CEBA",
"o c #E6D2BE",
"O c #ECD2BB",
"+ c #EBD9BE",
"@ c #F4D6B7",
"# c #F6D8B7",
"$ c #FCDCB6",
"% c #F4D9BD",
"& c #FCDEBB",
"* c #FCE0BE",
"= c #BED2D4",
"- c #B6D5DA",
"; c #B6DDDE",
": c #BDDBDA",
"> c #95D8EF",
", c #9BDDED",
"< c #8EDDF5",
"1 c #85DDFA",
"2 c #93DDF2",
"3 c #A6DDE7",
"4 c #AADDE5",
"5 c #A2DDEA",
"6 c #A9DFE9",
"7 c #B5DEE2",
"8 c #9AE0F4",
"9 c #ADE0E9",
"0 c #B7E0E5",
"q c #BEE2E5",
"w c #B5E3ED",
"e c #B9E3EA",
"r c #A6E3F4",
"t c #AFE4F3",
"y c #B1E4F2",
"u c #BEE7F0",
"i c #CECCC8",
"p c #CBD6CF",
"a c #CED8CE",
"s c #D7D3C7",
"d c #DCD4C4",
"f c #D5D6C9",
"g c #D3DACD",
"h c #DADCC9",
"j c #C2D5D2",
"k c #C3DCD7",
"l c #CADCD3",
"z c #E6CFC0",
"x c #E1D5C2",
"c c #ECD4C1",
"v c #E4DBC3",
"b c #EDDDCC",
"n c #F1D7C0",
"m c #F9DEC1",
"M c #F2DECC",
"N c #E5DDD0",
"B c #F0DED1",
"V c #C2E0DD",
"C c #CDE2DC",
"Z c #DCE1D3",
"A c #D2E3DC",
"S c #DCE6DD",
"D c #E7E1CC",
"F c #ECE3CE",
"G c #FCE2C3",
"H c #F5E3CC",
"J c #FCE6CB",
"K c #FCE8CF",
"L c #E4E3D3",
"P c #ECE6D4",
"I c #E5E7DA",
"U c #E9EADE",
"Y c #F4E5D3",
"T c #F4E8D6",
"R c #FCE8D0",
"E c #F6E7D8",
"W c #F7E8DA",
"Q c #FCEEDD",
"! c #FCF0DF",
"~ c #C3E3E4",
"^ c #C9E3E0",
"/ c #C4E8EF",
"( c #D3E7E4",
") c #D8E7E2",
"_ c #D5EBEC",
"` c #DCECEB",
"' c #E3EAE1",
"] c #E9ECE3",
"[ c #FCEFE0",
"{ c #FCF0E0",
"} c #FCF3E8",
/* pixels */
"1111111111111111111111111111111111111111111111111111111111111111",
"1111111111111111111111111111111111111111111111111111111111111111",
"1111111111111111111111111111111111111111111111111111111111111111",
"1111111111111111111111111111111111111111111111111111111111111111",
"1111111111111111111111111111111111111111111111111111111111111111",
"1111111111111111111111111111111111111111111111111111111111111111",
"1111111111111111111111111111111111111111111111255221111111111111",
"1111111111111111111111111111111111111111111114kl7y//t11111111111",
"11111111111111111111111111111111111111111118VFFKJJ'''_uu11111111",
"11111111111111111111111111111111111111rrrALPFYRRJJRRQQ]`u1111111",
"111111111111111111111111r)))))^ZZI)^^^^^PHHHGHJRQQQRJRRQQ_111111",
"1111111111111111111111;))JJJJJJGGJJJJJG$&&**JRRQQ!Q{QQRRQW';1111",
"111111111111111111111~(YJRJJJRRJJJRRRRRQJJJKQQRQQ!QQQQRRQQQG;;;1",
"111111111111111111144YYYJJJJJRRRRRRRRQ{[QQQQQRQQ{{QQQQQQ{{[R$$$;",
"g;;1111111111111144vFJRJJJJJJRRRRRRQQRRRRRRRQRR!Q{{{{{{!Q{{Q$$$v",
"+gg;111111111111,vvDFJGJJJJJJRRQQ{RQQQRRRRQQRRRRQQ{{{{}{{{{{QR$$",
"%vgg11111111111,,vFFGG$$&JJJJRRQQRQQQRQQ{{QRQRJRRRQ!!{QQQQQRJJG$",
"Fvvg;1111111111,lvGG*&&*Gm%GGGGGGQQQQQRQQQ{QQRRJRRQRRQRQQRQQRRRR",
"Tvgg;1111111111,llGGGm%mmGmmm***G$**mmmmHHRRQRRGJRRQQRQQQQ!QQYYQ",
"vvgg111111111115khGGmmmmmmmmmm&%%%%%%mmmmmmmJJJGGJRRHRJRRRWYmmHF",
"vvg11111111111553hhG%mmmmmmmOO%%%%%%%%%mmmmmGGGGGmMHHJJ&GGHHMm+v",
";;g111111111111154:gOOmmmmnOXOOOOO%OO.XXOO%mGGGGmmcO...OOO%O++vg",
";;111111111111115,,7gvOOX.O.....OOOOOOOOOOOOcccccx.......+vvgg;g",
"111111111111111111,,44gxooOOX....   zOO.z..O...........ggv+g::;1",
"11111111111111111111111;jf@OXXOOO..........  .....OOovggg:>11111",
"111111111111111111111111111ffs%xxxOOO........X.O%%Oodg>>11111111",
"111111111111111111111111111111;444ggg%%XXXOO@%%%O%fk411111111111",
"11111111111111111111111111111111114444-ffpkkhhhhgk11111111111111",
"11111111111111111111111111111111111111144,44:::,1111111111111111",
"1111111111111111111111111111111111111111111114441111111111111111",
"1111111111111111111111111111111111111111111111111111111111111111",
"1111111111111111111111111111111111111111111111111111111111111111",
"1111111111111111111111111111111111111111111111111111111111111111",
"1111111111111111111111111111111111111111111111111111111111111111",
"1111111111;44441111111111111111111111111111111111111111111111111",
"1111:::qq^FFCC4:442111111111111111111111111111111111111111111111",
":::g:))UIPGGJJJGGGZ671111111111111111111111111111111111111111111",
"hhhZJRRQJJQQQQRJJJZZ;1111111111111111111111111111111111111111eAh",
"RRRRQQQRQQ[QQQRRQJJIZ:11111111111111111111111111111111111111eAPP",
"QQQRQ{{{QQQQRRRRQQRRZC1111111111111111111111111111111111111,qPJQ",
"QQRQ{QRQQQQQQQQKRQQQRS4111111111111111111111111111111111111qMY[Q",
"QQQRRRRRQQQQQQQQGJRRRH^111111111111111111111111111111111111NQQQQ",
"QQRRRQQQRQRKKJQQQJRQRYHr111111111111111111111111111111111;bEQ{{Q",
"QRJQQQRRRRRRKJKKRQRRQYHFr1111111111111111111111111111111ZbbW{QQQ",
"RJJGR{QQRRQQQRRJJJRJJRHHH;;555111111111111111111111111ggFbbQQQQR",
"JRGGGJJQQQQQQQRJ$$GRGGGRRRJJSC7,,21111111111115;q)u)IGGGmOMY[RRJ",
"GGG&&G*G*KJJGRGJJJGGRJGGJRRJJJJ^75511111111117LRRRRQRJJGmmQYRJRR",
"GGGG&&GG**G$&&&G&$$&G*RRRQQRRJJJJ05<111111115SRRQRRRQQGGmMYQYJJJ",
"GGGG&&Gm%mG&&&&&&&&&JKJGJJQQJRRJJJ7<11111111ePQQGRRRRRRRQMWWYMMR",
"GGGJJ**%%@%%@&&$&$&&&GJJRJQQQQQRQJJ211111111~JJQQQQQ{Q{{[EQQmMMQ",
"JJJGGG**%%%%%%%&*&*GmGJGJJ&*RRR*RJJ9<111111wLJJJGRQQ{{{Q[{[{{{QQ",
"QQQRRJ%%%&@@O%@%%&%n%GG*GGJGRRRKGJJq2111111wGJGGJRGRRR[{[[QQQQQ{",
"[[[QQYYm%%%%O.....OcOOOO%GGJQGRRGJJq21111111HHO%%GGmmYRRQQRQQQQQ",
"QYYbY%%%@%OOOO.....OXXXO%nmm%mmJGJJ421111111lmc%%GGmmmYMmMYQQQ[[",
"EbBBmmmm%X...  ..OX...XXX%%%%%$%mMG4<1111111;@m%%X%mmmmcmMMYH%HY",
"MMOcxXXXXX......    ..............#211111111,.XOOXOOXOOO@OOOcMMB",
"%%%%O...   ......OO       ....%###a11111111114ic.X.XXXOXOXXXX%%%",
"....  ..X.gvvgggg;;;;;;;ggggggg:;75111111111122:i  .....      ..",
"-3gllllll:41111111111111111111111111111111111114;;444244::4::lj=",
"333,,44444111111111111111111111111111111111111111111111111111111",
"1111111111111111111111111111111111111111111111111111111111111111",
"1111111111111111111111111111111111111111111111111111111111111111",
"1111111111111111111111111111111111111111111111111111111111111111",
"1111111111111111111111111111111111111111111111111111111111111111"
};
