/* XPM */
static char *sky_2[] = {
/* columns rows colors chars-per-pixel */
"64 64 64 1 ",
"  c #DDC5BB",
". c #E4CBBB",
"X c #E8CEBA",
"o c #E5D1BE",
"O c #ECD2BB",
"+ c #EDDBBE",
"@ c #F6D8B7",
"# c #FCDCB6",
"$ c #F1D4B8",
"% c #F5DBBC",
"& c #FCDEBB",
"* c #B6DDDE",
"= c #BCD9D8",
"- c #95D8EF",
"; c #8FDDF4",
": c #85DDFA",
"> c #96DDF0",
", c #AEDFE7",
"< c #A1DDEA",
"1 c #B3DDE0",
"2 c #9AE0F5",
"3 c #BEE5EC",
"4 c #A6E2F2",
"5 c #CED8CE",
"6 c #DFD6CC",
"7 c #D2DBCD",
"8 c #DADBC9",
"9 c #CBDCD2",
"0 c #D5D7D2",
"q c #DDDED0",
"w c #E3CEC4",
"e c #E5D1C6",
"r c #E9D4C5",
"t c #E3DBC4",
"y c #EBDBC7",
"u c #E5D7C8",
"i c #EADCC9",
"p c #F4DCC3",
"a c #F8DEC2",
"s c #F2DDCB",
"d c #C2E0DE",
"f c #CAE1DD",
"g c #DEE1D2",
"h c #D2E2DA",
"j c #D8E5DE",
"k c #ECE2CC",
"l c #F4E2C7",
"z c #FCE2C2",
"x c #F6E2CC",
"c c #FBE5CA",
"v c #FCE8CF",
"b c #E6E4D4",
"n c #EFE5D0",
"m c #F5E7D1",
"M c #FAE5D0",
"N c #F4E8D6",
"B c #FCEAD3",
"V c #F6E7D9",
"C c #F6E8DB",
"Z c #FCEEDD",
"A c #FCF0DF",
"S c #FCEFE0",
"D c #FCF0E2",
"F c #FCF3E8",
/* pixels */
"::::::::::::::::::::::::::::::::::::::::::::::::::::::::::::::::",
"::::::::::::::::::::::::::::::::::::::::::::::::::::::::::::::::",
"::::::::::::::::::::::::::::::::::::::::::::::::::::::::::::::::",
"::::::::::::::::::::::::::::::::::::::::::::::::::::::::::::::::",
"::::::::::::::::::::::::::::::::::::::::::::::::::::::::::::::::",
"::::::::::::::::::::::::::::::::::::::::::::::::::::::::::::::::",
"::::::::::::::::::::::::::2dd22:::::::::::::::::::::::::::::::::",
":::::::::::::::::::::::::*gid2222:::::::::::::::::::::::::::::::",
":::::::::::::::::::::::2dkkcczffd2::::::::::::::::::::::::::::::",
":::::::::::::::::::::dqikmBBccczzz*:::::::::::::::::::::::::::::",
":::::******777******ipppzxcBZZZczzz##:::::::::::::::::::::::::::",
"44***###############&&&&zBBZZAZDZZv&#7**::::::::::::::::::::::::",
"3f*##ccccccccccccBBZcccvBBBZZAZZZZBZZ###***::::::::::::::::::::4",
"j###cccccBBBBBBBBZZZDZDSZBZZDDZZZZZZDDcz###*:::::::::::::::::::f",
"c#ccvvvccBBBBBBZZBBBBBBBZBBAZDDDDDAAZZDB###t7**::::::::::::::*fz",
"cczBBBBBvBBZZDBBBBBZBZZZBBZZZZDDDDFDDDDDBB##+77*::::::::::::*#cv",
"cvBBvvBBBZZZZBZZZBZZSSZZZBBBBZZZZSZZZZBcccz#%t77:::::::::::**#cB",
"zBBBczzBBvvvvZZZZZZZZZSZZBBcBBBBBZZZZBZBBBBBktt7*::::::::::*##cB",
"#cBvvcaczzzcvBBBBBBcZZBZZBBzcBMZZBZZZZAZZmmZNt77*::::::::::*##cB",
"#zcBMMxpaz##cMMBMccacccMBcczzBBBmCmZZZCmppxntt77:::::::::::*##cB",
"#zzaappp$$@@@aacccccacazzMcpsspssmmacpxxsp+ttt7:::::::::::**7##c",
"###@@@X$$$$.$$$pcxsxpaaccccmmxsiir.OOO%O++t7**7:::::::::::::*77g",
"7t#@@X@OO$.X.XOOXO$XOpppssxmmsiriy...+tt77*7**::::::::::::::***7",
"**7ttt@@@OOXX    O.    XOOOo.....w.77t+7==*:::::::::::::::::::**",
":::**7#@@@@@@XXX.        w..OOOOrt777=-:::::::::::::::::::::::::",
":::::::777@@@@@@@OOXXX.X.OO$&&%+87--::::::::::::::::::::::::::::",
"::::::::::***=@@@@@@@@@@#&&&%%+8*:::::::::::::::::::::::::::::::",
"::::::::::::::*****++####&&&%8::::::::::::::::::::::::::::::::::",
":::::::::::::::::::***77++%*::::::::::::::::::::::::::::::::::::",
":::::::::::::::::::::::::***::::::::::::::::::::::::::::::::::::",
"::::::::::::::::::::::::::::::::::::::::::::::::::::::::::::::::",
"::::::::::::::::::::::::::::::::::::::::::::::::::::::::::::::::",
"::::::::::::::::::::::::::::::::::::::::::::::::::::::::::::::::",
"::::::::::::::::::::::::::::::::::::::::::::::::::::::::::::::::",
":::::::::::::::::::::::::::::::::::::::::::::::::44333jjjjj:::::",
":::::::::::::::::::::::::::::::::::::::::::::::4gggjjjnnbbjbff<:",
"f:::::::::::::::::::::::::::::::::::::::::::777lgg7ttt###zccvccf",
"9::::::::::::::::::::::::::::::::::::::::*#####zzzzz##cccc#zcccc",
"z7::::::::::::::::::::::::::::::::::::::*###cBBBBZZvvvZBBBccc#cc",
"zb:::::::::::::::::::::::::::::::::::::**##BBZZBZZZZZZZZBBBBvBcz",
"zk*::::::::::::::::::::::::::::::::::::*##ZvZBBZZZBZZZZZZZZBBBcc",
"cl*::::::::::::::::::::::::::::::::::::7#BBZBBBBBBBBZZZZZZZZzcBz",
"c++::::::::::::::::::::::::::::::::::*++zBZZBBBBBZZZBZBBBBZZZcBB",
"B++t::::::::::::::::::::::::::::::::7t++BBBBBBBZZZBBBBBBBBBBBZBB",
"zxxll**<<<::::::::::::::::::::::::77t++#BBZBBZZBBZZZBBZZZBBcccBc",
"cczccczzfff<<>::::::::::::#t*=:*7#######Bczz#cBzzzzZZZZZZZBv##cB",
"Bvczzcczzzzff,,::::::::::######zz#####cczzccc#zzcc#zzZBBBZcccczz",
"ccZZBZZBczzzzf,;::::::::7###ccBBBc####ccz######zccBcccc#z&&z&##&",
"BZBvvBZZvBczzzf>::::::::7#zz#cBZBBvvc##########z##cccBczz&zzzzzz",
"cBBBBBZZZZZvBzz<::::::::##zBBZZZZZZZZZZc#######zz##zz#&&#&z&&&z&",
"ccBBBBccBBBzBzzh>::::::*##zzzBZZZZZZZZZZSZMMzzz##zzzzzz&zzzzz&cc",
"pzccccBvBBBBzzzh<::::::7#zzzcBzZZZZZZZZZZZZSZZZBBczzz&##Oz#&&ppp",
"xpp@pzzBZzBBzzzh<:::::::+zzzzzzppmBZZZZZZZZZSZSZZZZc&&zz#XXX@ppm",
"@pppppccppxc#zz*<:::::::tzzppczpppmmMcZZZZSSZZZZm%%z#&@@@@...XXp",
"XX@@@@@pp@@@@pz*>:::::::t#ccp$@pppppxZZZMcMBZBCVxxxp%@$..  ..@@X",
"X....XXXXXXX.X@>::::::::*opca$$$$$$$$$$$pmmVmm%xp$$$$$......    ",
"      ...X@@@@5::::::::::7.srp....$pp$$$$@@@@aa@$...  err...XOO ",
"****7777777=*1<::::::::::**srree   wwe eeerrrrr.  .rrrqik7777***",
":::::::::::::::::::::::::::7tkgggfffbbjbqiu60fgkkkkkkgf:::::::::",
":::::::::::::::::::::::::::::::4444433334444ffffffff**::::::::::",
":::::::::::::::::::::::::::::::::::::::44444444:::::::::::::::::",
"::::::::::::::::::::::::::::::::::::::::::::::::::::::::::::::::",
"::::::::::::::::::::::::::::::::::::::::::::::::::::::::::::::::",
"::::::::::::::::::::::::::::::::::::::::::::::::::::::::::::::::"
};
