/* XPM */
static char *a_test2[] = {
/* columns rows colors chars-per-pixel */
"64 64 29 1 ",
"  c #000707",
". c #000D0D",
"X c #001717",
"o c #002727",
"O c #002B2B",
"+ c #003333",
"@ c #004E4E",
"# c #005656",
"$ c #005A5A",
"% c #006464",
"& c #006A6A",
"* c #007171",
"= c #007E7E",
"- c blue",
"; c #008181",
": c #008A8A",
"> c #00A1A1",
", c #00ADAD",
"< c #00B8B8",
"1 c #00C3C3",
"2 c #00CFCF",
"3 c #00DEDE",
"4 c #00C7FF",
"5 c #00D3FF",
"6 c #00DFFF",
"7 c #00E3E3",
"8 c #00EFEF",
"9 c #00F1F1",
"0 c cyan",
/* pixels */
"0000000000000000000000000000000000000000000000000000000000000000",
"0000000780000000000000000000000000000000000000000000000000000000",
"0007;O   X%30000000000000000000000000000000000000000000000000000",
"00>.       .1000000000000000000000000000000000000000000000000000",
"0>          X900000000000000000000000000000000000000000000000000",
"00@  *281o   >00000000000000000000000000000000000000000000000000",
"009$20000>   ;00000000000000000000000000000000000000000000000000",
"000000000,   :00000000000000000000000000000000000000000000000000",
"000000000*   <00000000000000000000000000000000000000000000000000",
"000000003.  o000000000000000000000000000000000000000000000000000",
"00000009+   <000000000000000000000000000000000000000000000000000",
"0000009+   =0000000000000000000000000000000000000000000000000000",
"000000@   &00000000000000000000000000000000000000000000000000000",
"00000$   &000000000000000000000000000000000000000000000000000000",
"0000#   =0000000000000000000000000000000000000000000000000000000",
"000$   :00000000000000000000000000000000000000000000000000000000",
"00#   *333333300000000000000000000000000000000000000000000000000",
"0;            90000000000000000000000000000000000000000000000000",
"0&            90000000000000000000000000000000000000000000000000",
"0&            90000000000000000000000000000000000000000000000000",
"0000000000000000000000000000000000000000000000000000000000000000",
"0000000000000000000000000000055555500000000000000000000000000000",
"00000000000000000000000000006------60000000000000000000000000000",
"00000000000000000000000000006------60000000000000000000000000000",
"00000000000000000000000000006------60000000000000000000000000000",
"00000000000000000000000000006------60000000000000000000000000000",
"00000000000000000000000000006------60000000000000000000000000000",
"00000000000000000000000000006------60000000000000000000000000000",
"00000000000000000000000000006------60000000000000000000000000000",
"00000000000000000000000000006------60000000000000000000000000000",
"00000000000000000000000000006------60000000000000000000000000000",
"00000000000000000000000000006------60000000000000000000000000000",
"00000000000000000000000000006------60000000000000000000000000000",
"00000000000000000000000000006------60000000000000000000000000000",
"00000000000000000000000000006------60000000000000000000000000000",
"00000000000000000000000000006------60000000000000000000000000000",
"00000000000000000000000000006------60000000000000000000000000000",
"00000000000000000000000000006------60000000000000000000000000000",
"00000000000000000000000000006------60000000000000000000000000000",
"00000000000000000000000000006------60000000000000000000000000000",
"00000000000000000000000000006------60000000000000000000000000000",
"00000000000000000000000000006------60000000000000000000000000000",
"00000000000000000000000000006------60000000000000000000000000000",
"00000000000000000000000000006------60000000000000000000000000000",
"00000000000000000000000000006------60000000000000000000000000000",
"00000000000000000000000000006------60000000000000000000000000000",
"00000000000000000000000000006------60000000000000000000000000000",
"00000000000000000000000000006------60000000000000000000000000000",
"00000000000000000000000000006------60000000000000000000000000000",
"00000000000000000000000000006------60000000000000000000000000000",
"00000000000000000000000000006------60000000000000000000000000000",
"00000000000000000000000000006------60000000000000000000000000000",
"00000000000000000000000000006------60000000000000000000000000000",
"00000000000000000000000000006------60000000000000000000000000000",
"00000000000000000000000000006------60000000000000000000000000000",
"00000000000000000000000000006------60000000000000000000000000000",
"00000000000000000000000000006------60000000000000000000000000000",
"00000000000000000000000000006------60000000000000000000000000000",
"00000000000000000000000000006------60000000000000000000000000000",
"00000000000000000000000000006------60000000000000000000000000000",
"00000000000000000000000000006------60000000000000000000000000000",
"00000000000000000000000000006------60000000000000000000000000000",
"00000000000000000000000000006------60000000000000000000000000000",
"00000000000000000000000000004------40000000000000000000000000000"
};
