/* XPM */
static char *a_test1[] = {
/* columns rows colors chars-per-pixel */
"64 64 22 1 ",
"  c black",
". c #000C0C",
"X c #001111",
"o c #001A1A",
"O c #002424",
"+ c #002C2C",
"@ c #004343",
"# c #005656",
"$ c #005A5A",
"% c #007F7F",
"& c blue",
"* c #007FFF",
"= c #008080",
"- c #008888",
"; c #00B6B6",
": c #00CCCC",
"> c #00D3D3",
", c #00DBDB",
"< c #00DFFF",
"1 c #00EFFF",
"2 c #00F3F3",
"3 c cyan",
/* pixels */
"3333333333333333333333333333<&&&&&&<3333333333333333333333333333",
"3333333333333333333333333333<&&&&&&<3333333333333333333333333333",
"3333332$OO@33333333333333333<&&&&&&<3333333333333333333333333333",
"33333,+   O33333333333333333<&&&&&&<3333333333333333333333333333",
"3333;X    O33333333333333333<&&&&&&<3333333333333333333333333333",
"333-      O33333333333333333<&&&&&&<3333333333333333333333333333",
"33#   @o  O33333333333333333<&&&&&&<3333333333333333333333333333",
"33=  #2o  O33333333333333333<&&&&&&<3333333333333333333333333333",
"333#%33X  O33333333333333333<&&&&&&<3333333333333333333333333333",
"3333333.  O33333333333333333<&&&&&&<3333333333333333333333333333",
"3333333.  O33333333333333333<&&&&&&<3333333333333333333333333333",
"3333333.  O33333333333333333<&&&&&&<3333333333333333333333333333",
"3333333.  O33333333333333333<&&&&&&<3333333333333333333333333333",
"3333333.  O33333333333333333<&&&&&&<3333333333333333333333333333",
"3333333.  O33333333333333333<&&&&&&<3333333333333333333333333333",
"3333333.  O33333333333333333<&&&&&&<3333333333333333333333333333",
"3333333.  O33333333333333333<&&&&&&<3333333333333333333333333333",
"3333333.  O33333333333333333<&&&&&&<3333333333333333333333333333",
"3333333.  O33333333333333333<&&&&&&<3333333333333333333333333333",
"3333333.  O33333333333333333<&&&&&&<3333333333333333333333333333",
"3333333:::>33333333333333333<&&&&&&<3333333333333333333333333333",
"3333333333333333333333333333<&&&&&&<3333333333333333333333333333",
"3333333333333333333333333333<&&&&&&<3333333333333333333333333333",
"3333333333333333333333333333<&&&&&&<3333333333333333333333333333",
"3333333333333333333333333333<&&&&&&<3333333333333333333333333333",
"3333333333333333333333333333<&&&&&&<3333333333333333333333333333",
"3333333333333333333333333333<&&&&&&<3333333333333333333333333333",
"3333333333333333333333333333<&&&&&&<3333333333333333333333333333",
"3333333333333333333333333333<&&&&&&<3333333333333333333333333333",
"3333333333333333333333333333<&&&&&&<3333333333333333333333333333",
"3333333333333333333333333333<&&&&&&<3333333333333333333333333333",
"3333333333333333333333333333<&&&&&&<3333333333333333333333333333",
"3333333333333333333333333333<&&&&&&<3333333333333333333333333333",
"3333333333333333333333333333<&&&&&&<3333333333333333333333333333",
"3333333333333333333333333333<&&&&&&<3333333333333333333333333333",
"3333333333333333333333333333<&&&&&&<3333333333333333333333333333",
"3333333333333333333333333333<&&&&&&<3333333333333333333333333333",
"3333333333333333333333333333<&&&&&&<3333333333333333333333333333",
"3333333333333333333333333333<&&&&&&<3333333333333333333333333333",
"3333333333333333333333333333<&&&&&&<3333333333333333333333333333",
"3333333333333333333333333333<&&&&&&<3333333333333333333333333333",
"3333333333333333333333333333<&&&&&&<3333333333333333333333333333",
"33333333333333333333333333331******13333333333333333333333333333",
"3333333333333333333333333333333333333333333333333333333333333333",
"3333333333333333333333333333333333333333333333333333333333333333",
"3333333333333333333333333333333333333333333333333333333333333333",
"3333333333333333333333333333333333333333333333333333333333333333",
"3333333333333333333333333333333333333333333333333333333333333333",
"3333333333333333333333333333333333333333333333333333333333333333",
"3333333333333333333333333333333333333333333333333333333333333333",
"3333333333333333333333333333333333333333333333333333333333333333",
"3333333333333333333333333333333333333333333333333333333333333333",
"3333333333333333333333333333333333333333333333333333333333333333",
"3333333333333333333333333333333333333333333333333333333333333333",
"3333333333333333333333333333333333333333333333333333333333333333",
"3333333333333333333333333333333333333333333333333333333333333333",
"3333333333333333333333333333333333333333333333333333333333333333",
"3333333333333333333333333333333333333333333333333333333333333333",
"3333333333333333333333333333333333333333333333333333333333333333",
"3333333333333333333333333333333333333333333333333333333333333333",
"3333333333333333333333333333333333333333333333333333333333333333",
"3333333333333333333333333333333333333333333333333333333333333333",
"3333333333333333333333333333333333333333333333333333333333333333",
"3333333333333333333333333333333333333333333333333333333333333333"
};
