/* XPM */
static char *a_test3[] = {
/* columns rows colors chars-per-pixel */
"64 64 31 1 ",
"  c black",
". c #000B0B",
"X c #001616",
"o c #001F1F",
"O c #002424",
"+ c #002A2A",
"@ c #003131",
"# c #003F3F",
"$ c #004141",
"% c #004B4B",
"& c #005F5F",
"* c #006060",
"= c #006B6B",
"- c #007373",
"; c #007979",
": c blue",
"> c #008D8D",
", c #009292",
"< c #009999",
"1 c #00A4A4",
"2 c #00AAAA",
"3 c #00B3B3",
"4 c #00BCBC",
"5 c #00C4C4",
"6 c #00D5D5",
"7 c #00DADA",
"8 c #00DFFF",
"9 c #00E2E2",
"0 c #00E9E9",
"q c #00F0F0",
"w c cyan",
/* pixels */
"wwwwwwwwwwwwwwwwwwwwwwwwwwww8::::::8wwwwwwwwwwwwwwwwwwwwwwwwwwww",
"wwwwwwq0qwwwwwwwwwwwwwwwwwww8::::::8wwwwwwwwwwwwwwwwwwwwwwwwwwww",
"wwq,#.   o=7wwwwwwwwwwwwwwww8::::::8wwwwwwwwwwwwwwwwwwwwwwwwwwww",
"w4X        .4wwwwwwwwwwwwwww8::::::8wwwwwwwwwwwwwwwwwwwwwwwwwwww",
"w9X         Xqwwwwwwwwwwwwww8::::::8wwwwwwwwwwwwwwwwwwwwwwwwwwww",
"ww1 &5qq4X   4wwwwwwwwwwwwww8::::::8wwwwwwwwwwwwwwwwwwwwwwwwwwww",
"www9wwwww;   4wwwwwwwwwwwwww8::::::8wwwwwwwwwwwwwwwwwwwwwwwwwwww",
"wwwwwwwww;   9wwwwwwwwwwwwww8::::::8wwwwwwwwwwwwwwwwwwwwwwwwwwww",
"wwwwwwww9O  &wwwwwwwwwwwwwww8::::::8wwwwwwwwwwwwwwwwwwwwwwwwwwww",
"wwww>-*$   %qwwwwwwwwwwwwwww8::::::8wwwwwwwwwwwwwwwwwwwwwwwwwwww",
"wwww+    O3wwwwwwwwwwwwwwwww8::::::8wwwwwwwwwwwwwwwwwwwwwwwwwwww",
"wwww+     .%7wwwwwwwwwwwwwww8::::::8wwwwwwwwwwwwwwwwwwwwwwwwwwww",
"wwww2<,;@   X7wwwwwwwwwwwwww8::::::8wwwwwwwwwwwwwwwwwwwwwwwwwwww",
"wwwwwwwww;   *wwwwwwwwwwwwww8::::::8wwwwwwwwwwwwwwwwwwwwwwwwwwww",
"wwwwwwwww6   +wwwwwwwwwwwwww8::::::8wwwwwwwwwwwwwwwwwwwwwwwwwwww",
"wwwwwwwww4   @wwwwwwwwwwwwww8::::::8wwwwwwwwwwwwwwwwwwwwwwwwwwww",
"w,<qwwww0@   &wwwwwwwwwwwwww8::::::8wwwwwwwwwwwwwwwwwwwwwwwwwwww",
"w* .#&&$.    5wwwwwwwwwwwwww8::::::8wwwwwwwwwwwwwwwwwwwwwwwwwwww",
"w*          >wwwwwwwwwwwwwww8::::::8wwwwwwwwwwwwwwwwwwwwwwwwwwww",
"w2@       #4wwwwwwwwwwwwwwww8::::::8wwwwwwwwwwwwwwwwwwwwwwwwwwww",
"www052<<49wwwwwwwwwwwwwwwwww8::::::8wwwwwwwwwwwwwwwwwwwwwwwwwwww",
"wwwwwwwwwwwwwwwwwwwwwwwwwwww8::::::8wwwwwwwwwwwwwwwwwwwwwwwwwwww",
"wwwwwwwwwwwwwwwwwwwwwwwwwwwwwwwwwwwwwwwwwwwwwwwwwwwwwwwwwwwwwwww",
"wwwwwwwwwwwwwwwwwwwwwwwwwwwwwwwwwwwwwwwwwwwwwwwwwwwwwwwwwwwwwwww",
"wwwwwwwwwwwwwwwwwwwwwwwwwwwwwwwwwwwwwwwwwwwwwwwwwwwwwwwwwwwwwwww",
"wwwwwwwwwwwwwwwwwwwwwwwwwwwwwwwwwwwwwwwwwwwwwwwwwwwwwwwwwwwwwwww",
"wwwwwwwwwwwwwwwwwwwwwwwwwwwwwwwwwwwwwwwwwwwwwwwwwwwwwwwwwwwwwwww",
"wwwwwwwwwwwwwwwwwwwwwwwwwwwwwwwwwwwwwwwwwwwwwwwwwwwwwwwwwwwwwwww",
"wwwwwwwwwwwwwwwwwwwwwwwwwwwwwwwwwwwwwwwwwwwwwwwwwwwwwwwwwwwwwwww",
"wwwwwwwwwwwwwwwwwwwwwwwwwwwwwwwwwwwwwwwwwwwwwwwwwwwwwwwwwwwwwwww",
"wwwwwwwwwwwwwwwwwwwwwwwwwwwwwwwwwwwwwwwwwwwwwwwwwwwwwwwwwwwwwwww",
"wwwwwwwwwwwwwwwwwwwwwwwwwwwwwwwwwwwwwwwwwwwwwwwwwwwwwwwwwwwwwwww",
"wwwwwwwwwwwwwwwwwwwwwwwwwwwwwwwwwwwwwwwwwwwwwwwwwwwwwwwwwwwwwwww",
"wwwwwwwwwwwwwwwwwwwwwwwwwwwwwwwwwwwwwwwwwwwwwwwwwwwwwwwwwwwwwwww",
"wwwwwwwwwwwwwwwwwwwwwwwwwwwwwwwwwwwwwwwwwwwwwwwwwwwwwwwwwwwwwwww",
"wwwwwwwwwwwwwwwwwwwwwwwwwwwwwwwwwwwwwwwwwwwwwwwwwwwwwwwwwwwwwwww",
"wwwwwwwwwwwwwwwwwwwwwwwwwwwwwwwwwwwwwwwwwwwwwwwwwwwwwwwwwwwwwwww",
"wwwwwwwwwwwwwwwwwwwwwwwwwwwwwwwwwwwwwwwwwwwwwwwwwwwwwwwwwwwwwwww",
"wwwwwwwwwwwwwwwwwwwwwwwwwwwwwwwwwwwwwwwwwwwwwwwwwwwwwwwwwwwwwwww",
"wwwwwwwwwwwwwwwwwwwwwwwwwwwwwwwwwwwwwwwwwwwwwwwwwwwwwwwwwwwwwwww",
"wwwwwwwwwwwwwwwwwwwwwwwwwwwwwwwwwwwwwwwwwwwwwwwwwwwwwwwwwwwwwwww",
"wwwwwwwwwwwwwwwwwwwwwwwwwwwwwwwwwwwwwwwwwwwwwwwwwwwwwwwwwwwwwwww",
"wwwwwwwwwwwwwwwwwwwwwwwwwwwwwwwwwwwwwwwwwwwwwwwwwwwwwwwwwwwwwwww",
"wwwwwwwwwwwwwwwwwwwwwwwwwwwwwwwwwwwwwwwwwwwwwwwwwwwwwwwwwwwwwwww",
"wwwwwwwwwwwwwwwwwwwwwwwwwwww8::::::8wwwwwwwwwwwwwwwwwwwwwwwwwwww",
"wwwwwwwwwwwwwwwwwwwwwwwwwwww8::::::8wwwwwwwwwwwwwwwwwwwwwwwwwwww",
"wwwwwwwwwwwwwwwwwwwwwwwwwwww8::::::8wwwwwwwwwwwwwwwwwwwwwwwwwwww",
"wwwwwwwwwwwwwwwwwwwwwwwwwwww8::::::8wwwwwwwwwwwwwwwwwwwwwwwwwwww",
"wwwwwwwwwwwwwwwwwwwwwwwwwwww8::::::8wwwwwwwwwwwwwwwwwwwwwwwwwwww",
"wwwwwwwwwwwwwwwwwwwwwwwwwwww8::::::8wwwwwwwwwwwwwwwwwwwwwwwwwwww",
"wwwwwwwwwwwwwwwwwwwwwwwwwwww8::::::8wwwwwwwwwwwwwwwwwwwwwwwwwwww",
"wwwwwwwwwwwwwwwwwwwwwwwwwwww8::::::8wwwwwwwwwwwwwwwwwwwwwwwwwwww",
"wwwwwwwwwwwwwwwwwwwwwwwwwwww8::::::8wwwwwwwwwwwwwwwwwwwwwwwwwwww",
"wwwwwwwwwwwwwwwwwwwwwwwwwwww8::::::8wwwwwwwwwwwwwwwwwwwwwwwwwwww",
"wwwwwwwwwwwwwwwwwwwwwwwwwwww8::::::8wwwwwwwwwwwwwwwwwwwwwwwwwwww",
"wwwwwwwwwwwwwwwwwwwwwwwwwwww8::::::8wwwwwwwwwwwwwwwwwwwwwwwwwwww",
"wwwwwwwwwwwwwwwwwwwwwwwwwwww8::::::8wwwwwwwwwwwwwwwwwwwwwwwwwwww",
"wwwwwwwwwwwwwwwwwwwwwwwwwwww8::::::8wwwwwwwwwwwwwwwwwwwwwwwwwwww",
"wwwwwwwwwwwwwwwwwwwwwwwwwwww8::::::8wwwwwwwwwwwwwwwwwwwwwwwwwwww",
"wwwwwwwwwwwwwwwwwwwwwwwwwwww8::::::8wwwwwwwwwwwwwwwwwwwwwwwwwwww",
"wwwwwwwwwwwwwwwwwwwwwwwwwwww8::::::8wwwwwwwwwwwwwwwwwwwwwwwwwwww",
"wwwwwwwwwwwwwwwwwwwwwwwwwwww8::::::8wwwwwwwwwwwwwwwwwwwwwwwwwwww",
"wwwwwwwwwwwwwwwwwwwwwwwwwwww8::::::8wwwwwwwwwwwwwwwwwwwwwwwwwwww",
"wwwwwwwwwwwwwwwwwwwwwwwwwwww8::::::8wwwwwwwwwwwwwwwwwwwwwwwwwwww"
};
